<?xml version="1.0" standalone="no"?>
<!DOCTYPE svg PUBLIC "-//W3C//DTD SVG 1.1//EN" "http://www.w3.org/Graphics/SVG/1.1/DTD/svg11.dtd" >
<svg>
<metadata>
Created by FontForge 20090914 at Sun Jul 14 12:10:00 2019
 By www-data
Copyright 2009 The Cairo Project Authors (gaber@gaberism.net)
</metadata>
<defs>
<font id="Cairo-Regular" horiz-adv-x="560" >
  <font-face 
    font-family="Cairo"
    font-weight="400"
    font-stretch="normal"
    units-per-em="1000"
    panose-1="0 0 5 0 0 0 0 0 0 0"
    ascent="800"
    descent="-200"
    x-height="500"
    cap-height="692"
    bbox="-224 -466.004 1609 1185"
    underline-thickness="50"
    underline-position="-50"
    unicode-range="U+000D-U+FEFC"
  />
<missing-glyph horiz-adv-x="235" 
 />
    <glyph glyph-name="uniFDF2" unicode="&#x627;&#xfedf;&#xfee0;&#xfeea;" horiz-adv-x="1395" arabic-form="isolated" 
d="M754 867l-52 -23v189l52 23v-189zM634 674c-8.66699 10 -12.999 25.668 -12.999 47.001c0 20.667 0.666992 37 2 49l36 8v-50c0 -10 2.16699 -18 6.5 -24s10.833 -8.33301 19.5 -7c8.66699 0.666992 15.334 4.5 20.001 11.5s7 15.833 7 26.5v38l34 7v-43
c0 -6.66699 3 -12.334 9 -17.001s12.667 -6 20 -4l21 4v86l34 7c3.33301 -19.333 5 -39 5 -59v-64l-57 -11c-2.66699 -0.666992 -7 -1 -13 -1c-14.667 0 -25.334 5.66699 -32.001 17c-6.66699 -24 -26.334 -36 -59.001 -36c-18 0 -31.333 5 -40 15zM977.001 718.001
l77 0.000976562v-718h-778c-59.333 0 -106 8.33301 -140 25s-58.5 43.167 -73.5 79.5s-22.5 85.833 -22.5 148.5c0 62 7.16699 111.667 21.5 149s38 64.666 71 81.999s77.5 26 133.5 26c24.667 0 62.5 -1.16699 113.5 -3.5s89.5 -4.83301 115.5 -7.5v-430h209v529h77v-529
h196v649zM1305 718.002v-718h-77v718h77zM133.501 146.002c11 -26.667 28.834 -46.167 53.501 -58.5s58.667 -18.5 102 -18.5h129v365c-58.667 4 -104 6 -136 6c-60.667 0 -103.334 -14.333 -128.001 -43s-37 -76 -37 -142c0 -46 5.5 -82.333 16.5 -109z" />
    <glyph glyph-name="uniFEF5" unicode="&#xfedf;&#xfe82;" horiz-adv-x="593" arabic-form="isolated" 
d="M513 718v-718h-473v69h128v514h77v-514h192v649h76zM190 674l-37.501 15.501c-11 4.33301 -18.833 6.5 -23.5 6.5c-11.333 0 -27.666 -9.66699 -48.999 -29l-11 -9l-13 45c11.333 12.667 23.833 23.5 37.5 32.5s26.5 13.5 38.5 13.5c7.33301 0 16 -1.66699 26 -5
s24 -9 42 -17c32.667 -14 51.667 -21 57 -21c4.66699 0 11.667 2.83301 21 8.5s18 12.167 26 19.5l10 9l14 -45c-12 -14.667 -24 -25.834 -36 -33.501s-23 -11.5 -33 -11.5c-13.333 0 -36.333 7 -69 21z" />
    <glyph glyph-name="uniFEF6" unicode="&#xfee0;&#xfe82;" horiz-adv-x="602" arabic-form="final" 
d="M602 69v-69h-562v69h128v514h77v-514h192v649h76v-649h89zM190 674l-37.501 15.501c-11 4.33301 -18.833 6.5 -23.5 6.5c-11.333 0 -27.666 -9.66699 -48.999 -29l-11 -9l-13 45c11.333 12.667 23.833 23.5 37.5 32.5s26.5 13.5 38.5 13.5c7.33301 0 16 -1.66699 26 -5
s24 -9 42 -17c32.667 -14 51.667 -21 57 -21c4.66699 0 11.667 2.83301 21 8.5s18 12.167 26 19.5l10 9l14 -45c-12 -14.667 -24 -25.834 -36 -33.501s-23 -11.5 -33 -11.5c-13.333 0 -36.333 7 -69 21z" />
    <glyph glyph-name="uniFEF7" unicode="&#xfedf;&#xfe84;" horiz-adv-x="593" arabic-form="isolated" 
d="M513 718v-718h-473v69h128v514h77v-514h192v649h76zM295 669l-203.998 -40.0039l-9 32l48 13c-22.667 18.667 -34 42.334 -34 71.001c0 24.667 8.66699 45.834 26 63.501s39.666 26.5 66.999 26.5c15.333 0 29.666 -2.66699 42.999 -8s23.333 -10.666 30 -15.999l-10 -38
c-4 3.33301 -10.167 6.66602 -18.5 9.99902s-17.5 5 -27.5 5c-17.333 0 -31.5 -5.66699 -42.5 -17s-16.5 -24.666 -16.5 -39.999c0 -19.333 7.66699 -34.666 23 -45.999l114 30z" />
    <glyph glyph-name="uniFEF8" unicode="&#xfee0;&#xfe84;" horiz-adv-x="602" arabic-form="final" 
d="M602 69v-69h-562v69h128v514h77v-514h192v649h76v-649h89zM295 669l-203.998 -40.0039l-9 32l48 13c-22.667 18.667 -34 42.334 -34 71.001c0 24.667 8.66699 45.834 26 63.501s39.666 26.5 66.999 26.5c15.333 0 29.666 -2.66699 42.999 -8s23.333 -10.666 30 -15.999
l-10 -38c-4 3.33301 -10.167 6.66602 -18.5 9.99902s-17.5 5 -27.5 5c-17.333 0 -31.5 -5.66699 -42.5 -17s-16.5 -24.666 -16.5 -39.999c0 -19.333 7.66699 -34.666 23 -45.999l114 30z" />
    <glyph glyph-name="uniFEF9" unicode="&#xfedf;&#xfe88;" horiz-adv-x="593" arabic-form="isolated" 
d="M513 718v-718h-473v69h128v514h77v-514h192v649h76zM308 -246l-203.998 -40.0039l-9 32l48 13c-22.667 18.667 -34 42.334 -34 71.001c0 24.667 8.66699 45.834 26 63.501s39.666 26.5 66.999 26.5c15.333 0 29.666 -2.66699 42.999 -8s23.333 -10.666 30 -15.999
l-10 -38c-4 3.33301 -10.167 6.66602 -18.5 9.99902s-17.5 5 -27.5 5c-17.333 0 -31.5 -5.66699 -42.5 -17s-16.5 -24.666 -16.5 -39.999c0 -19.333 7.66699 -34.666 23 -45.999l114 30z" />
    <glyph glyph-name="uniFEFA" unicode="&#xfee0;&#xfe88;" horiz-adv-x="602" arabic-form="final" 
d="M602 69v-69h-562v69h128v514h77v-514h192v649h76v-649h89zM308 -246l-203.998 -40.0039l-9 32l48 13c-22.667 18.667 -34 42.334 -34 71.001c0 24.667 8.66699 45.834 26 63.501s39.666 26.5 66.999 26.5c15.333 0 29.666 -2.66699 42.999 -8s23.333 -10.666 30 -15.999
l-10 -38c-4 3.33301 -10.167 6.66602 -18.5 9.99902s-17.5 5 -27.5 5c-17.333 0 -31.5 -5.66699 -42.5 -17s-16.5 -24.666 -16.5 -39.999c0 -19.333 7.66699 -34.666 23 -45.999l114 30z" />
    <glyph glyph-name="uniFEFB" unicode="&#xfedf;&#xfe8e;" horiz-adv-x="593" arabic-form="isolated" 
d="M513 718v-718h-473v69h128v514h77v-514h192v649h76z" />
    <glyph glyph-name="uniFEFC" unicode="&#xfee0;&#xfe8e;" horiz-adv-x="602" arabic-form="final" 
d="M602 69v-69h-562v69h128v514h77v-514h192v649h76v-649h89z" />
    <glyph glyph-name="uni06440671" unicode="&#xfedf;&#xfb51;" horiz-adv-x="593" 
d="M513 718v-718h-473v69h128v514h77v-514h192v649h76zM71 687l45 0.000976562c0 17.333 4.83301 34.166 14.5 50.499s23.167 29.833 40.5 40.5s37 16 59 16c56 0 84 -35.667 84 -107v-41h-243v41zM277 687.001c0 26.667 -5 45.167 -15 55.5s-23.333 15.5 -40 15.5
c-21.333 0 -39.833 -6.33301 -55.5 -19s-23.5 -30 -23.5 -52h134z" />
    <glyph glyph-name="uni06440671.fina" unicode="&#xfee0;&#xfb51;" horiz-adv-x="602" 
d="M602 69v-69h-562v69h128v514h77v-514h192v649h76v-649h89zM71 687l45 0.000976562c0 17.333 4.83301 34.166 14.5 50.499s23.167 29.833 40.5 40.5s37 16 59 16c56 0 84 -35.667 84 -107v-41h-243v41zM277 687.001c0 26.667 -5 45.167 -15 55.5s-23.333 15.5 -40 15.5
c-21.333 0 -39.833 -6.33301 -55.5 -19s-23.5 -30 -23.5 -52h134z" />
    <glyph glyph-name="uni066E.init" unicode="&#x66e;" horiz-adv-x="306" 
d="M226 500v-500h-226v69h149v431h77z" />
    <glyph glyph-name="uni066E.medi" unicode="&#x66e;" horiz-adv-x="375" 
d="M375 69v-69h-375v69h149v431h77v-431h149z" />
    <glyph glyph-name="uni066E.fina" unicode="&#x66e;" horiz-adv-x="831" 
d="M831 69l0.000976562 -69.001h-518c-64 0 -114.667 5.33301 -152 16s-64.5 27.667 -81.5 51s-25.5 55.333 -25.5 96c0 50.667 10.333 126.334 31 227.001l60 -3l-10 -80c-0.666992 -7.33301 -2.83398 -25.833 -6.50098 -55.5s-5.5 -53.167 -5.5 -70.5
c0 -28.667 5.83301 -51 17.5 -67s31 -27.5 58 -34.5s64.833 -10.5 113.5 -10.5h296v431h77v-431h146z" />
    <glyph glyph-name="uni066F.init" unicode="&#x66f;" horiz-adv-x="578" 
d="M518 489v-488.998h-518v69h142c-18 35.333 -27 91.666 -27 168.999c0 68.667 7.16699 121.667 21.5 159s38.333 63.666 72 78.999s81.5 23 143.5 23c50.667 0 96.667 -2.33301 138 -7zM228 69.002h213v359c-45.333 3.33301 -77.333 5 -96 5c-42 0 -74 -6.33301 -96 -19
s-37.167 -32.667 -45.5 -60s-12.5 -65.333 -12.5 -114c0 -84.667 12.333 -141.667 37 -171z" />
    <glyph glyph-name="uni066F.medi" unicode="&#x66f;" horiz-adv-x="606" 
d="M606 69v-68.998h-606v69h142c-18 35.333 -27 91.666 -27 168.999c0 68.667 7.16699 121.667 21.5 159s38.333 63.666 72 78.999s81.5 23 143.5 23c50.667 0 96.667 -2.33301 138 -7l28 -3v-420h88zM228 69.002h213v359c-45.333 3.33301 -77.333 5 -96 5
c-42 0 -74 -6.33301 -96 -19s-37.167 -32.667 -45.5 -60s-12.5 -65.333 -12.5 -114c0 -84.667 12.333 -141.667 37 -171z" />
    <glyph glyph-name="uni066F.fina" unicode="&#x66f;" horiz-adv-x="900" 
d="M900 0l-112.998 0.000976562v-37c0 -64 -20.667 -115.333 -62 -154s-98.333 -58 -171 -58h-281c-72.667 0 -129.667 19.333 -171 58s-62 90.334 -62 155.001c0 48.667 12 143 36 283l73 -12c-11.333 -72.667 -19.5 -127.334 -24.5 -164.001s-7.5 -66.667 -7.5 -90
c0 -50 13.167 -89.333 39.5 -118s66.166 -43 119.499 -43h274c54 0 94.167 14.333 120.5 43s39.5 68 39.5 118v19h-145c-46 0 -81.833 6.66699 -107.5 20s-44.334 36.666 -56.001 69.999s-17.5 81 -17.5 143c0 64 6.66699 115.167 20 153.5s36 66.833 68 85.5s77 28 135 28
c20 0 45.333 -0.833008 76 -2.5s56 -3.5 76 -5.5l28 -3v-420h113v-69zM473.502 134.001c8.33301 -24 21.8311 -40.833 40.498 -50.5s44.334 -14.5 77.001 -14.5h119v358c-46 4 -77.333 6 -94 6c-40 0 -71.167 -6.83301 -93.5 -20.5s-38.166 -34.667 -47.499 -63
s-14 -65.833 -14 -112.5c0 -44.667 4.16699 -79 12.5 -103z" />
    <glyph glyph-name="uni06A1.init" unicode="&#x6a1;" horiz-adv-x="578" 
d="M518 489v-488.998h-518v69h142c-18 35.333 -27 91.666 -27 168.999c0 68.667 7.16699 121.667 21.5 159s38.333 63.666 72 78.999s81.5 23 143.5 23c50.667 0 96.667 -2.33301 138 -7zM228 69.002h213v359c-45.333 3.33301 -77.333 5 -96 5c-42 0 -74 -6.33301 -96 -19
s-37.167 -32.667 -45.5 -60s-12.5 -65.333 -12.5 -114c0 -84.667 12.333 -141.667 37 -171z" />
    <glyph glyph-name="uni06A1.medi" unicode="&#x6a1;" horiz-adv-x="606" 
d="M606 69v-68.998h-606v69h142c-18 35.333 -27 91.666 -27 168.999c0 68.667 7.16699 121.667 21.5 159s38.333 63.666 72 78.999s81.5 23 143.5 23c50.667 0 96.667 -2.33301 138 -7l28 -3v-420h88zM228 69.002h213v359c-45.333 3.33301 -77.333 5 -96 5
c-42 0 -74 -6.33301 -96 -19s-37.167 -32.667 -45.5 -60s-12.5 -65.333 -12.5 -114c0 -84.667 12.333 -141.667 37 -171z" />
    <glyph glyph-name="uni06A1.fina" unicode="&#x6a1;" horiz-adv-x="988" 
d="M988 69v-68.999h-689c-64 0 -114.667 5.33301 -152 16s-64.5 27.667 -81.5 51s-25.5 55.333 -25.5 96c0 27.333 3.16699 62.333 9.5 105s13.833 83.334 22.5 122.001l60 -3l-7 -50c-10.667 -78 -16 -130 -16 -156c0 -28.667 5.83301 -51 17.5 -67s31 -27.5 58 -34.5
s64.833 -10.5 113.5 -10.5h226c-18 35.333 -27 91.666 -27 168.999c0 68.667 7.16699 121.667 21.5 159s38.333 63.666 72 78.999s81.5 23 143.5 23c50.667 0 96.667 -2.33301 138 -7l28 -3v-420h88zM610 69.001h213v359c-45.333 3.33301 -77.333 5 -96 5
c-42 0 -74 -6.33301 -96 -19s-37.167 -32.667 -45.5 -60s-12.5 -65.333 -12.5 -114c0 -84.667 12.333 -141.667 37 -171z" />
    <glyph glyph-name="uni06BA.init" unicode="&#x6ba;" horiz-adv-x="306" 
d="M226 500v-500h-226v69h149v431h77z" />
    <glyph glyph-name="uni06BA.medi" unicode="&#x6ba;" horiz-adv-x="375" 
d="M375 69v-69h-375v69h149v431h77v-431h149z" />
    <glyph glyph-name="uni06C2.init" unicode="&#x6c2;" horiz-adv-x="306" 
d="M226 500v-500h-226v69h149v431h77zM124 -60h62l-46 -230h-83zM290 638l-203.998 -40.0039l-9 32l48 13c-22.667 18.667 -34 42.334 -34 71.001c0 24.667 8.66699 45.834 26 63.501s39.666 26.5 66.999 26.5c15.333 0 29.666 -2.66699 42.999 -8
s23.333 -10.666 30 -15.999l-10 -38c-4 3.33301 -10.167 6.66602 -18.5 9.99902s-17.5 5 -27.5 5c-17.333 0 -31.5 -5.66699 -42.5 -17s-16.5 -24.666 -16.5 -39.999c0 -19.333 7.66699 -34.666 23 -45.999l114 30z" />
    <glyph glyph-name="uni06C2.medi" unicode="&#x6c2;" horiz-adv-x="543" 
d="M543 0h-114v-310l-28 -3c-1.33301 0 -18.333 -1 -51 -3c-58.667 0 -104.167 8.66699 -136.5 26s-56.333 48.5 -72 93.5s-24.5 110.5 -26.5 196.5h-115v69h190v-42c0 -77.333 4.66699 -135.5 14 -174.5s25.333 -65.667 48 -80s56 -21.5 100 -21.5v318h191v-69zM375 347
l-203.998 -40.0039l-9 32l48 13c-22.667 18.667 -34 42.334 -34 71.001c0 24.667 8.66699 45.834 26 63.501s39.666 26.5 66.999 26.5c15.333 0 29.666 -2.66699 42.999 -8s23.333 -10.666 30 -15.999l-10 -38c-4 3.33301 -10.167 6.66602 -18.5 9.99902s-17.5 5 -27.5 5
c-17.333 0 -31.5 -5.66699 -42.5 -17s-16.5 -24.666 -16.5 -39.999c0 -19.333 7.66699 -34.666 23 -45.999l114 30z" />
    <glyph glyph-name="uni06C2.fina" unicode="&#x6c2;" horiz-adv-x="609" 
d="M609 69v-68.999h-333c-59.333 0 -106 8.33301 -140 25s-58.5 43.167 -73.5 79.5s-22.5 85.833 -22.5 148.5c0 62 7.16699 111.667 21.5 149s38 64.666 71 81.999s77.5 26 133.5 26c24.667 0 62.5 -1.16699 113.5 -3.5s89.5 -4.83301 115.5 -7.5v-430h114zM133.5 146.001
c11 -26.667 28.834 -46.167 53.501 -58.5s58.667 -18.5 102 -18.5h129v365c-58.667 4 -104 6 -136 6c-60.667 0 -103.334 -14.333 -128.001 -43s-37 -76 -37 -142c0 -46 5.5 -82.333 16.5 -109zM398.001 638.001l-203.998 -40.0039l-9 32l48 13
c-22.667 18.667 -34 42.334 -34 71.001c0 24.667 8.66699 45.834 26 63.501s39.666 26.5 66.999 26.5c15.333 0 29.666 -2.66699 42.999 -8s23.333 -10.666 30 -15.999l-10 -38c-4 3.33301 -10.167 6.66602 -18.5 9.99902s-17.5 5 -27.5 5
c-17.333 0 -31.5 -5.66699 -42.5 -17s-16.5 -24.666 -16.5 -39.999c0 -19.333 7.66699 -34.666 23 -45.999l114 30z" />
    <glyph glyph-name="uni06C3.fina" unicode="&#x6c3;" horiz-adv-x="609" 
d="M609 69l-0.000976562 -69.001h-191v436c-25.333 1.33301 -51.333 2.5 -78 3.5s-49 1.5 -67 1.5c-40 0 -71.333 -6.16699 -94 -18.5s-38.667 -31.833 -48 -58.5s-14 -63 -14 -109v-255h-77v257c0 60.667 7.33301 109.334 22 146.001s38.334 63.667 71.001 81s77 26 133 26
c28 0 64 -0.833008 108 -2.5s75 -3.5 93 -5.5l28 -3v-430h114zM194.999 706.999h76v-84h-76v84zM319.999 706.999h76v-84h-76v84z" />
    <glyph glyph-name="uniFB51" unicode="&#x671;" horiz-adv-x="261" arabic-form="final" 
d="M261 69v-69h-171v632h77v-563h94zM7 727l45 0.000976562c0 17.333 4.83301 34.166 14.5 50.499s23.167 29.833 40.5 40.5s37 16 59 16c56 0 84 -35.667 84 -107v-41h-243v41zM213 727.001c0 26.667 -5 45.167 -15 55.5s-23.333 15.5 -40 15.5
c-21.333 0 -39.833 -6.33301 -55.5 -19s-23.5 -30 -23.5 -52h134z" />
    <glyph glyph-name="uniFB57" unicode="&#x67e;" horiz-adv-x="831" arabic-form="final" 
d="M831 69l0.000976562 -69.001h-518c-64 0 -114.667 5.33301 -152 16s-64.5 27.667 -81.5 51s-25.5 55.333 -25.5 96c0 50.667 10.333 126.334 31 227.001l60 -3l-10 -80c-0.666992 -7.33301 -2.83398 -25.833 -6.50098 -55.5s-5.5 -53.167 -5.5 -70.5
c0 -28.667 5.83301 -51 17.5 -67s31 -27.5 58 -34.5s64.833 -10.5 113.5 -10.5h296v431h77v-431h146zM288.001 -80.001h76v-84h-76v84zM413.001 -80.001h76v-84h-76v84zM351.001 -205.001h75v-81h-75v81z" />
    <glyph glyph-name="uniFB58" unicode="&#x67e;" horiz-adv-x="306" arabic-form="initial" 
d="M226 500v-500h-226v69h149v431h77zM86 -80h76v-84h-76v84zM211 -80h76v-84h-76v84zM149 -205h75v-81h-75v81z" />
    <glyph glyph-name="uniFB59" unicode="&#x67e;" horiz-adv-x="375" arabic-form="medial" 
d="M375 69v-69h-375v69h149v431h77v-431h149zM86 -80h76v-84h-76v84zM211 -80h76v-84h-76v84zM149 -205h75v-81h-75v81z" />
    <glyph glyph-name="uniFB67" unicode="&#x679;" horiz-adv-x="831" arabic-form="final" 
d="M831 69l0.000976562 -69.001h-518c-64 0 -114.667 5.33301 -152 16s-64.5 27.667 -81.5 51s-25.5 55.333 -25.5 96c0 50.667 10.333 126.334 31 227.001l60 -3l-10 -80c-0.666992 -7.33301 -2.83398 -25.833 -6.50098 -55.5s-5.5 -53.167 -5.5 -70.5
c0 -28.667 5.83301 -51 17.5 -67s31 -27.5 58 -34.5s64.833 -10.5 113.5 -10.5h296v431h77v-431h146zM471.501 643.999c14.333 -13.333 21.499 -34.334 21.499 -63.001v-81h-208v43h15v186h41v-122c10 18.667 20.833 32.834 32.5 42.501s26.834 14.5 45.501 14.5
c20.667 0 38.167 -6.66699 52.5 -20zM361.5 596.998c-13.667 -15.333 -20.5 -31.667 -20.5 -49v-5h111v38c0 12 -3.16699 21.5 -9.5 28.5s-16.166 10.5 -29.499 10.5c-20.667 0 -37.834 -7.66699 -51.501 -23z" />
    <glyph glyph-name="uniFB68" unicode="&#x679;" horiz-adv-x="306" arabic-form="initial" 
d="M226 500v-500h-226v69h149v431h77zM269.5 737c14.333 -13.333 21.499 -34.334 21.499 -63.001v-81h-208v43h15v186h41v-122c10 18.667 20.833 32.834 32.5 42.501s26.834 14.5 45.501 14.5c20.667 0 38.167 -6.66699 52.5 -20zM159.499 689.999
c-13.667 -15.333 -20.5 -31.667 -20.5 -49v-5h111v38c0 12 -3.16699 21.5 -9.5 28.5s-16.166 10.5 -29.499 10.5c-20.667 0 -37.834 -7.66699 -51.501 -23z" />
    <glyph glyph-name="uniFB69" unicode="&#x679;" horiz-adv-x="375" arabic-form="medial" 
d="M375 69v-69h-375v69h149v431h77v-431h149zM269.5 737c14.333 -13.333 21.499 -34.334 21.499 -63.001v-81h-208v43h15v186h41v-122c10 18.667 20.833 32.834 32.5 42.501s26.834 14.5 45.501 14.5c20.667 0 38.167 -6.66699 52.5 -20zM159.499 689.999
c-13.667 -15.333 -20.5 -31.667 -20.5 -49v-5h111v38c0 12 -3.16699 21.5 -9.5 28.5s-16.166 10.5 -29.499 10.5c-20.667 0 -37.834 -7.66699 -51.501 -23z" />
    <glyph glyph-name="uniFB6B" unicode="&#x6a4;" horiz-adv-x="988" arabic-form="final" 
d="M988 69v-68.999h-689c-64 0 -114.667 5.33301 -152 16s-64.5 27.667 -81.5 51s-25.5 55.333 -25.5 96c0 27.333 3.16699 62.333 9.5 105s13.833 83.334 22.5 122.001l60 -3l-7 -50c-10.667 -78 -16 -130 -16 -156c0 -28.667 5.83301 -51 17.5 -67s31 -27.5 58 -34.5
s64.833 -10.5 113.5 -10.5h226c-18 35.333 -27 91.666 -27 168.999c0 68.667 7.16699 121.667 21.5 159s38.333 63.666 72 78.999s81.5 23 143.5 23c50.667 0 96.667 -2.33301 138 -7l28 -3v-420h88zM610 69.001h213v359c-45.333 3.33301 -77.333 5 -96 5
c-42 0 -74 -6.33301 -96 -19s-37.167 -32.667 -45.5 -60s-12.5 -65.333 -12.5 -114c0 -84.667 12.333 -141.667 37 -171zM695 799.001h75v-81h-75v81zM632 677.001h76v-84h-76v84zM757 677.001h76v-84h-76v84z" />
    <glyph glyph-name="uniFB6C" unicode="&#x6a4;" horiz-adv-x="578" arabic-form="initial" 
d="M518 489v-488.998h-518v69h142c-18 35.333 -27 91.666 -27 168.999c0 68.667 7.16699 121.667 21.5 159s38.333 63.666 72 78.999s81.5 23 143.5 23c50.667 0 96.667 -2.33301 138 -7zM228 69.002h213v359c-45.333 3.33301 -77.333 5 -96 5c-42 0 -74 -6.33301 -96 -19
s-37.167 -32.667 -45.5 -60s-12.5 -65.333 -12.5 -114c0 -84.667 12.333 -141.667 37 -171zM298 799.002h75v-81h-75v81zM235 677.002h76v-84h-76v84zM360 677.002h76v-84h-76v84z" />
    <glyph glyph-name="uniFB6D" unicode="&#x6a4;" horiz-adv-x="606" arabic-form="medial" 
d="M606 69v-68.998h-606v69h142c-18 35.333 -27 91.666 -27 168.999c0 68.667 7.16699 121.667 21.5 159s38.333 63.666 72 78.999s81.5 23 143.5 23c50.667 0 96.667 -2.33301 138 -7l28 -3v-420h88zM228 69.002h213v359c-45.333 3.33301 -77.333 5 -96 5
c-42 0 -74 -6.33301 -96 -19s-37.167 -32.667 -45.5 -60s-12.5 -65.333 -12.5 -114c0 -84.667 12.333 -141.667 37 -171zM277 799.002h75v-81h-75v81zM214 677.002h76v-84h-76v84zM339 677.002h76v-84h-76v84z" />
    <glyph glyph-name="uniFB7B" unicode="&#x686;" horiz-adv-x="607" arabic-form="final" 
d="M98.5 -258c-39 38.667 -58.5 94.3311 -58.5 166.998c0 133.333 68.333 200 205 200c34 0 66.667 -4.16699 98 -12.5s55.666 -17.5 72.999 -27.5v271c0 33.333 -8.66699 58.5 -26 75.5s-43.333 25.5 -78 25.5c-30 0 -89.333 -5.33301 -178 -16l-28 -3l-3 57
c100.667 20.667 176 31 226 31c109.333 0 164 -57 164 -171v-270h114v-69h-191c-18.667 10 -42.667 19.167 -72 27.5s-58.666 12.5 -87.999 12.5c-44.667 0 -78.667 -10.667 -102 -32s-35 -55.666 -35 -102.999c0 -49.333 13.667 -87.166 41 -113.499
s69.333 -39.5 126 -39.5l11 -68h-27c-75.333 0 -132.5 19.333 -171.5 58zM280 -80.0029h82v-95h-82v95zM432 -80.0029h82v-95h-82v95zM359 -210.003h75v-87h-75v87z" />
    <glyph glyph-name="uniFB7C" unicode="&#x686;" horiz-adv-x="538" arabic-form="initial" 
d="M478 339v-339h-478v69h401v271c0 33.333 -8.66699 58.5 -26 75.5s-43.333 25.5 -78 25.5c-30 0 -89.333 -5.33301 -178 -16l-28 -3l-3 57c100.667 20.667 176 31 226 31c109.333 0 164 -57 164 -171zM178 -80h76v-84h-76v84zM303 -80h76v-84h-76v84zM241 -205h75v-81h-75
v81z" />
    <glyph glyph-name="uniFB7D" unicode="&#x686;" horiz-adv-x="592" arabic-form="medial" 
d="M592 69v-69h-592v69h401v271c0 33.333 -8.66699 58.5 -26 75.5s-43.333 25.5 -78 25.5c-30 0 -89.333 -5.33301 -178 -16l-28 -3l-3 57c100.667 20.667 176 31 226 31c109.333 0 164 -57 164 -171v-270h114zM195 -80h76v-84h-76v84zM320 -80h76v-84h-76v84zM258 -205h75
v-81h-75v81z" />
    <glyph glyph-name="uniFB89" unicode="&#x688;" horiz-adv-x="536" arabic-form="final" 
d="M536 69l-0.000976562 -69.002h-496v69h325v116c0 98.667 -19.167 167.834 -57.5 207.501s-83.166 59.5 -134.499 59.5h-81l-5 57c6.66699 2.66699 20.167 5.33398 40.5 8.00098s39.833 4 58.5 4c72.667 0 133.5 -26.167 182.5 -78.5s73.5 -137.5 73.5 -255.5v-118h94z
M214.499 763.998c14.333 -13.333 21.499 -34.334 21.499 -63.001v-81h-208v43h15v186h41v-122c10 18.667 20.833 32.834 32.5 42.501s26.834 14.5 45.501 14.5c20.667 0 38.167 -6.66699 52.5 -20zM104.498 716.997c-13.667 -15.333 -20.5 -31.667 -20.5 -49v-5h111v38
c0 12 -3.16699 21.5 -9.5 28.5s-16.166 10.5 -29.499 10.5c-20.667 0 -37.834 -7.66699 -51.501 -23z" />
    <glyph glyph-name="uniFB8B" unicode="&#x698;" horiz-adv-x="404" arabic-form="final" 
d="M404 0h-124.999v-11c0 -158.667 -55 -238 -165 -238c-10.667 0 -20.5 0.333008 -29.5 1s-16.833 1.33398 -23.5 2.00098l-21 2v68c33.333 -2.66699 54.333 -4 63 -4c33.333 0 58.166 13.167 74.499 39.5s24.5 63.166 24.5 110.499v529h77v-430h125v-69zM201.001 799h75
v-81h-75v81zM138.001 677h76v-84h-76v84zM263.001 677h76v-84h-76v84z" />
    <glyph glyph-name="uniFB8D" unicode="&#x691;" horiz-adv-x="404" arabic-form="final" 
d="M404 0h-124.999v-11c0 -158.667 -55 -238 -165 -238c-10.667 0 -20.5 0.333008 -29.5 1s-16.833 1.33398 -23.5 2.00098l-21 2v68c33.333 -2.66699 54.333 -4 63 -4c33.333 0 58.166 13.167 74.499 39.5s24.5 63.166 24.5 110.499v529h77v-430h125v-69zM321.501 737
c14.333 -13.333 21.499 -34.334 21.499 -63.001v-81h-208v43h15v186h41v-122c10 18.667 20.833 32.834 32.5 42.501s26.834 14.5 45.501 14.5c20.667 0 38.167 -6.66699 52.5 -20zM211.5 689.999c-13.667 -15.333 -20.5 -31.667 -20.5 -49v-5h111v38
c0 12 -3.16699 21.5 -9.5 28.5s-16.166 10.5 -29.499 10.5c-20.667 0 -37.834 -7.66699 -51.501 -23z" />
    <glyph glyph-name="uniFB8F" unicode="&#x6a9;" horiz-adv-x="851" arabic-form="final" 
d="M851 69l0.000976562 -68.999h-552c-64 0 -114.667 5.33301 -152 16s-64.5 27.667 -81.5 51s-25.5 55.333 -25.5 96c0 45.333 8.66699 111.333 26 198l62 -3c-2.66699 -18.667 -4.33398 -32.667 -5.00098 -42c-9.33301 -62.667 -14 -107.667 -14 -135
c0 -28.667 5.83301 -51 17.5 -67s31 -27.5 58 -34.5s64.833 -10.5 113.5 -10.5h363v145c0 40 -7.5 74.667 -22.5 104s-39.833 44.333 -74.5 45h-271l-51 69l52 102c12 24 30.167 53.167 54.5 87.5s48.833 66.5 73.5 96.5l55 -31c-30.667 -46 -53.667 -81.5 -69 -106.5
s-29.333 -49.833 -42 -74.5l-38 -74h242c58 0 100.5 -20.333 127.5 -61s40.5 -93.334 40.5 -158.001v-144h113z" />
    <glyph glyph-name="uniFB90" unicode="&#x6a9;" horiz-adv-x="586" arabic-form="initial" 
d="M485.5 371c27 -40.667 40.5 -93.333 40.5 -158v-213h-526v69h449v145c0 40 -7.5 74.667 -22.5 104s-39.833 44.333 -74.5 45h-271l-51 69l52 102c12 24 30.167 53.167 54.5 87.5s48.833 66.5 73.5 96.5l55 -31c-30.667 -46 -53.667 -81.5 -69 -106.5
s-29.333 -49.833 -42 -74.5l-38 -74h242c58 0 100.5 -20.333 127.5 -61z" />
    <glyph glyph-name="uniFB91" unicode="&#x6a9;" horiz-adv-x="669" arabic-form="medial" 
d="M669 69v-68.999h-669v69h449v145c0 40 -7.5 74.667 -22.5 104s-39.833 44.333 -74.5 45h-271l-51 69l52 102c12 24 30.167 53.167 54.5 87.5s48.833 66.5 73.5 96.5l55 -31c-30.667 -46 -53.667 -81.5 -69 -106.5s-29.333 -49.833 -42 -74.5l-38 -74h242
c58 0 100.5 -20.333 127.5 -61s40.5 -93.334 40.5 -158.001v-144h143z" />
    <glyph glyph-name="uniFB93" unicode="&#x6af;" horiz-adv-x="851" arabic-form="final" 
d="M851 69l0.000976562 -68.999h-552c-64 0 -114.667 5.33301 -152 16s-64.5 27.667 -81.5 51s-25.5 55.333 -25.5 96c0 45.333 8.66699 111.333 26 198l62 -3c-2.66699 -18.667 -4.33398 -32.667 -5.00098 -42c-9.33301 -62.667 -14 -107.667 -14 -135
c0 -28.667 5.83301 -51 17.5 -67s31 -27.5 58 -34.5s64.833 -10.5 113.5 -10.5h363v145c0 40 -7.5 74.667 -22.5 104s-39.833 44.333 -74.5 45h-271l-51 69l52 102c12 24 30.167 53.167 54.5 87.5s48.833 66.5 73.5 96.5l55 -31c-30.667 -46 -53.667 -81.5 -69 -106.5
s-29.333 -49.833 -42 -74.5l-38 -74h242c58 0 100.5 -20.333 127.5 -61s40.5 -93.334 40.5 -158.001v-144h113zM186.001 512.001l31 60.999c11.333 21.333 29.5 50 54.5 86s49.5 68.667 73.5 98l45 -25c-24.667 -29.333 -51.5 -64.666 -80.5 -105.999
s-48.5 -72.333 -58.5 -93l-32 -65z" />
    <glyph glyph-name="uniFB94" unicode="&#x6af;" horiz-adv-x="586" arabic-form="initial" 
d="M485.5 371c27 -40.667 40.5 -93.333 40.5 -158v-213h-526v69h449v145c0 40 -7.5 74.667 -22.5 104s-39.833 44.333 -74.5 45h-271l-51 69l52 102c12 24 30.167 53.167 54.5 87.5s48.833 66.5 73.5 96.5l55 -31c-30.667 -46 -53.667 -81.5 -69 -106.5
s-29.333 -49.833 -42 -74.5l-38 -74h242c58 0 100.5 -20.333 127.5 -61zM-28 512.001l31 60.999c11.333 21.333 29.5 50 54.5 86s49.5 68.667 73.5 98l45 -25c-24.667 -29.333 -51.5 -64.666 -80.5 -105.999s-48.5 -72.333 -58.5 -93l-32 -65z" />
    <glyph glyph-name="uniFB95" unicode="&#x6af;" horiz-adv-x="669" arabic-form="medial" 
d="M669 69v-68.999h-669v69h449v145c0 40 -7.5 74.667 -22.5 104s-39.833 44.333 -74.5 45h-271l-51 69l52 102c12 24 30.167 53.167 54.5 87.5s48.833 66.5 73.5 96.5l55 -31c-30.667 -46 -53.667 -81.5 -69 -106.5s-29.333 -49.833 -42 -74.5l-38 -74h242
c58 0 100.5 -20.333 127.5 -61s40.5 -93.334 40.5 -158.001v-144h143zM-28 512.001l31 60.999c11.333 21.333 29.5 50 54.5 86s49.5 68.667 73.5 98l45 -25c-24.667 -29.333 -51.5 -64.666 -80.5 -105.999s-48.5 -72.333 -58.5 -93l-32 -65z" />
    <glyph glyph-name="uniFB9F" unicode="&#x6ba;" horiz-adv-x="669" arabic-form="final" 
d="M669 0l-114 0.000976562v-40c0 -44.667 -11.5 -82.667 -34.5 -114s-53.667 -54.833 -92 -70.5s-80.166 -23.5 -125.499 -23.5c-48.667 0 -93 9 -133 27s-71.667 43 -95 75s-35 68.667 -35 110c0 25.333 4 68 12 128s17.333 120.333 28 181l74 -4
c-10 -65.333 -18.667 -126.833 -26 -184.5s-11 -96.167 -11 -115.5c0 -28.667 8.16699 -54.334 24.5 -77.001s38.5 -40.167 66.5 -52.5s59 -18.5 93 -18.5c49.333 0 91.166 12.833 125.499 38.5s51.5 62.167 51.5 109.5v531h77v-431h114v-69z" />
    <glyph glyph-name="uniFBA7" unicode="&#x6c1;" horiz-adv-x="609" arabic-form="final" 
d="M609 69l-0.000976562 -69.001h-191v436c-25.333 1.33301 -51.333 2.5 -78 3.5s-49 1.5 -67 1.5c-40 0 -71.333 -6.16699 -94 -18.5s-38.667 -31.833 -48 -58.5s-14 -63 -14 -109v-255h-77v257c0 60.667 7.33301 109.334 22 146.001s38.334 63.667 71.001 81s77 26 133 26
c28 0 64 -0.833008 108 -2.5s75 -3.5 93 -5.5l28 -3v-430h114z" />
    <glyph glyph-name="uniFBA8" unicode="&#x6c1;" horiz-adv-x="306" arabic-form="initial" 
d="M226 500v-500h-226v69h149v431h77zM124 -60h62l-46 -230h-83z" />
    <glyph glyph-name="uniFBA9" unicode="&#x6c1;" horiz-adv-x="543" arabic-form="medial" 
d="M543 0h-114v-310l-28 -3c-1.33301 0 -18.333 -1 -51 -3c-58.667 0 -104.167 8.66699 -136.5 26s-56.333 48.5 -72 93.5s-24.5 110.5 -26.5 196.5h-115v69h190v-42c0 -77.333 4.66699 -135.5 14 -174.5s25.333 -65.667 48 -80s56 -21.5 100 -21.5v318h191v-69z" />
    <glyph glyph-name="uniFBAB" unicode="&#x6be;" horiz-adv-x="779" arabic-form="final" 
d="M779 69l-0.000976562 -69.001h-739v69h55v80c0 32.667 8.16699 62.834 24.5 90.501s38.333 49.667 66 66s57.834 24.5 90.501 24.5c32 0 61.833 -7.83301 89.5 -23.5s49.667 -37.334 66 -65.001s24.5 -58.5 24.5 -92.5v-80h147v138
c0 98.667 -24.833 167.834 -74.5 207.501s-112.5 59.5 -188.5 59.5c-29.333 0 -60.5 -2.16699 -93.5 -6.5s-72.5 -10.5 -118.5 -18.5l-5 59c86.667 23.333 163.667 35 231 35c94 0 171.833 -26 233.5 -78s92.5 -137.333 92.5 -256v-140h99zM201.999 230.999
c-20 -20 -30 -44.333 -30 -73v-89h207v89c0 28.667 -9.83301 53 -29.5 73s-44.167 30 -73.5 30s-54 -10 -74 -30z" />
    <glyph glyph-name="uniFBAC" unicode="&#x6be;" horiz-adv-x="760" arabic-form="initial" 
d="M607.5 465c61.667 -52 92.499 -137.334 92.499 -256.001v-209h-700v69h115v80c0 32.667 8.16699 62.834 24.5 90.501s38.333 49.667 66 66s57.834 24.5 90.501 24.5c32 0 61.833 -7.83301 89.5 -23.5s49.667 -37.334 66 -65.001s24.5 -58.5 24.5 -92.5v-80h147v138
c0 98.667 -24.833 167.834 -74.5 207.501s-112.5 59.5 -188.5 59.5c-29.333 0 -60.5 -2.16699 -93.5 -6.5s-72.5 -10.5 -118.5 -18.5l-5 59c86.667 23.333 163.667 35 231 35c94 0 171.833 -26 233.5 -78zM221.999 230.999c-20 -20 -30 -44.333 -30 -73v-89h207v89
c0 28.667 -9.83301 53 -29.5 73s-44.167 30 -73.5 30s-54 -10 -74 -30z" />
    <glyph glyph-name="uniFBAD" unicode="&#x6be;" horiz-adv-x="799" arabic-form="medial" 
d="M799 69l-0.000976562 -69.001h-799v69h115v80c0 32.667 8.16699 62.834 24.5 90.501s38.333 49.667 66 66s57.834 24.5 90.501 24.5c32 0 61.833 -7.83301 89.5 -23.5s49.667 -37.334 66 -65.001s24.5 -58.5 24.5 -92.5v-80h147v138
c0 98.667 -24.833 167.834 -74.5 207.501s-112.5 59.5 -188.5 59.5c-29.333 0 -60.5 -2.16699 -93.5 -6.5s-72.5 -10.5 -118.5 -18.5l-5 59c86.667 23.333 163.667 35 231 35c94 0 171.833 -26 233.5 -78s92.5 -137.333 92.5 -256v-140h99zM221.999 230.999
c-20 -20 -30 -44.333 -30 -73v-89h207v89c0 28.667 -9.83301 53 -29.5 73s-44.167 30 -73.5 30s-54 -10 -74 -30z" />
    <glyph glyph-name="uniFBAF" unicode="&#x6d2;" horiz-adv-x="710" arabic-form="final" 
d="M123 0c-4 -14.667 -5.99902 -31.334 -5.99902 -50.001c0 -44 15.5 -76 46.5 -96s80.5 -30 148.5 -30h310v-69h-321c-92.667 0 -159.334 15.167 -200.001 45.5s-61 79.833 -61 148.5c0 24.667 2.33301 47.834 7 69.501s9.66699 38.5 15 50.5h648v-69h-587z" />
    <glyph glyph-name="uniFBB1" unicode="&#x6d3;" horiz-adv-x="710" arabic-form="final" 
d="M123 0c-4 -14.667 -5.99902 -31.334 -5.99902 -50.001c0 -44 15.5 -76 46.5 -96s80.5 -30 148.5 -30h310v-69h-321c-92.667 0 -159.334 15.167 -200.001 45.5s-61 79.833 -61 148.5c0 24.667 2.33301 47.834 7 69.501s9.66699 38.5 15 50.5h648v-69h-587zM289.001 225
l-203.998 -40.0039l-9 32l48 13c-22.667 18.667 -34 42.334 -34 71.001c0 24.667 8.66699 45.834 26 63.501s39.666 26.5 66.999 26.5c15.333 0 29.666 -2.66699 42.999 -8s23.333 -10.666 30 -15.999l-10 -38c-4 3.33301 -10.167 6.66602 -18.5 9.99902s-17.5 5 -27.5 5
c-17.333 0 -31.5 -5.66699 -42.5 -17s-16.5 -24.666 -16.5 -39.999c0 -19.333 7.66699 -34.666 23 -45.999l114 30z" />
    <glyph glyph-name="uniFBE8" unicode="&#x649;" horiz-adv-x="306" arabic-form="initial" 
d="M226 500v-500h-226v69h149v431h77z" />
    <glyph glyph-name="uniFBE9" unicode="&#x649;" horiz-adv-x="375" arabic-form="medial" 
d="M375 69v-69h-375v69h149v431h77v-431h149z" />
    <glyph glyph-name="uniFBFD" unicode="&#x6cc;" horiz-adv-x="914" arabic-form="final" 
d="M914 0h-127.001v-13c0 -71.333 -19 -128.333 -57 -171s-92.667 -64 -164 -64h-263c-48.667 0 -93 9 -133 27s-71.667 43.167 -95 75.5s-35 69.166 -35 110.499c0 40.667 8.66699 114.334 26 221.001l73 -12c-14.667 -98 -22 -162 -22 -192
c0 -31.333 8.16699 -59.333 24.5 -84s38.333 -43.667 66 -57s57.834 -20 90.501 -20l264 -1c47.333 0 83.833 15.167 109.5 45.5s38.5 68.833 38.5 115.5c0 8.66699 -0.333008 15 -1 19h-24c-52 0 -93 9.66699 -123 29l32 57c12 -8 24.833 -12.833 38.5 -14.5
s33.5 -2.5 59.5 -2.5h222v-69z" />
    <glyph glyph-name="uniFBFE" unicode="&#x6cc;" horiz-adv-x="306" arabic-form="initial" 
d="M226 500v-500h-226v69h149v431h77zM86 -80h76v-84h-76v84zM211 -80h76v-84h-76v84z" />
    <glyph glyph-name="uniFBFF" unicode="&#x6cc;" horiz-adv-x="375" arabic-form="medial" 
d="M375 69v-69h-375v69h149v431h77v-431h149zM86 -80h76v-84h-76v84zM211 -80h76v-84h-76v84z" />
    <glyph glyph-name="uniFC64" unicode="&#xfc64;" horiz-adv-x="730" arabic-form="final" 
d="M730 69l0.000976562 -68.999h-203v431c-94 -2.66699 -176.667 -9.66699 -248 -21v-421c0 -158.667 -55 -238 -165 -238c-10.667 0 -20.5 0.333008 -29.5 1s-16.833 1.33398 -23.5 2.00098l-21 2v68c33.333 -2.66699 54.333 -4 63 -4c33.333 0 58.166 13.167 74.499 39.5
s24.5 63.166 24.5 110.499v491c32.667 9.33301 82.5 18.166 149.5 26.499s151.167 12.5 252.5 12.5v-431h126zM668.001 638.001l-203.998 -40.0039l-9 32l48 13c-22.667 18.667 -34 42.334 -34 71.001c0 24.667 8.66699 45.834 26 63.501s39.666 26.5 66.999 26.5
c15.333 0 29.666 -2.66699 42.999 -8s23.333 -10.666 30 -15.999l-10 -38c-4 3.33301 -10.167 6.66602 -18.5 9.99902s-17.5 5 -27.5 5c-17.333 0 -31.5 -5.66699 -42.5 -17s-16.5 -24.666 -16.5 -39.999c0 -19.333 7.66699 -34.666 23 -45.999l114 30z" />
    <glyph glyph-name="uniFC65" unicode="&#xfc65;" horiz-adv-x="730" arabic-form="final" 
d="M730 69l0.000976562 -68.999h-203v431c-94 -2.66699 -176.667 -9.66699 -248 -21v-421c0 -158.667 -55 -238 -165 -238c-10.667 0 -20.5 0.333008 -29.5 1s-16.833 1.33398 -23.5 2.00098l-21 2v68c33.333 -2.66699 54.333 -4 63 -4c33.333 0 58.166 13.167 74.499 39.5
s24.5 63.166 24.5 110.499v491c32.667 9.33301 82.5 18.166 149.5 26.499s151.167 12.5 252.5 12.5v-431h126zM668.001 638.001l-203.998 -40.0039l-9 32l48 13c-22.667 18.667 -34 42.334 -34 71.001c0 24.667 8.66699 45.834 26 63.501s39.666 26.5 66.999 26.5
c15.333 0 29.666 -2.66699 42.999 -8s23.333 -10.666 30 -15.999l-10 -38c-4 3.33301 -10.167 6.66602 -18.5 9.99902s-17.5 5 -27.5 5c-17.333 0 -31.5 -5.66699 -42.5 -17s-16.5 -24.666 -16.5 -39.999c0 -19.333 7.66699 -34.666 23 -45.999l114 30zM201.003 676.997h76
v-84h-76v84z" />
    <glyph glyph-name="uniFC67" unicode="&#xfc67;" horiz-adv-x="985" arabic-form="final" 
d="M343 500h-76v84h76v-84zM985 69v-68.999h-203v431c-87.333 -2.66699 -163 -8.66699 -227 -18v-453c0 -44.667 -11.5 -82.667 -34.5 -114s-53.667 -54.833 -92 -70.5s-80.166 -23.5 -125.499 -23.5c-48.667 0 -93 9 -133 27s-71.667 43 -95 75s-35 68.667 -35 110
c0 25.333 4 68 12 128s17.333 120.333 28 181l74 -4c-10 -65.333 -18.667 -126.833 -26 -184.5s-11 -96.167 -11 -115.5c0 -28.667 8.16699 -54.334 24.5 -77.001s38.5 -40.167 66.5 -52.5s59 -18.5 93 -18.5c49.333 0 91.166 12.833 125.499 38.5s51.5 62.167 51.5 109.5
v498c104.667 22 231.667 33 381 33v-431h126zM923 638.001l-203.998 -40.0039l-9 32l48 13c-22.667 18.667 -34 42.334 -34 71.001c0 24.667 8.66699 45.834 26 63.501s39.666 26.5 66.999 26.5c15.333 0 29.666 -2.66699 42.999 -8s23.333 -10.666 30 -15.999l-10 -38
c-4 3.33301 -10.167 6.66602 -18.5 9.99902s-17.5 5 -27.5 5c-17.333 0 -31.5 -5.66699 -42.5 -17s-16.5 -24.666 -16.5 -39.999c0 -19.333 7.66699 -34.666 23 -45.999l114 30z" />
    <glyph glyph-name="uniFC68" unicode="&#xfc68;" horiz-adv-x="1105" arabic-form="final" 
d="M1105 69l-0.000976562 -69.0029h-203v432h-333c-100 0 -150 -37.667 -150 -113c0 -28.667 4.83301 -50.5 14.5 -65.5s26.167 -27.167 49.5 -36.5s60.333 -19.666 111 -30.999c47.333 -10.667 85 -24.167 113 -40.5s48.333 -37.166 61 -62.499s19 -57.333 19 -96
c0 -71.333 -19 -128.333 -57 -171s-92.667 -64 -164 -64h-263c-48.667 0 -93 9 -133 27s-71.667 43.167 -95 75.5s-35 69.166 -35 110.499c0 40.667 8.66699 114.334 26 221.001l73 -12c-14.667 -98 -22 -162 -22 -192c0 -31.333 8.16699 -59.333 24.5 -84
s38.333 -43.667 66 -57s57.834 -20 90.501 -20l264 -1c47.333 0 83.833 15.167 109.5 45.5s38.5 68.833 38.5 115.5c0 26 -4.66699 47.333 -14 64s-25 30.667 -47 42s-53 21.333 -93 30c-54.667 11.333 -97.167 24.333 -127.5 39s-52.5 34.334 -66.5 59.001
s-21 57.667 -21 99c0 124 74.333 186 223 186h415v-431h126zM1043 637.997l-203.998 -40.0039l-9 32l48 13c-22.667 18.667 -34 42.334 -34 71.001c0 24.667 8.66699 45.834 26 63.501s39.666 26.5 66.999 26.5c15.333 0 29.666 -2.66699 42.999 -8
s23.333 -10.666 30 -15.999l-10 -38c-4 3.33301 -10.167 6.66602 -18.5 9.99902s-17.5 5 -27.5 5c-17.333 0 -31.5 -5.66699 -42.5 -17s-16.5 -24.666 -16.5 -39.999c0 -19.333 7.66699 -34.666 23 -45.999l114 30z" />
    <glyph glyph-name="uniFC69" unicode="&#xfc69;" horiz-adv-x="1105" arabic-form="final" 
d="M1105 69l-0.000976562 -69.0029h-203v432h-333c-100 0 -150 -37.667 -150 -113c0 -28.667 4.83301 -50.5 14.5 -65.5s26.167 -27.167 49.5 -36.5s60.333 -19.666 111 -30.999c47.333 -10.667 85 -24.167 113 -40.5s48.333 -37.166 61 -62.499s19 -57.333 19 -96
c0 -71.333 -19 -128.333 -57 -171s-92.667 -64 -164 -64h-263c-48.667 0 -93 9 -133 27s-71.667 43.167 -95 75.5s-35 69.166 -35 110.499c0 40.667 8.66699 114.334 26 221.001l73 -12c-14.667 -98 -22 -162 -22 -192c0 -31.333 8.16699 -59.333 24.5 -84
s38.333 -43.667 66 -57s57.834 -20 90.501 -20l264 -1c47.333 0 83.833 15.167 109.5 45.5s38.5 68.833 38.5 115.5c0 26 -4.66699 47.333 -14 64s-25 30.667 -47 42s-53 21.333 -93 30c-54.667 11.333 -97.167 24.333 -127.5 39s-52.5 34.334 -66.5 59.001
s-21 57.667 -21 99c0 124 74.333 186 223 186h415v-431h126zM1043 637.997l-203.998 -40.0039l-9 32l48 13c-22.667 18.667 -34 42.334 -34 71.001c0 24.667 8.66699 45.834 26 63.501s39.666 26.5 66.999 26.5c15.333 0 29.666 -2.66699 42.999 -8
s23.333 -10.666 30 -15.999l-10 -38c-4 3.33301 -10.167 6.66602 -18.5 9.99902s-17.5 5 -27.5 5c-17.333 0 -31.5 -5.66699 -42.5 -17s-16.5 -24.666 -16.5 -39.999c0 -19.333 7.66699 -34.666 23 -45.999l114 30zM312.001 -320.007h76v-84h-76v84zM437.001 -320.007h76
v-84h-76v84z" />
    <glyph glyph-name="uniFC6A" unicode="&#xfc6a;" horiz-adv-x="730" arabic-form="final" 
d="M730 69l0.000976562 -68.999h-203v431c-94 -2.66699 -176.667 -9.66699 -248 -21v-421c0 -158.667 -55 -238 -165 -238c-10.667 0 -20.5 0.333008 -29.5 1s-16.833 1.33398 -23.5 2.00098l-21 2v68c33.333 -2.66699 54.333 -4 63 -4c33.333 0 58.166 13.167 74.499 39.5
s24.5 63.166 24.5 110.499v491c32.667 9.33301 82.5 18.166 149.5 26.499s151.167 12.5 252.5 12.5v-431h126zM527.001 -79.999h76v-84h-76v84z" />
    <glyph glyph-name="uniFC6B" unicode="&#xfc6b;" horiz-adv-x="730" arabic-form="final" 
d="M730 69l0.000976562 -68.999h-203v431c-94 -2.66699 -176.667 -9.66699 -248 -21v-421c0 -158.667 -55 -238 -165 -238c-10.667 0 -20.5 0.333008 -29.5 1s-16.833 1.33398 -23.5 2.00098l-21 2v68c33.333 -2.66699 54.333 -4 63 -4c33.333 0 58.166 13.167 74.499 39.5
s24.5 63.166 24.5 110.499v491c32.667 9.33301 82.5 18.166 149.5 26.499s151.167 12.5 252.5 12.5v-431h126zM527.001 -79.999h76v-84h-76v84zM201.001 677.001h76v-84h-76v84z" />
    <glyph glyph-name="uniFC6D" unicode="&#xfc6d;" horiz-adv-x="985" arabic-form="final" 
d="M343 500h-76v84h76v-84zM985 69v-68.999h-203v431c-87.333 -2.66699 -163 -8.66699 -227 -18v-453c0 -44.667 -11.5 -82.667 -34.5 -114s-53.667 -54.833 -92 -70.5s-80.166 -23.5 -125.499 -23.5c-48.667 0 -93 9 -133 27s-71.667 43 -95 75s-35 68.667 -35 110
c0 25.333 4 68 12 128s17.333 120.333 28 181l74 -4c-10 -65.333 -18.667 -126.833 -26 -184.5s-11 -96.167 -11 -115.5c0 -28.667 8.16699 -54.334 24.5 -77.001s38.5 -40.167 66.5 -52.5s59 -18.5 93 -18.5c49.333 0 91.166 12.833 125.499 38.5s51.5 62.167 51.5 109.5
v498c104.667 22 231.667 33 381 33v-431h126zM782 -79.999h76v-84h-76v84z" />
    <glyph glyph-name="uniFC6E" unicode="&#xfc6e;" horiz-adv-x="1105" arabic-form="final" 
d="M1105 69l-0.000976562 -69.0029h-203v432h-333c-100 0 -150 -37.667 -150 -113c0 -28.667 4.83301 -50.5 14.5 -65.5s26.167 -27.167 49.5 -36.5s60.333 -19.666 111 -30.999c47.333 -10.667 85 -24.167 113 -40.5s48.333 -37.166 61 -62.499s19 -57.333 19 -96
c0 -71.333 -19 -128.333 -57 -171s-92.667 -64 -164 -64h-263c-48.667 0 -93 9 -133 27s-71.667 43.167 -95 75.5s-35 69.166 -35 110.499c0 40.667 8.66699 114.334 26 221.001l73 -12c-14.667 -98 -22 -162 -22 -192c0 -31.333 8.16699 -59.333 24.5 -84
s38.333 -43.667 66 -57s57.834 -20 90.501 -20l264 -1c47.333 0 83.833 15.167 109.5 45.5s38.5 68.833 38.5 115.5c0 26 -4.66699 47.333 -14 64s-25 30.667 -47 42s-53 21.333 -93 30c-54.667 11.333 -97.167 24.333 -127.5 39s-52.5 34.334 -66.5 59.001
s-21 57.667 -21 99c0 124 74.333 186 223 186h415v-431h126zM901.999 -80.0029h76v-84h-76v84z" />
    <glyph glyph-name="uniFC6F" unicode="&#xfc6f;" horiz-adv-x="1105" arabic-form="final" 
d="M1105 69l-0.000976562 -69.0029h-203v432h-333c-100 0 -150 -37.667 -150 -113c0 -28.667 4.83301 -50.5 14.5 -65.5s26.167 -27.167 49.5 -36.5s60.333 -19.666 111 -30.999c47.333 -10.667 85 -24.167 113 -40.5s48.333 -37.166 61 -62.499s19 -57.333 19 -96
c0 -71.333 -19 -128.333 -57 -171s-92.667 -64 -164 -64h-263c-48.667 0 -93 9 -133 27s-71.667 43.167 -95 75.5s-35 69.166 -35 110.499c0 40.667 8.66699 114.334 26 221.001l73 -12c-14.667 -98 -22 -162 -22 -192c0 -31.333 8.16699 -59.333 24.5 -84
s38.333 -43.667 66 -57s57.834 -20 90.501 -20l264 -1c47.333 0 83.833 15.167 109.5 45.5s38.5 68.833 38.5 115.5c0 26 -4.66699 47.333 -14 64s-25 30.667 -47 42s-53 21.333 -93 30c-54.667 11.333 -97.167 24.333 -127.5 39s-52.5 34.334 -66.5 59.001
s-21 57.667 -21 99c0 124 74.333 186 223 186h415v-431h126zM901.999 -80.0029h76v-84h-76v84zM311.999 -320.003h76v-84h-76v84zM436.999 -320.003h76v-84h-76v84z" />
    <glyph glyph-name="uniFC70" unicode="&#xfc70;" horiz-adv-x="730" arabic-form="final" 
d="M730 69l0.000976562 -68.999h-203v431c-94 -2.66699 -176.667 -9.66699 -248 -21v-421c0 -158.667 -55 -238 -165 -238c-10.667 0 -20.5 0.333008 -29.5 1s-16.833 1.33398 -23.5 2.00098l-21 2v68c33.333 -2.66699 54.333 -4 63 -4c33.333 0 58.166 13.167 74.499 39.5
s24.5 63.166 24.5 110.499v491c32.667 9.33301 82.5 18.166 149.5 26.499s151.167 12.5 252.5 12.5v-431h126zM465.001 677.001h76v-84h-76v84zM590.001 677.001h76v-84h-76v84z" />
    <glyph glyph-name="uniFC71" unicode="&#xfc71;" horiz-adv-x="730" arabic-form="final" 
d="M730 69l0.000976562 -68.999h-203v431c-94 -2.66699 -176.667 -9.66699 -248 -21v-421c0 -158.667 -55 -238 -165 -238c-10.667 0 -20.5 0.333008 -29.5 1s-16.833 1.33398 -23.5 2.00098l-21 2v68c33.333 -2.66699 54.333 -4 63 -4c33.333 0 58.166 13.167 74.499 39.5
s24.5 63.166 24.5 110.499v491c32.667 9.33301 82.5 18.166 149.5 26.499s151.167 12.5 252.5 12.5v-431h126zM465.001 677.001h76v-84h-76v84zM590.001 677.001h76v-84h-76v84zM201.001 677.001h76v-84h-76v84z" />
    <glyph glyph-name="uniFC73" unicode="&#xfc73;" horiz-adv-x="985" arabic-form="final" 
d="M343 500h-76v84h76v-84zM985 69v-68.999h-203v431c-87.333 -2.66699 -163 -8.66699 -227 -18v-453c0 -44.667 -11.5 -82.667 -34.5 -114s-53.667 -54.833 -92 -70.5s-80.166 -23.5 -125.499 -23.5c-48.667 0 -93 9 -133 27s-71.667 43 -95 75s-35 68.667 -35 110
c0 25.333 4 68 12 128s17.333 120.333 28 181l74 -4c-10 -65.333 -18.667 -126.833 -26 -184.5s-11 -96.167 -11 -115.5c0 -28.667 8.16699 -54.334 24.5 -77.001s38.5 -40.167 66.5 -52.5s59 -18.5 93 -18.5c49.333 0 91.166 12.833 125.499 38.5s51.5 62.167 51.5 109.5
v498c104.667 22 231.667 33 381 33v-431h126zM720 677.001h76v-84h-76v84zM845 677.001h76v-84h-76v84z" />
    <glyph glyph-name="uniFC74" unicode="&#xfc74;" horiz-adv-x="1105" arabic-form="final" 
d="M1105 69l-0.000976562 -69.0029h-203v432h-333c-100 0 -150 -37.667 -150 -113c0 -28.667 4.83301 -50.5 14.5 -65.5s26.167 -27.167 49.5 -36.5s60.333 -19.666 111 -30.999c47.333 -10.667 85 -24.167 113 -40.5s48.333 -37.166 61 -62.499s19 -57.333 19 -96
c0 -71.333 -19 -128.333 -57 -171s-92.667 -64 -164 -64h-263c-48.667 0 -93 9 -133 27s-71.667 43.167 -95 75.5s-35 69.166 -35 110.499c0 40.667 8.66699 114.334 26 221.001l73 -12c-14.667 -98 -22 -162 -22 -192c0 -31.333 8.16699 -59.333 24.5 -84
s38.333 -43.667 66 -57s57.834 -20 90.501 -20l264 -1c47.333 0 83.833 15.167 109.5 45.5s38.5 68.833 38.5 115.5c0 26 -4.66699 47.333 -14 64s-25 30.667 -47 42s-53 21.333 -93 30c-54.667 11.333 -97.167 24.333 -127.5 39s-52.5 34.334 -66.5 59.001
s-21 57.667 -21 99c0 124 74.333 186 223 186h415v-431h126zM839.999 676.997h76v-84h-76v84zM964.999 676.997h76v-84h-76v84z" />
    <glyph glyph-name="uniFC75" unicode="&#xfc75;" horiz-adv-x="1105" arabic-form="final" 
d="M1105 69l-0.000976562 -69.0029h-203v432h-333c-100 0 -150 -37.667 -150 -113c0 -28.667 4.83301 -50.5 14.5 -65.5s26.167 -27.167 49.5 -36.5s60.333 -19.666 111 -30.999c47.333 -10.667 85 -24.167 113 -40.5s48.333 -37.166 61 -62.499s19 -57.333 19 -96
c0 -71.333 -19 -128.333 -57 -171s-92.667 -64 -164 -64h-263c-48.667 0 -93 9 -133 27s-71.667 43.167 -95 75.5s-35 69.166 -35 110.499c0 40.667 8.66699 114.334 26 221.001l73 -12c-14.667 -98 -22 -162 -22 -192c0 -31.333 8.16699 -59.333 24.5 -84
s38.333 -43.667 66 -57s57.834 -20 90.501 -20l264 -1c47.333 0 83.833 15.167 109.5 45.5s38.5 68.833 38.5 115.5c0 26 -4.66699 47.333 -14 64s-25 30.667 -47 42s-53 21.333 -93 30c-54.667 11.333 -97.167 24.333 -127.5 39s-52.5 34.334 -66.5 59.001
s-21 57.667 -21 99c0 124 74.333 186 223 186h415v-431h126zM839.999 676.997h76v-84h-76v84zM964.999 676.997h76v-84h-76v84zM311.999 -320.003h76v-84h-76v84zM436.999 -320.003h76v-84h-76v84z" />
    <glyph glyph-name="uniFC76" unicode="&#xfc76;" horiz-adv-x="730" arabic-form="final" 
d="M730 69l0.000976562 -68.999h-203v431c-94 -2.66699 -176.667 -9.66699 -248 -21v-421c0 -158.667 -55 -238 -165 -238c-10.667 0 -20.5 0.333008 -29.5 1s-16.833 1.33398 -23.5 2.00098l-21 2v68c33.333 -2.66699 54.333 -4 63 -4c33.333 0 58.166 13.167 74.499 39.5
s24.5 63.166 24.5 110.499v491c32.667 9.33301 82.5 18.166 149.5 26.499s151.167 12.5 252.5 12.5v-431h126zM527.001 799.001h75v-81h-75v81zM464.001 677.001h76v-84h-76v84zM589.001 677.001h76v-84h-76v84z" />
    <glyph glyph-name="uniFC77" unicode="&#xfc77;" horiz-adv-x="730" arabic-form="final" 
d="M730 69l0.000976562 -68.999h-203v431c-94 -2.66699 -176.667 -9.66699 -248 -21v-421c0 -158.667 -55 -238 -165 -238c-10.667 0 -20.5 0.333008 -29.5 1s-16.833 1.33398 -23.5 2.00098l-21 2v68c33.333 -2.66699 54.333 -4 63 -4c33.333 0 58.166 13.167 74.499 39.5
s24.5 63.166 24.5 110.499v491c32.667 9.33301 82.5 18.166 149.5 26.499s151.167 12.5 252.5 12.5v-431h126zM527.001 799.001h75v-81h-75v81zM464.001 677.001h76v-84h-76v84zM589.001 677.001h76v-84h-76v84zM201.001 677.001h76v-84h-76v84z" />
    <glyph glyph-name="uniFC79" unicode="&#xfc79;" horiz-adv-x="985" arabic-form="final" 
d="M343 500h-76v84h76v-84zM985 69v-68.999h-203v431c-87.333 -2.66699 -163 -8.66699 -227 -18v-453c0 -44.667 -11.5 -82.667 -34.5 -114s-53.667 -54.833 -92 -70.5s-80.166 -23.5 -125.499 -23.5c-48.667 0 -93 9 -133 27s-71.667 43 -95 75s-35 68.667 -35 110
c0 25.333 4 68 12 128s17.333 120.333 28 181l74 -4c-10 -65.333 -18.667 -126.833 -26 -184.5s-11 -96.167 -11 -115.5c0 -28.667 8.16699 -54.334 24.5 -77.001s38.5 -40.167 66.5 -52.5s59 -18.5 93 -18.5c49.333 0 91.166 12.833 125.499 38.5s51.5 62.167 51.5 109.5
v498c104.667 22 231.667 33 381 33v-431h126zM782 799.001h75v-81h-75v81zM719 677.001h76v-84h-76v84zM844 677.001h76v-84h-76v84z" />
    <glyph glyph-name="uniFC7A" unicode="&#xfc7a;" horiz-adv-x="1105" arabic-form="final" 
d="M1105 69l-0.000976562 -69.0029h-203v432h-333c-100 0 -150 -37.667 -150 -113c0 -28.667 4.83301 -50.5 14.5 -65.5s26.167 -27.167 49.5 -36.5s60.333 -19.666 111 -30.999c47.333 -10.667 85 -24.167 113 -40.5s48.333 -37.166 61 -62.499s19 -57.333 19 -96
c0 -71.333 -19 -128.333 -57 -171s-92.667 -64 -164 -64h-263c-48.667 0 -93 9 -133 27s-71.667 43.167 -95 75.5s-35 69.166 -35 110.499c0 40.667 8.66699 114.334 26 221.001l73 -12c-14.667 -98 -22 -162 -22 -192c0 -31.333 8.16699 -59.333 24.5 -84
s38.333 -43.667 66 -57s57.834 -20 90.501 -20l264 -1c47.333 0 83.833 15.167 109.5 45.5s38.5 68.833 38.5 115.5c0 26 -4.66699 47.333 -14 64s-25 30.667 -47 42s-53 21.333 -93 30c-54.667 11.333 -97.167 24.333 -127.5 39s-52.5 34.334 -66.5 59.001
s-21 57.667 -21 99c0 124 74.333 186 223 186h415v-431h126zM901.999 798.997h75v-81h-75v81zM838.999 676.997h76v-84h-76v84zM963.999 676.997h76v-84h-76v84z" />
    <glyph glyph-name="uniFC7B" unicode="&#xfc7b;" horiz-adv-x="1105" arabic-form="final" 
d="M1105 69l-0.000976562 -69.0029h-203v432h-333c-100 0 -150 -37.667 -150 -113c0 -28.667 4.83301 -50.5 14.5 -65.5s26.167 -27.167 49.5 -36.5s60.333 -19.666 111 -30.999c47.333 -10.667 85 -24.167 113 -40.5s48.333 -37.166 61 -62.499s19 -57.333 19 -96
c0 -71.333 -19 -128.333 -57 -171s-92.667 -64 -164 -64h-263c-48.667 0 -93 9 -133 27s-71.667 43.167 -95 75.5s-35 69.166 -35 110.499c0 40.667 8.66699 114.334 26 221.001l73 -12c-14.667 -98 -22 -162 -22 -192c0 -31.333 8.16699 -59.333 24.5 -84
s38.333 -43.667 66 -57s57.834 -20 90.501 -20l264 -1c47.333 0 83.833 15.167 109.5 45.5s38.5 68.833 38.5 115.5c0 26 -4.66699 47.333 -14 64s-25 30.667 -47 42s-53 21.333 -93 30c-54.667 11.333 -97.167 24.333 -127.5 39s-52.5 34.334 -66.5 59.001
s-21 57.667 -21 99c0 124 74.333 186 223 186h415v-431h126zM901.999 798.997h75v-81h-75v81zM838.999 676.997h76v-84h-76v84zM963.999 676.997h76v-84h-76v84zM311.999 -320.003h76v-84h-76v84zM436.999 -320.003h76v-84h-76v84z" />
    <glyph glyph-name="uniFC8A" unicode="&#xfc8a;" horiz-adv-x="730" arabic-form="final" 
d="M730 69l0.000976562 -68.999h-203v431c-94 -2.66699 -176.667 -9.66699 -248 -21v-421c0 -158.667 -55 -238 -165 -238c-10.667 0 -20.5 0.333008 -29.5 1s-16.833 1.33398 -23.5 2.00098l-21 2v68c33.333 -2.66699 54.333 -4 63 -4c33.333 0 58.166 13.167 74.499 39.5
s24.5 63.166 24.5 110.499v491c32.667 9.33301 82.5 18.166 149.5 26.499s151.167 12.5 252.5 12.5v-431h126zM527.001 677.001h76v-84h-76v84z" />
    <glyph glyph-name="uniFC8B" unicode="&#xfc8b;" horiz-adv-x="730" arabic-form="final" 
d="M730 69l0.000976562 -68.999h-203v431c-94 -2.66699 -176.667 -9.66699 -248 -21v-421c0 -158.667 -55 -238 -165 -238c-10.667 0 -20.5 0.333008 -29.5 1s-16.833 1.33398 -23.5 2.00098l-21 2v68c33.333 -2.66699 54.333 -4 63 -4c33.333 0 58.166 13.167 74.499 39.5
s24.5 63.166 24.5 110.499v491c32.667 9.33301 82.5 18.166 149.5 26.499s151.167 12.5 252.5 12.5v-431h126zM527.001 677.001h76v-84h-76v84zM201.001 677.001h76v-84h-76v84z" />
    <glyph glyph-name="uniFC8D" unicode="&#xfc8d;" horiz-adv-x="985" arabic-form="final" 
d="M343 500h-76v84h76v-84zM985 69v-68.999h-203v431c-87.333 -2.66699 -163 -8.66699 -227 -18v-453c0 -44.667 -11.5 -82.667 -34.5 -114s-53.667 -54.833 -92 -70.5s-80.166 -23.5 -125.499 -23.5c-48.667 0 -93 9 -133 27s-71.667 43 -95 75s-35 68.667 -35 110
c0 25.333 4 68 12 128s17.333 120.333 28 181l74 -4c-10 -65.333 -18.667 -126.833 -26 -184.5s-11 -96.167 -11 -115.5c0 -28.667 8.16699 -54.334 24.5 -77.001s38.5 -40.167 66.5 -52.5s59 -18.5 93 -18.5c49.333 0 91.166 12.833 125.499 38.5s51.5 62.167 51.5 109.5
v498c104.667 22 231.667 33 381 33v-431h126zM782 677.001h76v-84h-76v84z" />
    <glyph glyph-name="uniFC8E" unicode="&#xfc8e;" horiz-adv-x="1105" arabic-form="final" 
d="M1105 69l-0.000976562 -69.0029h-203v432h-333c-100 0 -150 -37.667 -150 -113c0 -28.667 4.83301 -50.5 14.5 -65.5s26.167 -27.167 49.5 -36.5s60.333 -19.666 111 -30.999c47.333 -10.667 85 -24.167 113 -40.5s48.333 -37.166 61 -62.499s19 -57.333 19 -96
c0 -71.333 -19 -128.333 -57 -171s-92.667 -64 -164 -64h-263c-48.667 0 -93 9 -133 27s-71.667 43.167 -95 75.5s-35 69.166 -35 110.499c0 40.667 8.66699 114.334 26 221.001l73 -12c-14.667 -98 -22 -162 -22 -192c0 -31.333 8.16699 -59.333 24.5 -84
s38.333 -43.667 66 -57s57.834 -20 90.501 -20l264 -1c47.333 0 83.833 15.167 109.5 45.5s38.5 68.833 38.5 115.5c0 26 -4.66699 47.333 -14 64s-25 30.667 -47 42s-53 21.333 -93 30c-54.667 11.333 -97.167 24.333 -127.5 39s-52.5 34.334 -66.5 59.001
s-21 57.667 -21 99c0 124 74.333 186 223 186h415v-431h126zM901.999 676.997h76v-84h-76v84z" />
    <glyph glyph-name="uniFC8F" unicode="&#xfc8f;" horiz-adv-x="1105" arabic-form="final" 
d="M1105 69l-0.000976562 -69.0029h-203v432h-333c-100 0 -150 -37.667 -150 -113c0 -28.667 4.83301 -50.5 14.5 -65.5s26.167 -27.167 49.5 -36.5s60.333 -19.666 111 -30.999c47.333 -10.667 85 -24.167 113 -40.5s48.333 -37.166 61 -62.499s19 -57.333 19 -96
c0 -71.333 -19 -128.333 -57 -171s-92.667 -64 -164 -64h-263c-48.667 0 -93 9 -133 27s-71.667 43.167 -95 75.5s-35 69.166 -35 110.499c0 40.667 8.66699 114.334 26 221.001l73 -12c-14.667 -98 -22 -162 -22 -192c0 -31.333 8.16699 -59.333 24.5 -84
s38.333 -43.667 66 -57s57.834 -20 90.501 -20l264 -1c47.333 0 83.833 15.167 109.5 45.5s38.5 68.833 38.5 115.5c0 26 -4.66699 47.333 -14 64s-25 30.667 -47 42s-53 21.333 -93 30c-54.667 11.333 -97.167 24.333 -127.5 39s-52.5 34.334 -66.5 59.001
s-21 57.667 -21 99c0 124 74.333 186 223 186h415v-431h126zM901.999 676.997h76v-84h-76v84zM311.999 -320.003h76v-84h-76v84zM436.999 -320.003h76v-84h-76v84z" />
    <glyph glyph-name="uniFC91" unicode="&#xfc91;" horiz-adv-x="730" arabic-form="final" 
d="M730 69l0.000976562 -68.999h-203v431c-94 -2.66699 -176.667 -9.66699 -248 -21v-421c0 -158.667 -55 -238 -165 -238c-10.667 0 -20.5 0.333008 -29.5 1s-16.833 1.33398 -23.5 2.00098l-21 2v68c33.333 -2.66699 54.333 -4 63 -4c33.333 0 58.166 13.167 74.499 39.5
s24.5 63.166 24.5 110.499v491c32.667 9.33301 82.5 18.166 149.5 26.499s151.167 12.5 252.5 12.5v-431h126zM464.001 -79.999h76v-84h-76v84zM589.001 -79.999h76v-84h-76v84z" />
    <glyph glyph-name="uniFC92" unicode="&#xfc92;" horiz-adv-x="730" arabic-form="final" 
d="M730 69l0.000976562 -68.999h-203v431c-94 -2.66699 -176.667 -9.66699 -248 -21v-421c0 -158.667 -55 -238 -165 -238c-10.667 0 -20.5 0.333008 -29.5 1s-16.833 1.33398 -23.5 2.00098l-21 2v68c33.333 -2.66699 54.333 -4 63 -4c33.333 0 58.166 13.167 74.499 39.5
s24.5 63.166 24.5 110.499v491c32.667 9.33301 82.5 18.166 149.5 26.499s151.167 12.5 252.5 12.5v-431h126zM464.001 -79.999h76v-84h-76v84zM589.001 -79.999h76v-84h-76v84zM201.001 677.001h76v-84h-76v84z" />
    <glyph glyph-name="uniFC94" unicode="&#xfc94;" horiz-adv-x="985" arabic-form="final" 
d="M343 500h-76v84h76v-84zM985 69v-68.999h-203v431c-87.333 -2.66699 -163 -8.66699 -227 -18v-453c0 -44.667 -11.5 -82.667 -34.5 -114s-53.667 -54.833 -92 -70.5s-80.166 -23.5 -125.499 -23.5c-48.667 0 -93 9 -133 27s-71.667 43 -95 75s-35 68.667 -35 110
c0 25.333 4 68 12 128s17.333 120.333 28 181l74 -4c-10 -65.333 -18.667 -126.833 -26 -184.5s-11 -96.167 -11 -115.5c0 -28.667 8.16699 -54.334 24.5 -77.001s38.5 -40.167 66.5 -52.5s59 -18.5 93 -18.5c49.333 0 91.166 12.833 125.499 38.5s51.5 62.167 51.5 109.5
v498c104.667 22 231.667 33 381 33v-431h126zM719 -79.999h76v-84h-76v84zM844 -79.999h76v-84h-76v84z" />
    <glyph glyph-name="uniFCFB" unicode="&#xfcfb;" horiz-adv-x="1564" arabic-form="isolated" 
d="M1484.5 379c6.33301 -42.667 9.5 -76.335 9.5 -101.002v-278h-186c-40.667 0 -77.667 14 -111 42c-24 -28 -55.667 -42 -95 -42h-200v432h-333c-100 0 -150 -37.667 -150 -113c0 -28.667 4.83301 -50.5 14.5 -65.5s26.167 -27.167 49.5 -36.5s60.333 -19.666 111 -30.999
c47.333 -10.667 85 -24.167 113 -40.5s48.333 -37.166 61 -62.499s19 -57.333 19 -96c0 -71.333 -19 -128.333 -57 -171s-92.667 -64 -164 -64h-263c-48.667 0 -93 9 -133 27s-71.667 43.167 -95 75.5s-35 69.166 -35 110.499c0 40.667 8.66699 114.334 26 221.001l73 -12
c-14.667 -98 -22 -162 -22 -192c0 -31.333 8.16699 -59.333 24.5 -84s38.333 -43.667 66 -57s57.834 -20 90.501 -20l264 -1c47.333 0 83.833 15.167 109.5 45.5s38.5 68.833 38.5 115.5c0 26 -4.66699 47.333 -14 64s-25 30.667 -47 42s-53 21.333 -93 30
c-54.667 11.333 -97.167 24.333 -127.5 39s-52.5 34.334 -66.5 59.001s-21 57.667 -21 99c0 124 74.333 186 223 186h415v-431h99c30.667 0 52.834 13.167 66.501 39.5s20.5 59.5 20.5 99.5v242h77v-241c0 -40.667 -4.66699 -76 -14 -106c10 -8.66699 22.667 -16.5 38 -23.5
s30.666 -10.5 45.999 -10.5h105v217c0 25.333 -1.83301 57.166 -5.5 95.499s-7.83398 76.833 -12.501 115.5l63 3c8.66699 -38 16.167 -78.333 22.5 -121z" />
    <glyph glyph-name="uniFCFC" unicode="&#xfcfc;" horiz-adv-x="1564" arabic-form="isolated" 
d="M1484.5 379c6.33301 -42.667 9.5 -76.335 9.5 -101.002v-278h-186c-40.667 0 -77.667 14 -111 42c-24 -28 -55.667 -42 -95 -42h-200v432h-333c-100 0 -150 -37.667 -150 -113c0 -28.667 4.83301 -50.5 14.5 -65.5s26.167 -27.167 49.5 -36.5s60.333 -19.666 111 -30.999
c47.333 -10.667 85 -24.167 113 -40.5s48.333 -37.166 61 -62.499s19 -57.333 19 -96c0 -71.333 -19 -128.333 -57 -171s-92.667 -64 -164 -64h-263c-48.667 0 -93 9 -133 27s-71.667 43.167 -95 75.5s-35 69.166 -35 110.499c0 40.667 8.66699 114.334 26 221.001l73 -12
c-14.667 -98 -22 -162 -22 -192c0 -31.333 8.16699 -59.333 24.5 -84s38.333 -43.667 66 -57s57.834 -20 90.501 -20l264 -1c47.333 0 83.833 15.167 109.5 45.5s38.5 68.833 38.5 115.5c0 26 -4.66699 47.333 -14 64s-25 30.667 -47 42s-53 21.333 -93 30
c-54.667 11.333 -97.167 24.333 -127.5 39s-52.5 34.334 -66.5 59.001s-21 57.667 -21 99c0 124 74.333 186 223 186h415v-431h99c30.667 0 52.834 13.167 66.501 39.5s20.5 59.5 20.5 99.5v242h77v-241c0 -40.667 -4.66699 -76 -14 -106c10 -8.66699 22.667 -16.5 38 -23.5
s30.666 -10.5 45.999 -10.5h105v217c0 25.333 -1.83301 57.166 -5.5 95.499s-7.83398 76.833 -12.501 115.5l63 3c8.66699 -38 16.167 -78.333 22.5 -121zM312 -320.001h76v-84h-76v84zM437 -320.001h76v-84h-76v84z" />
    <glyph glyph-name="uniFCFD" unicode="&#xfcfd;" horiz-adv-x="1564" arabic-form="isolated" 
d="M1484.5 379c6.33301 -42.667 9.5 -76.335 9.5 -101.002v-278h-186c-40.667 0 -77.667 14 -111 42c-24 -28 -55.667 -42 -95 -42h-200v432h-333c-100 0 -150 -37.667 -150 -113c0 -28.667 4.83301 -50.5 14.5 -65.5s26.167 -27.167 49.5 -36.5s60.333 -19.666 111 -30.999
c47.333 -10.667 85 -24.167 113 -40.5s48.333 -37.166 61 -62.499s19 -57.333 19 -96c0 -71.333 -19 -128.333 -57 -171s-92.667 -64 -164 -64h-263c-48.667 0 -93 9 -133 27s-71.667 43.167 -95 75.5s-35 69.166 -35 110.499c0 40.667 8.66699 114.334 26 221.001l73 -12
c-14.667 -98 -22 -162 -22 -192c0 -31.333 8.16699 -59.333 24.5 -84s38.333 -43.667 66 -57s57.834 -20 90.501 -20l264 -1c47.333 0 83.833 15.167 109.5 45.5s38.5 68.833 38.5 115.5c0 26 -4.66699 47.333 -14 64s-25 30.667 -47 42s-53 21.333 -93 30
c-54.667 11.333 -97.167 24.333 -127.5 39s-52.5 34.334 -66.5 59.001s-21 57.667 -21 99c0 124 74.333 186 223 186h415v-431h99c30.667 0 52.834 13.167 66.501 39.5s20.5 59.5 20.5 99.5v242h77v-241c0 -40.667 -4.66699 -76 -14 -106c10 -8.66699 22.667 -16.5 38 -23.5
s30.666 -10.5 45.999 -10.5h105v217c0 25.333 -1.83301 57.166 -5.5 95.499s-7.83398 76.833 -12.501 115.5l63 3c8.66699 -38 16.167 -78.333 22.5 -121zM1165 798.999h75v-81h-75v81zM1102 676.999h76v-84h-76v84zM1227 676.999h76v-84h-76v84z" />
    <glyph glyph-name="uniFCFE" unicode="&#xfcfe;" horiz-adv-x="1564" arabic-form="isolated" 
d="M1484.5 379c6.33301 -42.667 9.5 -76.335 9.5 -101.002v-278h-186c-40.667 0 -77.667 14 -111 42c-24 -28 -55.667 -42 -95 -42h-200v432h-333c-100 0 -150 -37.667 -150 -113c0 -28.667 4.83301 -50.5 14.5 -65.5s26.167 -27.167 49.5 -36.5s60.333 -19.666 111 -30.999
c47.333 -10.667 85 -24.167 113 -40.5s48.333 -37.166 61 -62.499s19 -57.333 19 -96c0 -71.333 -19 -128.333 -57 -171s-92.667 -64 -164 -64h-263c-48.667 0 -93 9 -133 27s-71.667 43.167 -95 75.5s-35 69.166 -35 110.499c0 40.667 8.66699 114.334 26 221.001l73 -12
c-14.667 -98 -22 -162 -22 -192c0 -31.333 8.16699 -59.333 24.5 -84s38.333 -43.667 66 -57s57.834 -20 90.501 -20l264 -1c47.333 0 83.833 15.167 109.5 45.5s38.5 68.833 38.5 115.5c0 26 -4.66699 47.333 -14 64s-25 30.667 -47 42s-53 21.333 -93 30
c-54.667 11.333 -97.167 24.333 -127.5 39s-52.5 34.334 -66.5 59.001s-21 57.667 -21 99c0 124 74.333 186 223 186h415v-431h99c30.667 0 52.834 13.167 66.501 39.5s20.5 59.5 20.5 99.5v242h77v-241c0 -40.667 -4.66699 -76 -14 -106c10 -8.66699 22.667 -16.5 38 -23.5
s30.666 -10.5 45.999 -10.5h105v217c0 25.333 -1.83301 57.166 -5.5 95.499s-7.83398 76.833 -12.501 115.5l63 3c8.66699 -38 16.167 -78.333 22.5 -121zM1165 798.999h75v-81h-75v81zM1102 676.999h76v-84h-76v84zM1227 676.999h76v-84h-76v84zM312 -320.001h76v-84h-76
v84zM437 -320.001h76v-84h-76v84z" />
    <glyph glyph-name="uniFD05" unicode="&#xfd05;" horiz-adv-x="1564" arabic-form="isolated" 
d="M1437.5 432.5c35 -51.667 52.498 -112.169 52.498 -181.502v-251h-588v432h-333c-100 0 -150 -37.667 -150 -113c0 -28.667 4.83301 -50.5 14.5 -65.5s26.167 -27.167 49.5 -36.5s60.333 -19.666 111 -30.999c47.333 -10.667 85 -24.167 113 -40.5
s48.333 -37.166 61 -62.499s19 -57.333 19 -96c0 -71.333 -19 -128.333 -57 -171s-92.667 -64 -164 -64h-263c-48.667 0 -93 9 -133 27s-71.667 43.167 -95 75.5s-35 69.166 -35 110.499c0 40.667 8.66699 114.334 26 221.001l73 -12c-14.667 -98 -22 -162 -22 -192
c0 -31.333 8.16699 -59.333 24.5 -84s38.333 -43.667 66 -57s57.834 -20 90.501 -20l264 -1c47.333 0 83.833 15.167 109.5 45.5s38.5 68.833 38.5 115.5c0 26 -4.66699 47.333 -14 64s-25 30.667 -47 42s-53 21.333 -93 30c-54.667 11.333 -97.167 24.333 -127.5 39
s-52.5 34.334 -66.5 59.001s-21 57.667 -21 99c0 124 74.333 186 223 186h415v-160c30 37.333 57.167 67.666 81.5 90.999s52.833 42.333 85.5 57s70.334 22 113.001 22c84 0 143.5 -25.833 178.5 -77.5zM1136 406.998c-35.333 -22.667 -64 -46.832 -86 -72.499
s-45.667 -56.167 -71 -91.5v-174h434v171c0 57.333 -13.833 105.166 -41.5 143.499s-67.834 57.5 -120.501 57.5c-41.333 0 -79.666 -11.333 -114.999 -34z" />
    <glyph glyph-name="uniFD06" unicode="&#xfd06;" horiz-adv-x="1564" arabic-form="isolated" 
d="M1437.5 432.5c35 -51.667 52.498 -112.169 52.498 -181.502v-251h-588v432h-333c-100 0 -150 -37.667 -150 -113c0 -28.667 4.83301 -50.5 14.5 -65.5s26.167 -27.167 49.5 -36.5s60.333 -19.666 111 -30.999c47.333 -10.667 85 -24.167 113 -40.5
s48.333 -37.166 61 -62.499s19 -57.333 19 -96c0 -71.333 -19 -128.333 -57 -171s-92.667 -64 -164 -64h-263c-48.667 0 -93 9 -133 27s-71.667 43.167 -95 75.5s-35 69.166 -35 110.499c0 40.667 8.66699 114.334 26 221.001l73 -12c-14.667 -98 -22 -162 -22 -192
c0 -31.333 8.16699 -59.333 24.5 -84s38.333 -43.667 66 -57s57.834 -20 90.501 -20l264 -1c47.333 0 83.833 15.167 109.5 45.5s38.5 68.833 38.5 115.5c0 26 -4.66699 47.333 -14 64s-25 30.667 -47 42s-53 21.333 -93 30c-54.667 11.333 -97.167 24.333 -127.5 39
s-52.5 34.334 -66.5 59.001s-21 57.667 -21 99c0 124 74.333 186 223 186h415v-160c30 37.333 57.167 67.666 81.5 90.999s52.833 42.333 85.5 57s70.334 22 113.001 22c84 0 143.5 -25.833 178.5 -77.5zM1136 406.998c-35.333 -22.667 -64 -46.832 -86 -72.499
s-45.667 -56.167 -71 -91.5v-174h434v171c0 57.333 -13.833 105.166 -41.5 143.499s-67.834 57.5 -120.501 57.5c-41.333 0 -79.666 -11.333 -114.999 -34zM311.998 -320h76v-84h-76v84zM436.998 -320h76v-84h-76v84z" />
    <glyph glyph-name="uniFD07" unicode="&#xfd07;" horiz-adv-x="1564" arabic-form="isolated" 
d="M1437.5 432.5c35 -51.667 52.498 -112.169 52.498 -181.502v-251h-588v432h-333c-100 0 -150 -37.667 -150 -113c0 -28.667 4.83301 -50.5 14.5 -65.5s26.167 -27.167 49.5 -36.5s60.333 -19.666 111 -30.999c47.333 -10.667 85 -24.167 113 -40.5
s48.333 -37.166 61 -62.499s19 -57.333 19 -96c0 -71.333 -19 -128.333 -57 -171s-92.667 -64 -164 -64h-263c-48.667 0 -93 9 -133 27s-71.667 43.167 -95 75.5s-35 69.166 -35 110.499c0 40.667 8.66699 114.334 26 221.001l73 -12c-14.667 -98 -22 -162 -22 -192
c0 -31.333 8.16699 -59.333 24.5 -84s38.333 -43.667 66 -57s57.834 -20 90.501 -20l264 -1c47.333 0 83.833 15.167 109.5 45.5s38.5 68.833 38.5 115.5c0 26 -4.66699 47.333 -14 64s-25 30.667 -47 42s-53 21.333 -93 30c-54.667 11.333 -97.167 24.333 -127.5 39
s-52.5 34.334 -66.5 59.001s-21 57.667 -21 99c0 124 74.333 186 223 186h415v-160c30 37.333 57.167 67.666 81.5 90.999s52.833 42.333 85.5 57s70.334 22 113.001 22c84 0 143.5 -25.833 178.5 -77.5zM1136 406.998c-35.333 -22.667 -64 -46.832 -86 -72.499
s-45.667 -56.167 -71 -91.5v-174h434v171c0 57.333 -13.833 105.166 -41.5 143.499s-67.834 57.5 -120.501 57.5c-41.333 0 -79.666 -11.333 -114.999 -34zM1186 677h76v-84h-76v84z" />
    <glyph glyph-name="uniFD08" unicode="&#xfd08;" horiz-adv-x="1564" arabic-form="isolated" 
d="M1437.5 432.5c35 -51.667 52.498 -112.169 52.498 -181.502v-251h-588v432h-333c-100 0 -150 -37.667 -150 -113c0 -28.667 4.83301 -50.5 14.5 -65.5s26.167 -27.167 49.5 -36.5s60.333 -19.666 111 -30.999c47.333 -10.667 85 -24.167 113 -40.5
s48.333 -37.166 61 -62.499s19 -57.333 19 -96c0 -71.333 -19 -128.333 -57 -171s-92.667 -64 -164 -64h-263c-48.667 0 -93 9 -133 27s-71.667 43.167 -95 75.5s-35 69.166 -35 110.499c0 40.667 8.66699 114.334 26 221.001l73 -12c-14.667 -98 -22 -162 -22 -192
c0 -31.333 8.16699 -59.333 24.5 -84s38.333 -43.667 66 -57s57.834 -20 90.501 -20l264 -1c47.333 0 83.833 15.167 109.5 45.5s38.5 68.833 38.5 115.5c0 26 -4.66699 47.333 -14 64s-25 30.667 -47 42s-53 21.333 -93 30c-54.667 11.333 -97.167 24.333 -127.5 39
s-52.5 34.334 -66.5 59.001s-21 57.667 -21 99c0 124 74.333 186 223 186h415v-160c30 37.333 57.167 67.666 81.5 90.999s52.833 42.333 85.5 57s70.334 22 113.001 22c84 0 143.5 -25.833 178.5 -77.5zM1136 406.998c-35.333 -22.667 -64 -46.832 -86 -72.499
s-45.667 -56.167 -71 -91.5v-174h434v171c0 57.333 -13.833 105.166 -41.5 143.499s-67.834 57.5 -120.501 57.5c-41.333 0 -79.666 -11.333 -114.999 -34zM1186 677h76v-84h-76v84zM311.998 -320h76v-84h-76v84zM436.998 -320h76v-84h-76v84z" />
    <glyph glyph-name="uniFD0D" unicode="&#xfd0d;" horiz-adv-x="1198" arabic-form="isolated" 
d="M1118.5 379c6.33301 -42.667 9.50195 -76.3311 9.50195 -100.998v-278h-186c-40.667 0 -77.667 14 -111 42c-24 -28 -55.667 -42 -95 -42h-200v431c-100 -2.66699 -185.667 -9.66699 -257 -21v-421c0 -158.667 -55 -238 -165 -238c-10.667 0 -20.5 0.333008 -29.5 1
s-16.833 1.33398 -23.5 2.00098l-21 2v68c33.333 -2.66699 54.333 -4 63 -4c33.333 0 58.166 13.167 74.499 39.5s24.5 63.166 24.5 110.499v491c31.333 9.33301 82.333 18.166 153 26.499s156.667 12.5 258 12.5v-431h99c30.667 0 52.834 13.167 66.501 39.5
s20.5 59.5 20.5 99.5v242h77v-241c0 -40.667 -4.66699 -76 -14 -106c10 -8.66699 22.667 -16.5 38 -23.5s30.666 -10.5 45.999 -10.5h105v217c0 25.333 -1.83301 57.166 -5.5 95.499s-7.83398 76.833 -12.501 115.5l63 3c8.66699 -38 16.167 -78.333 22.5 -121z
M799.002 799.003h75v-81h-75v81zM736.002 677.003h76v-84h-76v84zM861.002 677.003h76v-84h-76v84z" />
    <glyph glyph-name="uniFD0E" unicode="&#xfd0e;" horiz-adv-x="1198" arabic-form="isolated" 
d="M1118.5 379c6.33301 -42.667 9.50195 -76.3311 9.50195 -100.998v-278h-186c-40.667 0 -77.667 14 -111 42c-24 -28 -55.667 -42 -95 -42h-200v431c-100 -2.66699 -185.667 -9.66699 -257 -21v-421c0 -158.667 -55 -238 -165 -238c-10.667 0 -20.5 0.333008 -29.5 1
s-16.833 1.33398 -23.5 2.00098l-21 2v68c33.333 -2.66699 54.333 -4 63 -4c33.333 0 58.166 13.167 74.499 39.5s24.5 63.166 24.5 110.499v491c31.333 9.33301 82.333 18.166 153 26.499s156.667 12.5 258 12.5v-431h99c30.667 0 52.834 13.167 66.501 39.5
s20.5 59.5 20.5 99.5v242h77v-241c0 -40.667 -4.66699 -76 -14 -106c10 -8.66699 22.667 -16.5 38 -23.5s30.666 -10.5 45.999 -10.5h105v217c0 25.333 -1.83301 57.166 -5.5 95.499s-7.83398 76.833 -12.501 115.5l63 3c8.66699 -38 16.167 -78.333 22.5 -121z" />
    <glyph glyph-name="uniFD0F" unicode="&#xfd0f;" horiz-adv-x="1198" arabic-form="isolated" 
d="M1071.5 432.5c35 -51.667 52.5 -112.165 52.5 -181.498v-251h-588v431c-101.333 -2.66699 -187 -9.66699 -257 -21v-421c0 -158.667 -55 -238 -165 -238c-10.667 0 -20.5 0.333008 -29.5 1s-16.833 1.33398 -23.5 2.00098l-21 2v68c33.333 -2.66699 54.333 -4 63 -4
c33.333 0 58.166 13.167 74.499 39.5s24.5 63.166 24.5 110.499v491c31.333 9.33301 82.333 18.166 153 26.499s156.667 12.5 258 12.5v-160c30 37.333 57.167 67.666 81.5 90.999s52.833 42.333 85.5 57s70.334 22 113.001 22c84 0 143.5 -25.833 178.5 -77.5zM770 407.002
c-35.333 -22.667 -64 -46.832 -86 -72.499s-45.667 -56.167 -71 -91.5v-174h434v171c0 57.333 -13.833 105.166 -41.5 143.499s-67.834 57.5 -120.501 57.5c-41.333 0 -79.666 -11.333 -114.999 -34z" />
    <glyph glyph-name="uniFD10" unicode="&#xfd10;" horiz-adv-x="1198" arabic-form="isolated" 
d="M1071.5 432.5c35 -51.667 52.5 -112.165 52.5 -181.498v-251h-588v431c-101.333 -2.66699 -187 -9.66699 -257 -21v-421c0 -158.667 -55 -238 -165 -238c-10.667 0 -20.5 0.333008 -29.5 1s-16.833 1.33398 -23.5 2.00098l-21 2v68c33.333 -2.66699 54.333 -4 63 -4
c33.333 0 58.166 13.167 74.499 39.5s24.5 63.166 24.5 110.499v491c31.333 9.33301 82.333 18.166 153 26.499s156.667 12.5 258 12.5v-160c30 37.333 57.167 67.666 81.5 90.999s52.833 42.333 85.5 57s70.334 22 113.001 22c84 0 143.5 -25.833 178.5 -77.5zM770 407.002
c-35.333 -22.667 -64 -46.832 -86 -72.499s-45.667 -56.167 -71 -91.5v-174h434v171c0 57.333 -13.833 105.166 -41.5 143.499s-67.834 57.5 -120.501 57.5c-41.333 0 -79.666 -11.333 -114.999 -34zM800 677.004h76v-84h-76v84z" />
    <glyph glyph-name="uniFD17" unicode="&#xfd17;" horiz-adv-x="1608" arabic-form="final" 
d="M1608 69v-69.001h-300c-40.667 0 -77.667 14 -111 42c-24 -28 -55.667 -42 -95 -42h-200v432h-333c-100 0 -150 -37.667 -150 -113c0 -28.667 4.83301 -50.5 14.5 -65.5s26.167 -27.167 49.5 -36.5s60.333 -19.666 111 -30.999c47.333 -10.667 85 -24.167 113 -40.5
s48.333 -37.166 61 -62.499s19 -57.333 19 -96c0 -71.333 -19 -128.333 -57 -171s-92.667 -64 -164 -64h-263c-48.667 0 -93 9 -133 27s-71.667 43.167 -95 75.5s-35 69.166 -35 110.499c0 40.667 8.66699 114.334 26 221.001l73 -12c-14.667 -98 -22 -162 -22 -192
c0 -31.333 8.16699 -59.333 24.5 -84s38.333 -43.667 66 -57s57.834 -20 90.501 -20l264 -1c47.333 0 83.833 15.167 109.5 45.5s38.5 68.833 38.5 115.5c0 26 -4.66699 47.333 -14 64s-25 30.667 -47 42s-53 21.333 -93 30c-54.667 11.333 -97.167 24.333 -127.5 39
s-52.5 34.334 -66.5 59.001s-21 57.667 -21 99c0 124 74.333 186 223 186h415v-431h99c30.667 0 52.834 13.167 66.501 39.5s20.5 59.5 20.5 99.5v242h77v-241c0 -40.667 -4.66699 -76 -14 -106c10 -8.66699 22.667 -16.5 38 -23.5s30.666 -10.5 45.999 -10.5h105v217
c0 25.333 -1.83301 57.166 -5.5 95.499s-7.83398 76.833 -12.501 115.5l63 3c8.66699 -38 16.167 -78.333 22.5 -121s9.5 -76.334 9.5 -101.001v-209h114z" />
    <glyph glyph-name="uniFD18" unicode="&#xfd18;" horiz-adv-x="1608" arabic-form="final" 
d="M1608 69v-69.001h-300c-40.667 0 -77.667 14 -111 42c-24 -28 -55.667 -42 -95 -42h-200v432h-333c-100 0 -150 -37.667 -150 -113c0 -28.667 4.83301 -50.5 14.5 -65.5s26.167 -27.167 49.5 -36.5s60.333 -19.666 111 -30.999c47.333 -10.667 85 -24.167 113 -40.5
s48.333 -37.166 61 -62.499s19 -57.333 19 -96c0 -71.333 -19 -128.333 -57 -171s-92.667 -64 -164 -64h-263c-48.667 0 -93 9 -133 27s-71.667 43.167 -95 75.5s-35 69.166 -35 110.499c0 40.667 8.66699 114.334 26 221.001l73 -12c-14.667 -98 -22 -162 -22 -192
c0 -31.333 8.16699 -59.333 24.5 -84s38.333 -43.667 66 -57s57.834 -20 90.501 -20l264 -1c47.333 0 83.833 15.167 109.5 45.5s38.5 68.833 38.5 115.5c0 26 -4.66699 47.333 -14 64s-25 30.667 -47 42s-53 21.333 -93 30c-54.667 11.333 -97.167 24.333 -127.5 39
s-52.5 34.334 -66.5 59.001s-21 57.667 -21 99c0 124 74.333 186 223 186h415v-431h99c30.667 0 52.834 13.167 66.501 39.5s20.5 59.5 20.5 99.5v242h77v-241c0 -40.667 -4.66699 -76 -14 -106c10 -8.66699 22.667 -16.5 38 -23.5s30.666 -10.5 45.999 -10.5h105v217
c0 25.333 -1.83301 57.166 -5.5 95.499s-7.83398 76.833 -12.501 115.5l63 3c8.66699 -38 16.167 -78.333 22.5 -121s9.5 -76.334 9.5 -101.001v-209h114zM312 -320.001h76v-84h-76v84zM437 -320.001h76v-84h-76v84z" />
    <glyph glyph-name="uniFD19" unicode="&#xfd19;" horiz-adv-x="1608" arabic-form="final" 
d="M1608 69v-69.001h-300c-40.667 0 -77.667 14 -111 42c-24 -28 -55.667 -42 -95 -42h-200v432h-333c-100 0 -150 -37.667 -150 -113c0 -28.667 4.83301 -50.5 14.5 -65.5s26.167 -27.167 49.5 -36.5s60.333 -19.666 111 -30.999c47.333 -10.667 85 -24.167 113 -40.5
s48.333 -37.166 61 -62.499s19 -57.333 19 -96c0 -71.333 -19 -128.333 -57 -171s-92.667 -64 -164 -64h-263c-48.667 0 -93 9 -133 27s-71.667 43.167 -95 75.5s-35 69.166 -35 110.499c0 40.667 8.66699 114.334 26 221.001l73 -12c-14.667 -98 -22 -162 -22 -192
c0 -31.333 8.16699 -59.333 24.5 -84s38.333 -43.667 66 -57s57.834 -20 90.501 -20l264 -1c47.333 0 83.833 15.167 109.5 45.5s38.5 68.833 38.5 115.5c0 26 -4.66699 47.333 -14 64s-25 30.667 -47 42s-53 21.333 -93 30c-54.667 11.333 -97.167 24.333 -127.5 39
s-52.5 34.334 -66.5 59.001s-21 57.667 -21 99c0 124 74.333 186 223 186h415v-431h99c30.667 0 52.834 13.167 66.501 39.5s20.5 59.5 20.5 99.5v242h77v-241c0 -40.667 -4.66699 -76 -14 -106c10 -8.66699 22.667 -16.5 38 -23.5s30.666 -10.5 45.999 -10.5h105v217
c0 25.333 -1.83301 57.166 -5.5 95.499s-7.83398 76.833 -12.501 115.5l63 3c8.66699 -38 16.167 -78.333 22.5 -121s9.5 -76.334 9.5 -101.001v-209h114zM1165 818.999h75v-81h-75v81zM1102 696.999h76v-84h-76v84zM1227 696.999h76v-84h-76v84z" />
    <glyph glyph-name="uniFD1A" unicode="&#xfd1a;" horiz-adv-x="1608" arabic-form="final" 
d="M1608 69v-69.001h-300c-40.667 0 -77.667 14 -111 42c-24 -28 -55.667 -42 -95 -42h-200v432h-333c-100 0 -150 -37.667 -150 -113c0 -28.667 4.83301 -50.5 14.5 -65.5s26.167 -27.167 49.5 -36.5s60.333 -19.666 111 -30.999c47.333 -10.667 85 -24.167 113 -40.5
s48.333 -37.166 61 -62.499s19 -57.333 19 -96c0 -71.333 -19 -128.333 -57 -171s-92.667 -64 -164 -64h-263c-48.667 0 -93 9 -133 27s-71.667 43.167 -95 75.5s-35 69.166 -35 110.499c0 40.667 8.66699 114.334 26 221.001l73 -12c-14.667 -98 -22 -162 -22 -192
c0 -31.333 8.16699 -59.333 24.5 -84s38.333 -43.667 66 -57s57.834 -20 90.501 -20l264 -1c47.333 0 83.833 15.167 109.5 45.5s38.5 68.833 38.5 115.5c0 26 -4.66699 47.333 -14 64s-25 30.667 -47 42s-53 21.333 -93 30c-54.667 11.333 -97.167 24.333 -127.5 39
s-52.5 34.334 -66.5 59.001s-21 57.667 -21 99c0 124 74.333 186 223 186h415v-431h99c30.667 0 52.834 13.167 66.501 39.5s20.5 59.5 20.5 99.5v242h77v-241c0 -40.667 -4.66699 -76 -14 -106c10 -8.66699 22.667 -16.5 38 -23.5s30.666 -10.5 45.999 -10.5h105v217
c0 25.333 -1.83301 57.166 -5.5 95.499s-7.83398 76.833 -12.501 115.5l63 3c8.66699 -38 16.167 -78.333 22.5 -121s9.5 -76.334 9.5 -101.001v-209h114zM1165 818.999h75v-81h-75v81zM1102 696.999h76v-84h-76v84zM1227 696.999h76v-84h-76v84zM312 -320.001h76v-84h-76
v84zM437 -320.001h76v-84h-76v84z" />
    <glyph glyph-name="uniFD21" unicode="&#xfd21;" horiz-adv-x="1609" arabic-form="final" 
d="M1609 69l-0.00195312 -69.002h-707v432h-333c-100 0 -150 -37.667 -150 -113c0 -28.667 4.83301 -50.5 14.5 -65.5s26.167 -27.167 49.5 -36.5s60.333 -19.666 111 -30.999c47.333 -10.667 85 -24.167 113 -40.5s48.333 -37.166 61 -62.499s19 -57.333 19 -96
c0 -71.333 -19 -128.333 -57 -171s-92.667 -64 -164 -64h-263c-48.667 0 -93 9 -133 27s-71.667 43.167 -95 75.5s-35 69.166 -35 110.499c0 40.667 8.66699 114.334 26 221.001l73 -12c-14.667 -98 -22 -162 -22 -192c0 -31.333 8.16699 -59.333 24.5 -84
s38.333 -43.667 66 -57s57.834 -20 90.501 -20l264 -1c47.333 0 83.833 15.167 109.5 45.5s38.5 68.833 38.5 115.5c0 26 -4.66699 47.333 -14 64s-25 30.667 -47 42s-53 21.333 -93 30c-54.667 11.333 -97.167 24.333 -127.5 39s-52.5 34.334 -66.5 59.001
s-21 57.667 -21 99c0 124 74.333 186 223 186h415v-160c30 37.333 57.167 67.666 81.5 90.999s52.833 42.333 85.5 57s70.334 22 113.001 22c84 0 143.5 -25.833 178.5 -77.5s52.5 -112.167 52.5 -181.5v-182h119zM1136 406.998c-35.333 -22.667 -64 -46.832 -86 -72.499
s-45.667 -56.167 -71 -91.5v-174h434v171c0 57.333 -13.833 105.166 -41.5 143.499s-67.834 57.5 -120.501 57.5c-41.333 0 -79.666 -11.333 -114.999 -34z" />
    <glyph glyph-name="uniFD22" unicode="&#xfd22;" horiz-adv-x="1609" arabic-form="final" 
d="M1609 69l-0.00195312 -69.002h-707v432h-333c-100 0 -150 -37.667 -150 -113c0 -28.667 4.83301 -50.5 14.5 -65.5s26.167 -27.167 49.5 -36.5s60.333 -19.666 111 -30.999c47.333 -10.667 85 -24.167 113 -40.5s48.333 -37.166 61 -62.499s19 -57.333 19 -96
c0 -71.333 -19 -128.333 -57 -171s-92.667 -64 -164 -64h-263c-48.667 0 -93 9 -133 27s-71.667 43.167 -95 75.5s-35 69.166 -35 110.499c0 40.667 8.66699 114.334 26 221.001l73 -12c-14.667 -98 -22 -162 -22 -192c0 -31.333 8.16699 -59.333 24.5 -84
s38.333 -43.667 66 -57s57.834 -20 90.501 -20l264 -1c47.333 0 83.833 15.167 109.5 45.5s38.5 68.833 38.5 115.5c0 26 -4.66699 47.333 -14 64s-25 30.667 -47 42s-53 21.333 -93 30c-54.667 11.333 -97.167 24.333 -127.5 39s-52.5 34.334 -66.5 59.001
s-21 57.667 -21 99c0 124 74.333 186 223 186h415v-160c30 37.333 57.167 67.666 81.5 90.999s52.833 42.333 85.5 57s70.334 22 113.001 22c84 0 143.5 -25.833 178.5 -77.5s52.5 -112.167 52.5 -181.5v-182h119zM1136 406.998c-35.333 -22.667 -64 -46.832 -86 -72.499
s-45.667 -56.167 -71 -91.5v-174h434v171c0 57.333 -13.833 105.166 -41.5 143.499s-67.834 57.5 -120.501 57.5c-41.333 0 -79.666 -11.333 -114.999 -34zM311.998 -320h76v-84h-76v84zM436.998 -320h76v-84h-76v84z" />
    <glyph glyph-name="uniFD23" unicode="&#xfd23;" horiz-adv-x="1609" arabic-form="final" 
d="M1609 69l-0.00195312 -69.002h-707v432h-333c-100 0 -150 -37.667 -150 -113c0 -28.667 4.83301 -50.5 14.5 -65.5s26.167 -27.167 49.5 -36.5s60.333 -19.666 111 -30.999c47.333 -10.667 85 -24.167 113 -40.5s48.333 -37.166 61 -62.499s19 -57.333 19 -96
c0 -71.333 -19 -128.333 -57 -171s-92.667 -64 -164 -64h-263c-48.667 0 -93 9 -133 27s-71.667 43.167 -95 75.5s-35 69.166 -35 110.499c0 40.667 8.66699 114.334 26 221.001l73 -12c-14.667 -98 -22 -162 -22 -192c0 -31.333 8.16699 -59.333 24.5 -84
s38.333 -43.667 66 -57s57.834 -20 90.501 -20l264 -1c47.333 0 83.833 15.167 109.5 45.5s38.5 68.833 38.5 115.5c0 26 -4.66699 47.333 -14 64s-25 30.667 -47 42s-53 21.333 -93 30c-54.667 11.333 -97.167 24.333 -127.5 39s-52.5 34.334 -66.5 59.001
s-21 57.667 -21 99c0 124 74.333 186 223 186h415v-160c30 37.333 57.167 67.666 81.5 90.999s52.833 42.333 85.5 57s70.334 22 113.001 22c84 0 143.5 -25.833 178.5 -77.5s52.5 -112.167 52.5 -181.5v-182h119zM1136 406.998c-35.333 -22.667 -64 -46.832 -86 -72.499
s-45.667 -56.167 -71 -91.5v-174h434v171c0 57.333 -13.833 105.166 -41.5 143.499s-67.834 57.5 -120.501 57.5c-41.333 0 -79.666 -11.333 -114.999 -34zM1186 677h76v-84h-76v84z" />
    <glyph glyph-name="uniFD24" unicode="&#xfd24;" horiz-adv-x="1609" arabic-form="final" 
d="M1609 69l-0.00195312 -69.002h-707v432h-333c-100 0 -150 -37.667 -150 -113c0 -28.667 4.83301 -50.5 14.5 -65.5s26.167 -27.167 49.5 -36.5s60.333 -19.666 111 -30.999c47.333 -10.667 85 -24.167 113 -40.5s48.333 -37.166 61 -62.499s19 -57.333 19 -96
c0 -71.333 -19 -128.333 -57 -171s-92.667 -64 -164 -64h-263c-48.667 0 -93 9 -133 27s-71.667 43.167 -95 75.5s-35 69.166 -35 110.499c0 40.667 8.66699 114.334 26 221.001l73 -12c-14.667 -98 -22 -162 -22 -192c0 -31.333 8.16699 -59.333 24.5 -84
s38.333 -43.667 66 -57s57.834 -20 90.501 -20l264 -1c47.333 0 83.833 15.167 109.5 45.5s38.5 68.833 38.5 115.5c0 26 -4.66699 47.333 -14 64s-25 30.667 -47 42s-53 21.333 -93 30c-54.667 11.333 -97.167 24.333 -127.5 39s-52.5 34.334 -66.5 59.001
s-21 57.667 -21 99c0 124 74.333 186 223 186h415v-160c30 37.333 57.167 67.666 81.5 90.999s52.833 42.333 85.5 57s70.334 22 113.001 22c84 0 143.5 -25.833 178.5 -77.5s52.5 -112.167 52.5 -181.5v-182h119zM1136 406.998c-35.333 -22.667 -64 -46.832 -86 -72.499
s-45.667 -56.167 -71 -91.5v-174h434v171c0 57.333 -13.833 105.166 -41.5 143.499s-67.834 57.5 -120.501 57.5c-41.333 0 -79.666 -11.333 -114.999 -34zM1186 677h76v-84h-76v84zM311.998 -320h76v-84h-76v84zM436.998 -320h76v-84h-76v84z" />
    <glyph glyph-name="uniFD29" unicode="&#xfd29;" horiz-adv-x="1230" arabic-form="final" 
d="M1230 69l0.00195312 -68.9971h-288c-40.667 0 -77.667 14 -111 42c-24 -28 -55.667 -42 -95 -42h-200v431c-100 -2.66699 -185.667 -9.66699 -257 -21v-421c0 -158.667 -55 -238 -165 -238c-10.667 0 -20.5 0.333008 -29.5 1s-16.833 1.33398 -23.5 2.00098l-21 2v68
c33.333 -2.66699 54.333 -4 63 -4c33.333 0 58.166 13.167 74.499 39.5s24.5 63.166 24.5 110.499v491c31.333 9.33301 82.333 18.166 153 26.499s156.667 12.5 258 12.5v-431h99c30.667 0 52.834 13.167 66.501 39.5s20.5 59.5 20.5 99.5v242h77v-241
c0 -40.667 -4.66699 -76 -14 -106c10 -8.66699 22.667 -16.5 38 -23.5s30.666 -10.5 45.999 -10.5h105v217c0 25.333 -1.83301 57.166 -5.5 95.499s-7.83398 76.833 -12.501 115.5l63 3c8.66699 -38 16.167 -78.333 22.5 -121s9.5 -76.334 9.5 -101.001v-209h102z
M787.002 799.003h75v-81h-75v81zM724.002 677.003h76v-84h-76v84zM849.002 677.003h76v-84h-76v84z" />
    <glyph glyph-name="uniFD2A" unicode="&#xfd2a;" horiz-adv-x="1230" arabic-form="final" 
d="M1230 69l0.00195312 -68.9971h-288c-40.667 0 -77.667 14 -111 42c-24 -28 -55.667 -42 -95 -42h-200v431c-100 -2.66699 -185.667 -9.66699 -257 -21v-421c0 -158.667 -55 -238 -165 -238c-10.667 0 -20.5 0.333008 -29.5 1s-16.833 1.33398 -23.5 2.00098l-21 2v68
c33.333 -2.66699 54.333 -4 63 -4c33.333 0 58.166 13.167 74.499 39.5s24.5 63.166 24.5 110.499v491c31.333 9.33301 82.333 18.166 153 26.499s156.667 12.5 258 12.5v-431h99c30.667 0 52.834 13.167 66.501 39.5s20.5 59.5 20.5 99.5v242h77v-241
c0 -40.667 -4.66699 -76 -14 -106c10 -8.66699 22.667 -16.5 38 -23.5s30.666 -10.5 45.999 -10.5h105v217c0 25.333 -1.83301 57.166 -5.5 95.499s-7.83398 76.833 -12.501 115.5l63 3c8.66699 -38 16.167 -78.333 22.5 -121s9.5 -76.334 9.5 -101.001v-209h102z" />
    <glyph glyph-name="uniFD2B" unicode="&#xfd2b;" horiz-adv-x="1212" arabic-form="final" 
d="M1212 69v-68.998h-676v431c-101.333 -2.66699 -187 -9.66699 -257 -21v-421c0 -158.667 -55 -238 -165 -238c-10.667 0 -20.5 0.333008 -29.5 1s-16.833 1.33398 -23.5 2.00098l-21 2v68c33.333 -2.66699 54.333 -4 63 -4c33.333 0 58.166 13.167 74.499 39.5
s24.5 63.166 24.5 110.499v491c31.333 9.33301 82.333 18.166 153 26.499s156.667 12.5 258 12.5v-160c30 37.333 57.167 67.666 81.5 90.999s52.833 42.333 85.5 57s70.334 22 113.001 22c84 0 143.5 -25.833 178.5 -77.5s52.5 -112.167 52.5 -181.5v-182h88zM770 407.002
c-35.333 -22.667 -64 -46.832 -86 -72.499s-45.667 -56.167 -71 -91.5v-174h434v171c0 57.333 -13.833 105.166 -41.5 143.499s-67.834 57.5 -120.501 57.5c-41.333 0 -79.666 -11.333 -114.999 -34z" />
    <glyph glyph-name="uniFD2C" unicode="&#xfd2c;" horiz-adv-x="1212" arabic-form="final" 
d="M1212 69v-68.998h-676v431c-101.333 -2.66699 -187 -9.66699 -257 -21v-421c0 -158.667 -55 -238 -165 -238c-10.667 0 -20.5 0.333008 -29.5 1s-16.833 1.33398 -23.5 2.00098l-21 2v68c33.333 -2.66699 54.333 -4 63 -4c33.333 0 58.166 13.167 74.499 39.5
s24.5 63.166 24.5 110.499v491c31.333 9.33301 82.333 18.166 153 26.499s156.667 12.5 258 12.5v-160c30 37.333 57.167 67.666 81.5 90.999s52.833 42.333 85.5 57s70.334 22 113.001 22c84 0 143.5 -25.833 178.5 -77.5s52.5 -112.167 52.5 -181.5v-182h88zM770 407.002
c-35.333 -22.667 -64 -46.832 -86 -72.499s-45.667 -56.167 -71 -91.5v-174h434v171c0 57.333 -13.833 105.166 -41.5 143.499s-67.834 57.5 -120.501 57.5c-41.333 0 -79.666 -11.333 -114.999 -34zM800 677.004h76v-84h-76v84z" />
    <glyph glyph-name="uniFE82" unicode="&#x622;" horiz-adv-x="261" arabic-form="final" 
d="M261 69v-69h-171v632h77v-563h94zM126 714l-37.501 15.501c-11 4.33301 -18.833 6.5 -23.5 6.5c-11.333 0 -27.666 -9.66699 -48.999 -29l-11 -9l-13 45c11.333 12.667 23.833 23.5 37.5 32.5s26.5 13.5 38.5 13.5c7.33301 0 16 -1.66699 26 -5s24 -9 42 -17
c32.667 -14 51.667 -21 57 -21c4.66699 0 11.667 2.83301 21 8.5s18 12.167 26 19.5l10 9l14 -45c-12 -14.667 -24 -25.834 -36 -33.501s-23 -11.5 -33 -11.5c-13.333 0 -36.333 7 -69 21z" />
    <glyph glyph-name="uniFE84" unicode="&#x623;" horiz-adv-x="261" arabic-form="final" 
d="M261 69v-69h-171v632h77v-563h94zM231 709l-203.998 -40.0039l-9 32l48 13c-22.667 18.667 -34 42.334 -34 71.001c0 24.667 8.66699 45.834 26 63.501s39.666 26.5 66.999 26.5c15.333 0 29.666 -2.66699 42.999 -8s23.333 -10.666 30 -15.999l-10 -38
c-4 3.33301 -10.167 6.66602 -18.5 9.99902s-17.5 5 -27.5 5c-17.333 0 -31.5 -5.66699 -42.5 -17s-16.5 -24.666 -16.5 -39.999c0 -19.333 7.66699 -34.666 23 -45.999l114 30z" />
    <glyph glyph-name="uniFE86" unicode="&#x624;" horiz-adv-x="567" arabic-form="final" 
d="M567 0h-125c-4 -84 -19.5 -146.333 -46.5 -187s-69.5 -61 -127.5 -61c-30.667 0 -81 5 -151 15v68c62 -9.33301 110.667 -14 146 -14c23.333 0 42.166 4.16699 56.499 12.5s25.833 25.5 34.5 51.5s13 64.333 13 115h-147c-72.667 0 -120.834 23 -144.501 69
s-35.5 105.667 -35.5 179c0 62 6 112.5 18 151.5s33.667 68.667 65 89s75 30.5 131 30.5c26.667 0 58.834 -2 96.501 -6s68.834 -8.33301 93.501 -13v-431h123v-69zM143 119.5c17.333 -33.667 52.668 -50.5 106.001 -50.5h118v374c-36 4.66699 -67.333 7 -94 7
c-40.667 0 -72.334 -7.5 -95.001 -22.5s-38.5 -37 -47.5 -66s-13.5 -66.167 -13.5 -111.5c0 -53.333 8.66699 -96.833 26 -130.5zM372.002 638l-203.998 -40.0039l-9 32l48 13c-22.667 18.667 -34 42.334 -34 71.001c0 24.667 8.66699 45.834 26 63.501
s39.666 26.5 66.999 26.5c15.333 0 29.666 -2.66699 42.999 -8s23.333 -10.666 30 -15.999l-10 -38c-4 3.33301 -10.167 6.66602 -18.5 9.99902s-17.5 5 -27.5 5c-17.333 0 -31.5 -5.66699 -42.5 -17s-16.5 -24.666 -16.5 -39.999c0 -19.333 7.66699 -34.666 23 -45.999
l114 30z" />
    <glyph glyph-name="uniFE88" unicode="&#x625;" horiz-adv-x="261" arabic-form="final" 
d="M261 69v-69h-171v718h77v-649h94zM245 -223l-203.998 -40.0039l-9 32l48 13c-22.667 18.667 -34 42.334 -34 71.001c0 24.667 8.66699 45.834 26 63.501s39.666 26.5 66.999 26.5c15.333 0 29.666 -2.66699 42.999 -8s23.333 -10.666 30 -15.999l-10 -38
c-4 3.33301 -10.167 6.66602 -18.5 9.99902s-17.5 5 -27.5 5c-17.333 0 -31.5 -5.66699 -42.5 -17s-16.5 -24.666 -16.5 -39.999c0 -19.333 7.66699 -34.666 23 -45.999l114 30z" />
    <glyph glyph-name="uniFE8A" unicode="&#x626;" horiz-adv-x="914" arabic-form="final" 
d="M914 0h-127.001v-13c0 -71.333 -19 -128.333 -57 -171s-92.667 -64 -164 -64h-263c-48.667 0 -93 9 -133 27s-71.667 43.167 -95 75.5s-35 69.166 -35 110.499c0 40.667 8.66699 114.334 26 221.001l73 -12c-14.667 -98 -22 -162 -22 -192
c0 -31.333 8.16699 -59.333 24.5 -84s38.333 -43.667 66 -57s57.834 -20 90.501 -20l264 -1c47.333 0 83.833 15.167 109.5 45.5s38.5 68.833 38.5 115.5c0 8.66699 -0.333008 15 -1 19h-24c-52 0 -93 9.66699 -123 29l32 57c12 -8 24.833 -12.833 38.5 -14.5
s33.5 -2.5 59.5 -2.5h222v-69zM260.999 306l-203.998 -40.0039l-9 32l48 13c-22.667 18.667 -34 42.334 -34 71.001c0 24.667 8.66699 45.834 26 63.501s39.666 26.5 66.999 26.5c15.333 0 29.666 -2.66699 42.999 -8s23.333 -10.666 30 -15.999l-10 -38
c-4 3.33301 -10.167 6.66602 -18.5 9.99902s-17.5 5 -27.5 5c-17.333 0 -31.5 -5.66699 -42.5 -17s-16.5 -24.666 -16.5 -39.999c0 -19.333 7.66699 -34.666 23 -45.999l114 30z" />
    <glyph glyph-name="uniFE8B" unicode="&#x626;" horiz-adv-x="306" arabic-form="initial" 
d="M226 500v-500h-226v69h149v431h77zM290 638l-203.998 -40.0039l-9 32l48 13c-22.667 18.667 -34 42.334 -34 71.001c0 24.667 8.66699 45.834 26 63.501s39.666 26.5 66.999 26.5c15.333 0 29.666 -2.66699 42.999 -8s23.333 -10.666 30 -15.999l-10 -38
c-4 3.33301 -10.167 6.66602 -18.5 9.99902s-17.5 5 -27.5 5c-17.333 0 -31.5 -5.66699 -42.5 -17s-16.5 -24.666 -16.5 -39.999c0 -19.333 7.66699 -34.666 23 -45.999l114 30z" />
    <glyph glyph-name="uniFE8C" unicode="&#x626;" horiz-adv-x="375" arabic-form="medial" 
d="M375 69v-69h-375v69h149v431h77v-431h149zM290 638l-203.998 -40.0039l-9 32l48 13c-22.667 18.667 -34 42.334 -34 71.001c0 24.667 8.66699 45.834 26 63.501s39.666 26.5 66.999 26.5c15.333 0 29.666 -2.66699 42.999 -8s23.333 -10.666 30 -15.999l-10 -38
c-4 3.33301 -10.167 6.66602 -18.5 9.99902s-17.5 5 -27.5 5c-17.333 0 -31.5 -5.66699 -42.5 -17s-16.5 -24.666 -16.5 -39.999c0 -19.333 7.66699 -34.666 23 -45.999l114 30z" />
    <glyph glyph-name="uniFE8E" unicode="&#x627;" horiz-adv-x="261" arabic-form="final" 
d="M261 69v-69h-171v718h77v-649h94z" />
    <glyph glyph-name="uniFE90" unicode="&#x628;" horiz-adv-x="831" arabic-form="final" 
d="M831 69l0.000976562 -69.001h-518c-64 0 -114.667 5.33301 -152 16s-64.5 27.667 -81.5 51s-25.5 55.333 -25.5 96c0 50.667 10.333 126.334 31 227.001l60 -3l-10 -80c-0.666992 -7.33301 -2.83398 -25.833 -6.50098 -55.5s-5.5 -53.167 -5.5 -70.5
c0 -28.667 5.83301 -51 17.5 -67s31 -27.5 58 -34.5s64.833 -10.5 113.5 -10.5h296v431h77v-431h146zM351.001 -80.001h76v-84h-76v84z" />
    <glyph glyph-name="uniFE91" unicode="&#x628;" horiz-adv-x="306" arabic-form="initial" 
d="M226 500v-500h-226v69h149v431h77zM149 -80h76v-84h-76v84z" />
    <glyph glyph-name="uniFE92" unicode="&#x628;" horiz-adv-x="375" arabic-form="medial" 
d="M375 69v-69h-375v69h149v431h77v-431h149zM149 -80h76v-84h-76v84z" />
    <glyph glyph-name="uniFE94" unicode="&#x629;" horiz-adv-x="609" arabic-form="final" 
d="M609 69v-68.999h-333c-59.333 0 -106 8.33301 -140 25s-58.5 43.167 -73.5 79.5s-22.5 85.833 -22.5 148.5c0 62 7.16699 111.667 21.5 149s38 64.666 71 81.999s77.5 26 133.5 26c24.667 0 62.5 -1.16699 113.5 -3.5s89.5 -4.83301 115.5 -7.5v-430h114zM133.5 146.001
c11 -26.667 28.834 -46.167 53.501 -58.5s58.667 -18.5 102 -18.5h129v365c-58.667 4 -104 6 -136 6c-60.667 0 -103.334 -14.333 -128.001 -43s-37 -76 -37 -142c0 -46 5.5 -82.333 16.5 -109zM195.001 677.001h76v-84h-76v84zM320.001 677.001h76v-84h-76v84z" />
    <glyph glyph-name="uniFE96" unicode="&#x62a;" horiz-adv-x="831" arabic-form="final" 
d="M831 69l0.000976562 -69.001h-518c-64 0 -114.667 5.33301 -152 16s-64.5 27.667 -81.5 51s-25.5 55.333 -25.5 96c0 50.667 10.333 126.334 31 227.001l60 -3l-10 -80c-0.666992 -7.33301 -2.83398 -25.833 -6.50098 -55.5s-5.5 -53.167 -5.5 -70.5
c0 -28.667 5.83301 -51 17.5 -67s31 -27.5 58 -34.5s64.833 -10.5 113.5 -10.5h296v431h77v-431h146zM289.001 583.999h76v-84h-76v84zM414.001 583.999h76v-84h-76v84z" />
    <glyph glyph-name="uniFE97" unicode="&#x62a;" horiz-adv-x="306" arabic-form="initial" 
d="M226 500v-500h-226v69h149v431h77zM87 677h76v-84h-76v84zM212 677h76v-84h-76v84z" />
    <glyph glyph-name="uniFE98" unicode="&#x62a;" horiz-adv-x="375" arabic-form="medial" 
d="M375 69v-69h-375v69h149v431h77v-431h149zM87 677h76v-84h-76v84zM212 677h76v-84h-76v84z" />
    <glyph glyph-name="uniFE9A" unicode="&#x62b;" horiz-adv-x="831" arabic-form="final" 
d="M831 69l0.000976562 -69.001h-518c-64 0 -114.667 5.33301 -152 16s-64.5 27.667 -81.5 51s-25.5 55.333 -25.5 96c0 50.667 10.333 126.334 31 227.001l60 -3l-10 -80c-0.666992 -7.33301 -2.83398 -25.833 -6.50098 -55.5s-5.5 -53.167 -5.5 -70.5
c0 -28.667 5.83301 -51 17.5 -67s31 -27.5 58 -34.5s64.833 -10.5 113.5 -10.5h296v431h77v-431h146zM351.001 705.999h75v-81h-75v81zM288.001 583.999h76v-84h-76v84zM413.001 583.999h76v-84h-76v84z" />
    <glyph glyph-name="uniFE9B" unicode="&#x62b;" horiz-adv-x="306" arabic-form="initial" 
d="M226 500v-500h-226v69h149v431h77zM149 799h75v-81h-75v81zM86 677h76v-84h-76v84zM211 677h76v-84h-76v84z" />
    <glyph glyph-name="uniFE9C" unicode="&#x62b;" horiz-adv-x="375" arabic-form="medial" 
d="M375 69v-69h-375v69h149v431h77v-431h149zM149 799h75v-81h-75v81zM86 677h76v-84h-76v84zM211 677h76v-84h-76v84z" />
    <glyph glyph-name="uniFE9E" unicode="&#x62c;" horiz-adv-x="607" arabic-form="final" 
d="M607 69l-0.000976562 -69.0029h-191c-18.667 10.667 -42.5 20 -71.5 28s-58.5 12 -88.5 12c-44.667 0 -78.667 -10.667 -102 -32s-35 -55.666 -35 -102.999c0 -49.333 13.667 -87.166 41 -113.499s69.333 -39.5 126 -39.5c48 0 109.667 7.33301 185 22l9 -61
c-85.333 -19.333 -155.333 -29 -210 -29c-75.333 0 -132.5 19.333 -171.5 58s-58.5 94.334 -58.5 167.001c0 133.333 68.333 200 205 200c36 0 69.333 -4.16699 100 -12.5s54.334 -17.5 71.001 -27.5v271c0 33.333 -8.66699 58.5 -26 75.5s-43.333 25.5 -78 25.5
c-30 0 -89.333 -5.33301 -178 -16l-28 -3l-3 57c100.667 20.667 176 31 226 31c109.333 0 164 -57 164 -171v-270h114zM282.999 -85.0029h76v-84h-76v84z" />
    <glyph glyph-name="uniFE9F" unicode="&#x62c;" horiz-adv-x="538" arabic-form="initial" 
d="M478 339v-339h-478v69h401v271c0 33.333 -8.66699 58.5 -26 75.5s-43.333 25.5 -78 25.5c-30 0 -89.333 -5.33301 -178 -16l-28 -3l-3 57c100.667 20.667 176 31 226 31c109.333 0 164 -57 164 -171zM241 -80h76v-84h-76v84z" />
    <glyph glyph-name="uniFEA0" unicode="&#x62c;" horiz-adv-x="592" arabic-form="medial" 
d="M592 69v-69h-592v69h401v271c0 33.333 -8.66699 58.5 -26 75.5s-43.333 25.5 -78 25.5c-30 0 -89.333 -5.33301 -178 -16l-28 -3l-3 57c100.667 20.667 176 31 226 31c109.333 0 164 -57 164 -171v-270h114zM258 -80h76v-84h-76v84z" />
    <glyph glyph-name="uniFEA2" unicode="&#x62d;" horiz-adv-x="607" arabic-form="final" 
d="M607 69l-0.000976562 -69.0029h-191c-18.667 10.667 -42.5 20 -71.5 28s-58.5 12 -88.5 12c-44.667 0 -78.667 -10.667 -102 -32s-35 -55.666 -35 -102.999c0 -49.333 13.667 -87.166 41 -113.499s69.333 -39.5 126 -39.5c48 0 109.667 7.33301 185 22l9 -61
c-85.333 -19.333 -155.333 -29 -210 -29c-75.333 0 -132.5 19.333 -171.5 58s-58.5 94.334 -58.5 167.001c0 133.333 68.333 200 205 200c36 0 69.333 -4.16699 100 -12.5s54.334 -17.5 71.001 -27.5v271c0 33.333 -8.66699 58.5 -26 75.5s-43.333 25.5 -78 25.5
c-30 0 -89.333 -5.33301 -178 -16l-28 -3l-3 57c100.667 20.667 176 31 226 31c109.333 0 164 -57 164 -171v-270h114z" />
    <glyph glyph-name="uniFEA3" unicode="&#x62d;" horiz-adv-x="538" arabic-form="initial" 
d="M478 339v-339h-478v69h401v271c0 33.333 -8.66699 58.5 -26 75.5s-43.333 25.5 -78 25.5c-30 0 -89.333 -5.33301 -178 -16l-28 -3l-3 57c100.667 20.667 176 31 226 31c109.333 0 164 -57 164 -171z" />
    <glyph glyph-name="uniFEA4" unicode="&#x62d;" horiz-adv-x="592" arabic-form="medial" 
d="M592 69v-69h-592v69h401v271c0 33.333 -8.66699 58.5 -26 75.5s-43.333 25.5 -78 25.5c-30 0 -89.333 -5.33301 -178 -16l-28 -3l-3 57c100.667 20.667 176 31 226 31c109.333 0 164 -57 164 -171v-270h114z" />
    <glyph glyph-name="uniFEA6" unicode="&#x62e;" horiz-adv-x="607" arabic-form="final" 
d="M607 69l-0.000976562 -69.0029h-191c-18.667 10.667 -42.5 20 -71.5 28s-58.5 12 -88.5 12c-44.667 0 -78.667 -10.667 -102 -32s-35 -55.666 -35 -102.999c0 -49.333 13.667 -87.166 41 -113.499s69.333 -39.5 126 -39.5c48 0 109.667 7.33301 185 22l9 -61
c-85.333 -19.333 -155.333 -29 -210 -29c-75.333 0 -132.5 19.333 -171.5 58s-58.5 94.334 -58.5 167.001c0 133.333 68.333 200 205 200c36 0 69.333 -4.16699 100 -12.5s54.334 -17.5 71.001 -27.5v271c0 33.333 -8.66699 58.5 -26 75.5s-43.333 25.5 -78 25.5
c-30 0 -89.333 -5.33301 -178 -16l-28 -3l-3 57c100.667 20.667 176 31 226 31c109.333 0 164 -57 164 -171v-270h114zM238.999 676.997h76v-84h-76v84z" />
    <glyph glyph-name="uniFEA7" unicode="&#x62e;" horiz-adv-x="538" arabic-form="initial" 
d="M478 339v-339h-478v69h401v271c0 33.333 -8.66699 58.5 -26 75.5s-43.333 25.5 -78 25.5c-30 0 -89.333 -5.33301 -178 -16l-28 -3l-3 57c100.667 20.667 176 31 226 31c109.333 0 164 -57 164 -171zM241 677h76v-84h-76v84z" />
    <glyph glyph-name="uniFEA8" unicode="&#x62e;" horiz-adv-x="592" arabic-form="medial" 
d="M592 69v-69h-592v69h401v271c0 33.333 -8.66699 58.5 -26 75.5s-43.333 25.5 -78 25.5c-30 0 -89.333 -5.33301 -178 -16l-28 -3l-3 57c100.667 20.667 176 31 226 31c109.333 0 164 -57 164 -171v-270h114zM258 677h76v-84h-76v84z" />
    <glyph glyph-name="uniFEAA" unicode="&#x62f;" horiz-adv-x="536" arabic-form="final" 
d="M536 69l-0.000976562 -69.002h-496v69h325v116c0 98.667 -19.167 167.834 -57.5 207.501s-83.166 59.5 -134.499 59.5h-81l-5 57c6.66699 2.66699 20.167 5.33398 40.5 8.00098s39.833 4 58.5 4c72.667 0 133.5 -26.167 182.5 -78.5s73.5 -137.5 73.5 -255.5v-118h94z
" />
    <glyph glyph-name="uniFEAC" unicode="&#x630;" horiz-adv-x="536" arabic-form="final" 
d="M536 69l-0.000976562 -69.002h-496v69h325v116c0 98.667 -19.167 167.834 -57.5 207.501s-83.166 59.5 -134.499 59.5h-81l-5 57c6.66699 2.66699 20.167 5.33398 40.5 8.00098s39.833 4 58.5 4c72.667 0 133.5 -26.167 182.5 -78.5s73.5 -137.5 73.5 -255.5v-118h94z
M93.999 703.998h76v-84h-76v84z" />
    <glyph glyph-name="uniFEAE" unicode="&#x631;" horiz-adv-x="404" arabic-form="final" 
d="M404 0h-124.999v-11c0 -158.667 -55 -238 -165 -238c-10.667 0 -20.5 0.333008 -29.5 1s-16.833 1.33398 -23.5 2.00098l-21 2v68c33.333 -2.66699 54.333 -4 63 -4c33.333 0 58.166 13.167 74.499 39.5s24.5 63.166 24.5 110.499v529h77v-430h125v-69z" />
    <glyph glyph-name="uniFEB0" unicode="&#x632;" horiz-adv-x="404" arabic-form="final" 
d="M404 0h-124.999v-11c0 -158.667 -55 -238 -165 -238c-10.667 0 -20.5 0.333008 -29.5 1s-16.833 1.33398 -23.5 2.00098l-21 2v68c33.333 -2.66699 54.333 -4 63 -4c33.333 0 58.166 13.167 74.499 39.5s24.5 63.166 24.5 110.499v529h77v-430h125v-69zM201.001 677h76
v-84h-76v84z" />
    <glyph glyph-name="uniFEB2" unicode="&#x633;" horiz-adv-x="1184" arabic-form="final" 
d="M1184 69l-0.000976562 -68.9971h-300c-40.667 0 -77.667 14 -111 42c-24 -28 -55.667 -42 -95 -42h-123v-40c0 -44.667 -11.5 -82.667 -34.5 -114s-53.667 -54.833 -92 -70.5s-80.166 -23.5 -125.499 -23.5c-48.667 0 -93 9 -133 27s-71.667 43.167 -95 75.5
s-35 69.166 -35 110.499c0 25.333 4 67.666 12 126.999s17.333 119.666 28 180.999l74 -4c-10 -58.667 -18.667 -116 -26 -172s-11 -94.667 -11 -116c0 -31.333 8.16699 -59.166 24.5 -83.499s38.333 -43.166 66 -56.499s57.834 -20 90.501 -20c32 0 61.833 6.33301 89.5 19
s49.667 30.5 66 53.5s24.5 48.833 24.5 77.5v479h77v-381h99c30.667 0 52.834 13.167 66.501 39.5s20.5 59.5 20.5 99.5v242h77v-241c0 -40.667 -4.66699 -76 -14 -106c10 -8.66699 22.667 -16.5 38 -23.5s30.666 -10.5 45.999 -10.5h105v217
c0 25.333 -1.83301 57.166 -5.5 95.499s-7.83398 76.833 -12.501 115.5l63 3c8.66699 -38 16.167 -78.333 22.5 -121s9.5 -76.334 9.5 -101.001v-209h114z" />
    <glyph glyph-name="uniFEB3" unicode="&#x633;" horiz-adv-x="824" arabic-form="initial" 
d="M744.5 379c6.33301 -42.667 9.50098 -76.332 9.50098 -100.999v-278h-186c-40.667 0 -77.667 14 -111 42c-24 -28 -55.667 -42 -95 -42h-362v69h162v381h77v-381h99c30.667 0 52.834 13.167 66.501 39.5s20.5 59.5 20.5 99.5v242h77v-241
c0 -40.667 -4.66699 -76 -14 -106c10 -8.66699 22.667 -16.5 38 -23.5s30.666 -10.5 45.999 -10.5h105v217c0 25.333 -1.83301 57.166 -5.5 95.499s-7.83398 76.833 -12.501 115.5l63 3c8.66699 -38 16.167 -78.333 22.5 -121z" />
    <glyph glyph-name="uniFEB4" unicode="&#x633;" horiz-adv-x="848" arabic-form="medial" 
d="M848 69l0.000976562 -68.998h-280c-40.667 0 -77.667 14 -111 42c-24 -28 -55.667 -42 -95 -42h-362v69h162v381h77v-381h99c30.667 0 52.834 13.167 66.501 39.5s20.5 59.5 20.5 99.5v242h77v-241c0 -40.667 -4.66699 -76 -14 -106c10 -8.66699 22.667 -16.5 38 -23.5
s30.666 -10.5 45.999 -10.5h105v217c0 25.333 -1.83301 57.166 -5.5 95.499s-7.83398 76.833 -12.501 115.5l63 3c8.66699 -38 16.167 -78.333 22.5 -121s9.5 -76.334 9.5 -101.001v-209h94z" />
    <glyph glyph-name="uniFEB6" unicode="&#x634;" horiz-adv-x="1184" arabic-form="final" 
d="M1184 69l-0.000976562 -68.9971h-300c-40.667 0 -77.667 14 -111 42c-24 -28 -55.667 -42 -95 -42h-123v-40c0 -44.667 -11.5 -82.667 -34.5 -114s-53.667 -54.833 -92 -70.5s-80.166 -23.5 -125.499 -23.5c-48.667 0 -93 9 -133 27s-71.667 43.167 -95 75.5
s-35 69.166 -35 110.499c0 25.333 4 67.666 12 126.999s17.333 119.666 28 180.999l74 -4c-10 -58.667 -18.667 -116 -26 -172s-11 -94.667 -11 -116c0 -31.333 8.16699 -59.166 24.5 -83.499s38.333 -43.166 66 -56.499s57.834 -20 90.501 -20c32 0 61.833 6.33301 89.5 19
s49.667 30.5 66 53.5s24.5 48.833 24.5 77.5v479h77v-381h99c30.667 0 52.834 13.167 66.501 39.5s20.5 59.5 20.5 99.5v242h77v-241c0 -40.667 -4.66699 -76 -14 -106c10 -8.66699 22.667 -16.5 38 -23.5s30.666 -10.5 45.999 -10.5h105v217
c0 25.333 -1.83301 57.166 -5.5 95.499s-7.83398 76.833 -12.501 115.5l63 3c8.66699 -38 16.167 -78.333 22.5 -121s9.5 -76.334 9.5 -101.001v-209h114zM740.999 799.003h75v-81h-75v81zM677.999 677.003h76v-84h-76v84zM802.999 677.003h76v-84h-76v84z" />
    <glyph glyph-name="uniFEB7" unicode="&#x634;" horiz-adv-x="824" arabic-form="initial" 
d="M744.5 379c6.33301 -42.667 9.50098 -76.332 9.50098 -100.999v-278h-186c-40.667 0 -77.667 14 -111 42c-24 -28 -55.667 -42 -95 -42h-362v69h162v381h77v-381h99c30.667 0 52.834 13.167 66.501 39.5s20.5 59.5 20.5 99.5v242h77v-241
c0 -40.667 -4.66699 -76 -14 -106c10 -8.66699 22.667 -16.5 38 -23.5s30.666 -10.5 45.999 -10.5h105v217c0 25.333 -1.83301 57.166 -5.5 95.499s-7.83398 76.833 -12.501 115.5l63 3c8.66699 -38 16.167 -78.333 22.5 -121zM425.001 799.002h75v-81h-75v81z
M362.001 677.002h76v-84h-76v84zM487.001 677.002h76v-84h-76v84z" />
    <glyph glyph-name="uniFEB8" unicode="&#x634;" horiz-adv-x="848" arabic-form="medial" 
d="M848 69l0.000976562 -68.998h-280c-40.667 0 -77.667 14 -111 42c-24 -28 -55.667 -42 -95 -42h-362v69h162v381h77v-381h99c30.667 0 52.834 13.167 66.501 39.5s20.5 59.5 20.5 99.5v242h77v-241c0 -40.667 -4.66699 -76 -14 -106c10 -8.66699 22.667 -16.5 38 -23.5
s30.666 -10.5 45.999 -10.5h105v217c0 25.333 -1.83301 57.166 -5.5 95.499s-7.83398 76.833 -12.501 115.5l63 3c8.66699 -38 16.167 -78.333 22.5 -121s9.5 -76.334 9.5 -101.001v-209h94zM405.001 799.002h75v-81h-75v81zM342.001 677.002h76v-84h-76v84z
M467.001 677.002h76v-84h-76v84z" />
    <glyph glyph-name="uniFEBA" unicode="&#x635;" horiz-adv-x="1184" arabic-form="final" 
d="M1184 69l-0.00292969 -68.9951h-629v-40c0 -44.667 -11.5 -82.667 -34.5 -114s-53.667 -54.833 -92 -70.5s-80.166 -23.5 -125.499 -23.5c-48.667 0 -93 9 -133 27s-71.667 43.167 -95 75.5s-35 69.166 -35 110.499c0 25.333 4 67.666 12 126.999
s17.333 119.666 28 180.999l74 -4c-24.667 -156.667 -37 -252.334 -37 -287.001c0 -31.333 8.16699 -59.333 24.5 -84s38.333 -43.667 66 -57s57.834 -20 90.501 -20c32 0 61.667 6.33301 89 19s49.333 30.5 66 53.5s25 48.833 25 77.5v529h77v-160
c30 37.333 57.167 67.666 81.5 90.999s52.833 42.333 85.5 57s70.334 22 113.001 22c84 0 143.5 -25.833 178.5 -77.5s52.5 -112.167 52.5 -181.5v-182h118zM711.997 407.005c-35.333 -22.667 -64 -46.832 -86 -72.499s-45.667 -56.167 -71 -91.5v-174h434v171
c0 57.333 -13.833 105.166 -41.5 143.499s-67.834 57.5 -120.501 57.5c-41.333 0 -79.666 -11.333 -114.999 -34z" />
    <glyph glyph-name="uniFEBB" unicode="&#x635;" horiz-adv-x="804" arabic-form="initial" 
d="M681.5 432.5c35 -51.667 52.499 -112.166 52.499 -181.499v-251h-734v69h146v431h77v-160c30 37.333 57.167 67.666 81.5 90.999s52.833 42.333 85.5 57s70.334 22 113.001 22c84 0 143.5 -25.833 178.5 -77.5zM379.999 407.001c-35.333 -22.667 -64 -46.832 -86 -72.499
s-45.667 -56.167 -71 -91.5v-174h434v171c0 57.333 -13.833 105.166 -41.5 143.499s-67.834 57.5 -120.501 57.5c-41.333 0 -79.666 -11.333 -114.999 -34z" />
    <glyph glyph-name="uniFEBC" unicode="&#x635;" horiz-adv-x="828" arabic-form="medial" 
d="M828 69l-0.000976562 -68.999h-828v69h146v431h77v-160c30 37.333 57.167 67.666 81.5 90.999s52.833 42.333 85.5 57s70.334 22 113.001 22c84 0 143.5 -25.833 178.5 -77.5s52.5 -112.167 52.5 -181.5v-182h94zM379.999 407.001
c-35.333 -22.667 -64 -46.832 -86 -72.499s-45.667 -56.167 -71 -91.5v-174h434v171c0 57.333 -13.833 105.166 -41.5 143.499s-67.834 57.5 -120.501 57.5c-41.333 0 -79.666 -11.333 -114.999 -34z" />
    <glyph glyph-name="uniFEBE" unicode="&#x636;" horiz-adv-x="1184" arabic-form="final" 
d="M1184 69l-0.00292969 -68.9951h-629v-40c0 -44.667 -11.5 -82.667 -34.5 -114s-53.667 -54.833 -92 -70.5s-80.166 -23.5 -125.499 -23.5c-48.667 0 -93 9 -133 27s-71.667 43.167 -95 75.5s-35 69.166 -35 110.499c0 25.333 4 67.666 12 126.999
s17.333 119.666 28 180.999l74 -4c-24.667 -156.667 -37 -252.334 -37 -287.001c0 -31.333 8.16699 -59.333 24.5 -84s38.333 -43.667 66 -57s57.834 -20 90.501 -20c32 0 61.667 6.33301 89 19s49.333 30.5 66 53.5s25 48.833 25 77.5v529h77v-160
c30 37.333 57.167 67.666 81.5 90.999s52.833 42.333 85.5 57s70.334 22 113.001 22c84 0 143.5 -25.833 178.5 -77.5s52.5 -112.167 52.5 -181.5v-182h118zM711.997 407.005c-35.333 -22.667 -64 -46.832 -86 -72.499s-45.667 -56.167 -71 -91.5v-174h434v171
c0 57.333 -13.833 105.166 -41.5 143.499s-67.834 57.5 -120.501 57.5c-41.333 0 -79.666 -11.333 -114.999 -34zM740.997 677.007h76v-84h-76v84z" />
    <glyph glyph-name="uniFEBF" unicode="&#x636;" horiz-adv-x="804" arabic-form="initial" 
d="M681.5 432.5c35 -51.667 52.499 -112.166 52.499 -181.499v-251h-734v69h146v431h77v-160c30 37.333 57.167 67.666 81.5 90.999s52.833 42.333 85.5 57s70.334 22 113.001 22c84 0 143.5 -25.833 178.5 -77.5zM379.999 407.001c-35.333 -22.667 -64 -46.832 -86 -72.499
s-45.667 -56.167 -71 -91.5v-174h434v171c0 57.333 -13.833 105.166 -41.5 143.499s-67.834 57.5 -120.501 57.5c-41.333 0 -79.666 -11.333 -114.999 -34zM424.999 677.003h76v-84h-76v84z" />
    <glyph glyph-name="uniFEC0" unicode="&#x636;" horiz-adv-x="828" arabic-form="medial" 
d="M828 69l-0.000976562 -68.999h-828v69h146v431h77v-160c30 37.333 57.167 67.666 81.5 90.999s52.833 42.333 85.5 57s70.334 22 113.001 22c84 0 143.5 -25.833 178.5 -77.5s52.5 -112.167 52.5 -181.5v-182h94zM379.999 407.001
c-35.333 -22.667 -64 -46.832 -86 -72.499s-45.667 -56.167 -71 -91.5v-174h434v171c0 57.333 -13.833 105.166 -41.5 143.499s-67.834 57.5 -120.501 57.5c-41.333 0 -79.666 -11.333 -114.999 -34zM404.999 677.003h76v-84h-76v84z" />
    <glyph glyph-name="uniFEC2" unicode="&#x637;" horiz-adv-x="780" arabic-form="final" 
d="M780 69l-0.000976562 -68.999h-756v69h54v649h77v-378c30 37.333 57.167 67.666 81.5 90.999s52.833 42.333 85.5 57s70.334 22 113.001 22c84 0 143.5 -25.833 178.5 -77.5s52.5 -112.167 52.5 -181.5v-182h114zM311.999 407.001
c-35.333 -22.667 -64 -46.832 -86 -72.499s-45.667 -56.167 -71 -91.5v-174h434v171c0 57.333 -13.833 105.166 -41.5 143.499s-67.834 57.5 -120.501 57.5c-41.333 0 -79.666 -11.333 -114.999 -34z" />
    <glyph glyph-name="uniFEC3" unicode="&#x637;" horiz-adv-x="746" arabic-form="initial" 
d="M570.5 484c33.667 -17.333 61.333 -45.5 83 -84.5s32.5 -88.5 32.5 -148.5v-251h-686v69h94v649h77v-438c41.333 69.333 85 125 131 167s99.667 63 161 63c38 0 73.833 -8.66699 107.5 -26zM313.499 380.5c-42.333 -40.333 -76.668 -87.667 -103.001 -142
s-39.5 -98.5 -39.5 -132.5v-37h438v183c0 44 -8.16699 80.167 -24.5 108.5s-36.833 48.833 -61.5 61.5s-49.667 19 -75 19c-47.333 0 -92.166 -20.167 -134.499 -60.5z" />
    <glyph glyph-name="uniFEC4" unicode="&#x637;" horiz-adv-x="780" arabic-form="medial" 
d="M780 69l-0.000976562 -69h-780v69h94v649h77v-438c41.333 69.333 85 125 131 167s99.667 63 161 63c38 0 73.833 -8.66699 107.5 -26s61.334 -45.5 83.001 -84.5s32.5 -88.5 32.5 -148.5v-182h94zM313.499 380.5c-42.333 -40.333 -76.668 -87.667 -103.001 -142
s-39.5 -98.5 -39.5 -132.5v-37h438v183c0 44 -8.16699 80.167 -24.5 108.5s-36.833 48.833 -61.5 61.5s-49.667 19 -75 19c-47.333 0 -92.166 -20.167 -134.499 -60.5z" />
    <glyph glyph-name="uniFEC6" unicode="&#x638;" horiz-adv-x="780" arabic-form="final" 
d="M780 69l-0.000976562 -68.999h-756v69h54v649h77v-378c30 37.333 57.167 67.666 81.5 90.999s52.833 42.333 85.5 57s70.334 22 113.001 22c84 0 143.5 -25.833 178.5 -77.5s52.5 -112.167 52.5 -181.5v-182h114zM311.999 407.001
c-35.333 -22.667 -64 -46.832 -86 -72.499s-45.667 -56.167 -71 -91.5v-174h434v171c0 57.333 -13.833 105.166 -41.5 143.499s-67.834 57.5 -120.501 57.5c-41.333 0 -79.666 -11.333 -114.999 -34zM341.999 677.003h76v-84h-76v84z" />
    <glyph glyph-name="uniFEC7" unicode="&#x638;" horiz-adv-x="746" arabic-form="initial" 
d="M570.5 484c33.667 -17.333 61.333 -45.5 83 -84.5s32.5 -88.5 32.5 -148.5v-251h-686v69h94v649h77v-438c41.333 69.333 85 125 131 167s99.667 63 161 63c38 0 73.833 -8.66699 107.5 -26zM313.499 380.5c-42.333 -40.333 -76.668 -87.667 -103.001 -142
s-39.5 -98.5 -39.5 -132.5v-37h438v183c0 44 -8.16699 80.167 -24.5 108.5s-36.833 48.833 -61.5 61.5s-49.667 19 -75 19c-47.333 0 -92.166 -20.167 -134.499 -60.5zM344.997 676.999h76v-84h-76v84z" />
    <glyph glyph-name="uniFEC8" unicode="&#x638;" horiz-adv-x="780" arabic-form="medial" 
d="M780 69l-0.000976562 -69h-780v69h94v649h77v-438c41.333 69.333 85 125 131 167s99.667 63 161 63c38 0 73.833 -8.66699 107.5 -26s61.334 -45.5 83.001 -84.5s32.5 -88.5 32.5 -148.5v-182h94zM313.499 380.5c-42.333 -40.333 -76.668 -87.667 -103.001 -142
s-39.5 -98.5 -39.5 -132.5v-37h438v183c0 44 -8.16699 80.167 -24.5 108.5s-36.833 48.833 -61.5 61.5s-49.667 19 -75 19c-47.333 0 -92.166 -20.167 -134.499 -60.5zM341.997 676.999h76v-84h-76v84z" />
    <glyph glyph-name="uniFECA" unicode="&#x639;" horiz-adv-x="590" arabic-form="final" 
d="M178.5 6c-21.667 -21.333 -32.4971 -54.6689 -32.4971 -100.002c0 -102.667 55.333 -154 166 -154c48.667 0 110.667 7.33301 186 22l9 -61l-33 -7c-68.667 -14.667 -127.667 -22 -177 -22c-75.333 0 -132.5 19.5 -171.5 58.5s-58.5 95.167 -58.5 168.5
c0 55.333 11.333 98.333 34 129s56.667 51.334 102 62.001c-48 39.333 -86.333 84.5 -115 135.5s-43.667 95.833 -45 134.5l-3 71c85.333 44.667 167.666 67 246.999 67c78.667 0 161.667 -22.333 249 -67l-3 -71c-1.33301 -26 -8.66602 -55.5 -21.999 -88.5
s-32.833 -66.5 -58.5 -100.5s-56.167 -64 -91.5 -90c41.333 -16 82.333 -24 123 -24h106v-69h-106c-32.667 0 -66.334 4 -101.001 12s-66.334 19.333 -95.001 34l-13 -6c-42.667 -1.33301 -74.834 -12.666 -96.501 -33.999zM165.503 251.497
c31 -47.667 71.833 -88.167 122.5 -121.5c51.333 33.333 92.5 73.833 123.5 121.5s46.5 98.5 46.5 152.5c-66 24.667 -122.667 37 -170 37c-46 0 -102.333 -12.333 -169 -37c0 -54 15.5 -104.833 46.5 -152.5z" />
    <glyph glyph-name="uniFECB" unicode="&#x639;" horiz-adv-x="557" arabic-form="initial" 
d="M527 69l0.000976562 -68.998h-527v69h187c-18.667 21.333 -34.334 50 -47.001 86s-19 76 -19 120c0 70 18.167 126.667 54.5 170s88.5 65 156.5 65c26 0 53.833 -3.5 83.5 -10.5s56.834 -16.833 81.501 -29.5l-3 -68c-10 7.33301 -31.333 15.666 -64 24.999
s-62.334 14 -89.001 14c-46 0 -81.333 -15.333 -106 -46s-37 -72.334 -37 -125.001c0 -43.333 7.83301 -82.5 23.5 -117.5s35.167 -62.833 58.5 -83.5h247z" />
    <glyph glyph-name="uniFECC" unicode="&#x639;" horiz-adv-x="613" arabic-form="medial" 
d="M613 69l0.00292969 -68.999h-105c-33.333 0 -67.333 4 -102 12s-66.334 19.333 -95.001 34c-28.667 -14 -59.834 -25.167 -93.501 -33.5s-66.834 -12.5 -99.501 -12.5h-118v69h115c40.667 0 81.334 7.66699 122.001 23c-51.333 39.333 -92.333 85.666 -123 138.999
s-46.667 100.333 -48 141l-3 71c85.333 44.667 167.666 67 246.999 67c78.667 0 161.667 -22.333 249 -67l-3 -71c-1.33301 -26 -8.66602 -55.5 -21.999 -88.5s-32.833 -66.5 -58.5 -100.5s-55.834 -64 -90.501 -90c40 -16 80.667 -24 122 -24h106zM188.003 250.501
c30.667 -47.667 71.667 -87.832 123 -120.499c50.667 32.667 91.667 73 123 121s47 99 47 153c-66 24.667 -122.667 37 -170 37c-46 0 -102.333 -12.333 -169 -37c0 -54.667 15.333 -105.834 46 -153.501z" />
    <glyph glyph-name="uniFECE" unicode="&#x63a;" horiz-adv-x="590" arabic-form="final" 
d="M178.5 6c-21.667 -21.333 -32.4971 -54.6689 -32.4971 -100.002c0 -102.667 55.333 -154 166 -154c48.667 0 110.667 7.33301 186 22l9 -61l-33 -7c-68.667 -14.667 -127.667 -22 -177 -22c-75.333 0 -132.5 19.5 -171.5 58.5s-58.5 95.167 -58.5 168.5
c0 55.333 11.333 98.333 34 129s56.667 51.334 102 62.001c-48 39.333 -86.333 84.5 -115 135.5s-43.667 95.833 -45 134.5l-3 71c85.333 44.667 167.666 67 246.999 67c78.667 0 161.667 -22.333 249 -67l-3 -71c-1.33301 -26 -8.66602 -55.5 -21.999 -88.5
s-32.833 -66.5 -58.5 -100.5s-56.167 -64 -91.5 -90c41.333 -16 82.333 -24 123 -24h106v-69h-106c-32.667 0 -66.334 4 -101.001 12s-66.334 19.333 -95.001 34l-13 -6c-42.667 -1.33301 -74.834 -12.666 -96.501 -33.999zM165.503 251.497
c31 -47.667 71.833 -88.167 122.5 -121.5c51.333 33.333 92.5 73.833 123.5 121.5s46.5 98.5 46.5 152.5c-66 24.667 -122.667 37 -170 37c-46 0 -102.333 -12.333 -169 -37c0 -54 15.5 -104.833 46.5 -152.5zM247.003 676.997h76v-84h-76v84z" />
    <glyph glyph-name="uniFECF" unicode="&#x63a;" horiz-adv-x="557" arabic-form="initial" 
d="M527 69l0.000976562 -68.998h-527v69h187c-18.667 21.333 -34.334 50 -47.001 86s-19 76 -19 120c0 70 18.167 126.667 54.5 170s88.5 65 156.5 65c26 0 53.833 -3.5 83.5 -10.5s56.834 -16.833 81.501 -29.5l-3 -68c-10 7.33301 -31.333 15.666 -64 24.999
s-62.334 14 -89.001 14c-46 0 -81.333 -15.333 -106 -46s-37 -72.334 -37 -125.001c0 -43.333 7.83301 -82.5 23.5 -117.5s35.167 -62.833 58.5 -83.5h247zM282.001 677.002h76v-84h-76v84z" />
    <glyph glyph-name="uniFED0" unicode="&#x63a;" horiz-adv-x="613" arabic-form="medial" 
d="M613 69l0.00292969 -68.999h-105c-33.333 0 -67.333 4 -102 12s-66.334 19.333 -95.001 34c-28.667 -14 -59.834 -25.167 -93.501 -33.5s-66.834 -12.5 -99.501 -12.5h-118v69h115c40.667 0 81.334 7.66699 122.001 23c-51.333 39.333 -92.333 85.666 -123 138.999
s-46.667 100.333 -48 141l-3 71c85.333 44.667 167.666 67 246.999 67c78.667 0 161.667 -22.333 249 -67l-3 -71c-1.33301 -26 -8.66602 -55.5 -21.999 -88.5s-32.833 -66.5 -58.5 -100.5s-55.834 -64 -90.501 -90c40 -16 80.667 -24 122 -24h106zM188.003 250.501
c30.667 -47.667 71.667 -87.832 123 -120.499c50.667 32.667 91.667 73 123 121s47 99 47 153c-66 24.667 -122.667 37 -170 37c-46 0 -102.333 -12.333 -169 -37c0 -54.667 15.333 -105.834 46 -153.501zM269.003 677.003h76v-84h-76v84z" />
    <glyph glyph-name="uniFED2" unicode="&#x641;" horiz-adv-x="988" arabic-form="final" 
d="M988 69v-68.999h-689c-64 0 -114.667 5.33301 -152 16s-64.5 27.667 -81.5 51s-25.5 55.333 -25.5 96c0 27.333 3.16699 62.333 9.5 105s13.833 83.334 22.5 122.001l60 -3l-7 -50c-10.667 -78 -16 -130 -16 -156c0 -28.667 5.83301 -51 17.5 -67s31 -27.5 58 -34.5
s64.833 -10.5 113.5 -10.5h226c-18 35.333 -27 91.666 -27 168.999c0 68.667 7.16699 121.667 21.5 159s38.333 63.666 72 78.999s81.5 23 143.5 23c50.667 0 96.667 -2.33301 138 -7l28 -3v-420h88zM610 69.001h213v359c-45.333 3.33301 -77.333 5 -96 5
c-42 0 -74 -6.33301 -96 -19s-37.167 -32.667 -45.5 -60s-12.5 -65.333 -12.5 -114c0 -84.667 12.333 -141.667 37 -171zM695 677.001h76v-84h-76v84z" />
    <glyph glyph-name="uniFED3" unicode="&#x641;" horiz-adv-x="578" arabic-form="initial" 
d="M518 489v-488.998h-518v69h142c-18 35.333 -27 91.666 -27 168.999c0 68.667 7.16699 121.667 21.5 159s38.333 63.666 72 78.999s81.5 23 143.5 23c50.667 0 96.667 -2.33301 138 -7zM228 69.002h213v359c-45.333 3.33301 -77.333 5 -96 5c-42 0 -74 -6.33301 -96 -19
s-37.167 -32.667 -45.5 -60s-12.5 -65.333 -12.5 -114c0 -84.667 12.333 -141.667 37 -171zM298 677.002h76v-84h-76v84z" />
    <glyph glyph-name="uniFED4" unicode="&#x641;" horiz-adv-x="606" arabic-form="medial" 
d="M606 69v-68.998h-606v69h142c-18 35.333 -27 91.666 -27 168.999c0 68.667 7.16699 121.667 21.5 159s38.333 63.666 72 78.999s81.5 23 143.5 23c50.667 0 96.667 -2.33301 138 -7l28 -3v-420h88zM228 69.002h213v359c-45.333 3.33301 -77.333 5 -96 5
c-42 0 -74 -6.33301 -96 -19s-37.167 -32.667 -45.5 -60s-12.5 -65.333 -12.5 -114c0 -84.667 12.333 -141.667 37 -171zM277 677.002h76v-84h-76v84z" />
    <glyph glyph-name="uniFED6" unicode="&#x642;" horiz-adv-x="900" arabic-form="final" 
d="M900 0l-112.998 0.000976562v-37c0 -64 -20.667 -115.333 -62 -154s-98.333 -58 -171 -58h-281c-72.667 0 -129.667 19.333 -171 58s-62 90.334 -62 155.001c0 48.667 12 143 36 283l73 -12c-11.333 -72.667 -19.5 -127.334 -24.5 -164.001s-7.5 -66.667 -7.5 -90
c0 -50 13.167 -89.333 39.5 -118s66.166 -43 119.499 -43h274c54 0 94.167 14.333 120.5 43s39.5 68 39.5 118v19h-145c-46 0 -81.833 6.66699 -107.5 20s-44.334 36.666 -56.001 69.999s-17.5 81 -17.5 143c0 64 6.66699 115.167 20 153.5s36 66.833 68 85.5s77 28 135 28
c20 0 45.333 -0.833008 76 -2.5s56 -3.5 76 -5.5l28 -3v-420h113v-69zM473.502 134.001c8.33301 -24 21.8311 -40.833 40.498 -50.5s44.334 -14.5 77.001 -14.5h119v358c-46 4 -77.333 6 -94 6c-40 0 -71.167 -6.83301 -93.5 -20.5s-38.166 -34.667 -47.499 -63
s-14 -65.833 -14 -112.5c0 -44.667 4.16699 -79 12.5 -103zM519 677.001h76v-84h-76v84zM644 677.001h76v-84h-76v84z" />
    <glyph glyph-name="uniFED7" unicode="&#x642;" horiz-adv-x="578" arabic-form="initial" 
d="M518 489v-488.998h-518v69h142c-18 35.333 -27 91.666 -27 168.999c0 68.667 7.16699 121.667 21.5 159s38.333 63.666 72 78.999s81.5 23 143.5 23c50.667 0 96.667 -2.33301 138 -7zM228 69.002h213v359c-45.333 3.33301 -77.333 5 -96 5c-42 0 -74 -6.33301 -96 -19
s-37.167 -32.667 -45.5 -60s-12.5 -65.333 -12.5 -114c0 -84.667 12.333 -141.667 37 -171zM236 677.002h76v-84h-76v84zM361 677.002h76v-84h-76v84z" />
    <glyph glyph-name="uniFED8" unicode="&#x642;" horiz-adv-x="606" arabic-form="medial" 
d="M606 69v-68.998h-606v69h142c-18 35.333 -27 91.666 -27 168.999c0 68.667 7.16699 121.667 21.5 159s38.333 63.666 72 78.999s81.5 23 143.5 23c50.667 0 96.667 -2.33301 138 -7l28 -3v-420h88zM228 69.002h213v359c-45.333 3.33301 -77.333 5 -96 5
c-42 0 -74 -6.33301 -96 -19s-37.167 -32.667 -45.5 -60s-12.5 -65.333 -12.5 -114c0 -84.667 12.333 -141.667 37 -171zM215 677.002h76v-84h-76v84zM340 677.002h76v-84h-76v84z" />
    <glyph glyph-name="uniFEDA" unicode="&#x643;" horiz-adv-x="820" arabic-form="final" 
d="M820 69l0.000976562 -69h-511c-64 -0 -114.667 5.33301 -152 16s-64.5 27.667 -81.5 51s-25.5 55.333 -25.5 96c0 45.333 8.66699 111.333 26 198l62 -3c-2.66699 -18.667 -4.33398 -32.667 -5.00098 -42c-9.33301 -62.667 -14 -107.667 -14 -135
c0 -28.667 5.83301 -51 17.5 -67s31 -27.5 58 -34.5s64.833 -10.5 113.5 -10.5h286v649h77v-649h149zM455.001 395l-203.998 -40.0039l-9 32l48 13c-22.667 18.667 -34 42.334 -34 71.001c0 24.667 8.66699 45.834 26 63.501s39.666 26.5 66.999 26.5
c15.333 0 29.666 -2.66699 42.999 -8s23.333 -10.666 30 -15.999l-10 -38c-4 3.33301 -10.167 6.66602 -18.5 9.99902s-17.5 5 -27.5 5c-17.333 0 -31.5 -5.66699 -42.5 -17s-16.5 -24.666 -16.5 -39.999c0 -19.333 7.66699 -34.666 23 -45.999l114 30z" />
    <glyph glyph-name="uniFEDB" unicode="&#x643;" horiz-adv-x="586" arabic-form="initial" 
d="M485.5 371c27 -40.667 40.5 -93.333 40.5 -158v-213h-526v69h449v145c0 40 -7.5 74.667 -22.5 104s-39.833 44.333 -74.5 45h-271l-51 69l52 102c12 24 30.167 53.167 54.5 87.5s48.833 66.5 73.5 96.5l55 -31c-30.667 -46 -53.667 -81.5 -69 -106.5
s-29.333 -49.833 -42 -74.5l-38 -74h242c58 0 100.5 -20.333 127.5 -61z" />
    <glyph glyph-name="uniFEDC" unicode="&#x643;" horiz-adv-x="669" arabic-form="medial" 
d="M669 69v-68.999h-669v69h449v145c0 40 -7.5 74.667 -22.5 104s-39.833 44.333 -74.5 45h-271l-51 69l52 102c12 24 30.167 53.167 54.5 87.5s48.833 66.5 73.5 96.5l55 -31c-30.667 -46 -53.667 -81.5 -69 -106.5s-29.333 -49.833 -42 -74.5l-38 -74h242
c58 0 100.5 -20.333 127.5 -61s40.5 -93.334 40.5 -158.001v-144h143z" />
    <glyph glyph-name="uniFEDE" unicode="&#x644;" horiz-adv-x="670" arabic-form="final" 
d="M670 0l-115 0.000976562v-40c0 -44.667 -11.5 -82.667 -34.5 -114s-53.667 -54.833 -92 -70.5s-80.166 -23.5 -125.499 -23.5c-48.667 0 -93 9 -133 27s-71.667 43 -95 75s-35 68.667 -35 110c0 25.333 4 68 12 128s17.333 120.333 28 181l74 -4
c-10 -65.333 -18.667 -126.833 -26 -184.5s-11 -96.167 -11 -115.5c0 -28.667 8.16699 -54.334 24.5 -77.001s38.5 -40.167 66.5 -52.5s59 -18.5 93 -18.5c49.333 0 91.166 12.833 125.499 38.5s51.5 62.167 51.5 109.5v749h77v-649h115v-69z" />
    <glyph glyph-name="uniFEDF" unicode="&#x644;" horiz-adv-x="290" arabic-form="initial" 
d="M200 718v-718h-200v69h123v649h77z" />
    <glyph glyph-name="uniFEE0" unicode="&#x644;" horiz-adv-x="327" arabic-form="medial" 
d="M327 69v-69h-327v69h123v649h77v-649h127z" />
    <glyph glyph-name="uniFEE2" unicode="&#x645;" horiz-adv-x="656" arabic-form="final" 
d="M656 69l0.00195312 -69.002h-32c-12 0 -25.333 3.66699 -40 11s-28.334 17 -41.001 29v-40h-322c-74 0 -111 -45.667 -111 -137c0 -42 9 -104.667 27 -188l-65 -2c-20.667 96 -31 168.667 -31 218c0 48.667 8.16699 86.167 24.5 112.5s37.166 44.5 62.499 54.5
c-10.667 56 -16 118 -16 186c0 44.667 2.66699 88.834 8 132.501s11.333 79.167 18 106.5c16 6.66699 39.333 12.834 70 18.501s63 8.5 97 8.5c81.333 0 141.333 -20 180 -60s58 -106.667 58 -200v-142c22 -26 49 -39 81 -39h32zM466.002 68.998l0.000976562 181.999
c0 68 -14.333 116.667 -43 146s-72.334 44 -131.001 44c-32.667 0 -61.667 -3.33301 -87 -10c-10.667 -58 -16 -120.333 -16 -187c0 -32.667 1.5 -65.167 4.5 -97.5s6.16699 -58.166 9.5 -77.499h263z" />
    <glyph glyph-name="uniFEE3" unicode="&#x645;" horiz-adv-x="642" arabic-form="initial" 
d="M524 450c38.667 -40 58 -106.668 58 -200.001v-250h-582v69h165c-9.33301 57.333 -14 115.666 -14 174.999c0 44.667 2.66699 88.834 8 132.501s11.333 79.167 18 106.5c16 6.66699 39.333 12.834 70 18.501s63 8.5 97 8.5c81.333 0 141.333 -20 180 -60zM232.5 146.499
c3 -32.333 6.16797 -58.167 9.50098 -77.5h263v182c0 68 -14.333 116.667 -43 146s-72.334 44 -131.001 44c-32.667 0 -61.667 -3.33301 -87 -10c-10.667 -58 -16 -120.333 -16 -187c0 -32.667 1.5 -65.167 4.5 -97.5z" />
    <glyph glyph-name="uniFEE4" unicode="&#x645;" horiz-adv-x="694" arabic-form="medial" 
d="M694 69v-69.001h-32c-12.667 0 -26.167 3.5 -40.5 10.5s-27.5 16.5 -39.5 28.5v-39h-582v69h165c-9.33301 57.333 -14 115.666 -14 174.999c0 44.667 2.66699 88.834 8 132.501s11.333 79.167 18 106.5c16 6.66699 39.333 12.834 70 18.501s63 8.5 97 8.5
c81.333 0 141.333 -20 180 -60s58 -106.667 58 -200v-143c21.333 -25.333 48 -38 80 -38h32zM232.5 146.499c3 -32.333 6.16797 -58.167 9.50098 -77.5h263v182c0 68 -14.333 116.667 -43 146s-72.334 44 -131.001 44c-32.667 0 -61.667 -3.33301 -87 -10
c-10.667 -58 -16 -120.333 -16 -187c0 -32.667 1.5 -65.167 4.5 -97.5z" />
    <glyph glyph-name="uniFEE6" unicode="&#x646;" horiz-adv-x="669" arabic-form="final" 
d="M669 0l-114 0.000976562v-40c0 -44.667 -11.5 -82.667 -34.5 -114s-53.667 -54.833 -92 -70.5s-80.166 -23.5 -125.499 -23.5c-48.667 0 -93 9 -133 27s-71.667 43 -95 75s-35 68.667 -35 110c0 25.333 4 68 12 128s17.333 120.333 28 181l74 -4
c-10 -65.333 -18.667 -126.833 -26 -184.5s-11 -96.167 -11 -115.5c0 -28.667 8.16699 -54.334 24.5 -77.001s38.5 -40.167 66.5 -52.5s59 -18.5 93 -18.5c49.333 0 91.166 12.833 125.499 38.5s51.5 62.167 51.5 109.5v531h77v-431h114v-69zM267 584.001h76v-84h-76v84z
" />
    <glyph glyph-name="uniFEE7" unicode="&#x646;" horiz-adv-x="306" arabic-form="initial" 
d="M226 500v-500h-226v69h149v431h77zM149 677h76v-84h-76v84z" />
    <glyph glyph-name="uniFEE8" unicode="&#x646;" horiz-adv-x="375" arabic-form="medial" 
d="M375 69v-69h-375v69h149v431h77v-431h149zM149 677h76v-84h-76v84z" />
    <glyph glyph-name="uniFEEA" unicode="&#x647;" horiz-adv-x="609" arabic-form="final" 
d="M609 69v-68.999h-333c-59.333 0 -106 8.33301 -140 25s-58.5 43.167 -73.5 79.5s-22.5 85.833 -22.5 148.5c0 62 7.16699 111.667 21.5 149s38 64.666 71 81.999s77.5 26 133.5 26c24.667 0 62.5 -1.16699 113.5 -3.5s89.5 -4.83301 115.5 -7.5v-430h114zM133.5 146.001
c11 -26.667 28.834 -46.167 53.501 -58.5s58.667 -18.5 102 -18.5h129v365c-58.667 4 -104 6 -136 6c-60.667 0 -103.334 -14.333 -128.001 -43s-37 -76 -37 -142c0 -46 5.5 -82.333 16.5 -109z" />
    <glyph glyph-name="uniFEEB" unicode="&#x647;" horiz-adv-x="760" arabic-form="initial" 
d="M607.5 465c61.667 -52 92.499 -137.334 92.499 -256.001v-209h-700v69h115v80c0 32.667 8.16699 62.834 24.5 90.501s38.333 49.667 66 66s57.834 24.5 90.501 24.5c32 0 61.833 -7.83301 89.5 -23.5s49.667 -37.334 66 -65.001s24.5 -58.5 24.5 -92.5v-80h147v138
c0 98.667 -24.833 167.834 -74.5 207.501s-112.5 59.5 -188.5 59.5c-29.333 0 -60.5 -2.16699 -93.5 -6.5s-72.5 -10.5 -118.5 -18.5l-5 59c86.667 23.333 163.667 35 231 35c94 0 171.833 -26 233.5 -78zM221.999 230.999c-20 -20 -30 -44.333 -30 -73v-89h207v89
c0 28.667 -9.83301 53 -29.5 73s-44.167 30 -73.5 30s-54 -10 -74 -30z" />
    <glyph glyph-name="uniFEEC" unicode="&#x647;" horiz-adv-x="799" arabic-form="medial" 
d="M799 69l-0.000976562 -69.001h-799v69h115v80c0 32.667 8.16699 62.834 24.5 90.501s38.333 49.667 66 66s57.834 24.5 90.501 24.5c32 0 61.833 -7.83301 89.5 -23.5s49.667 -37.334 66 -65.001s24.5 -58.5 24.5 -92.5v-80h147v138
c0 98.667 -24.833 167.834 -74.5 207.501s-112.5 59.5 -188.5 59.5c-29.333 0 -60.5 -2.16699 -93.5 -6.5s-72.5 -10.5 -118.5 -18.5l-5 59c86.667 23.333 163.667 35 231 35c94 0 171.833 -26 233.5 -78s92.5 -137.333 92.5 -256v-140h99zM221.999 230.999
c-20 -20 -30 -44.333 -30 -73v-89h207v89c0 28.667 -9.83301 53 -29.5 73s-44.167 30 -73.5 30s-54 -10 -74 -30z" />
    <glyph glyph-name="uniFEEE" unicode="&#x648;" horiz-adv-x="567" arabic-form="final" 
d="M567 0h-125c-4 -84 -19.5 -146.333 -46.5 -187s-69.5 -61 -127.5 -61c-30.667 0 -81 5 -151 15v68c62 -9.33301 110.667 -14 146 -14c23.333 0 42.166 4.16699 56.499 12.5s25.833 25.5 34.5 51.5s13 64.333 13 115h-147c-72.667 0 -120.834 23 -144.501 69
s-35.5 105.667 -35.5 179c0 62 6 112.5 18 151.5s33.667 68.667 65 89s75 30.5 131 30.5c26.667 0 58.834 -2 96.501 -6s68.834 -8.33301 93.501 -13v-431h123v-69zM143 119.5c17.333 -33.667 52.668 -50.5 106.001 -50.5h118v374c-36 4.66699 -67.333 7 -94 7
c-40.667 0 -72.334 -7.5 -95.001 -22.5s-38.5 -37 -47.5 -66s-13.5 -66.167 -13.5 -111.5c0 -53.333 8.66699 -96.833 26 -130.5z" />
    <glyph glyph-name="uniFEF0" unicode="&#x649;" horiz-adv-x="914" arabic-form="final" 
d="M914 0h-127.001v-13c0 -71.333 -19 -128.333 -57 -171s-92.667 -64 -164 -64h-263c-48.667 0 -93 9 -133 27s-71.667 43.167 -95 75.5s-35 69.166 -35 110.499c0 40.667 8.66699 114.334 26 221.001l73 -12c-14.667 -98 -22 -162 -22 -192
c0 -31.333 8.16699 -59.333 24.5 -84s38.333 -43.667 66 -57s57.834 -20 90.501 -20l264 -1c47.333 0 83.833 15.167 109.5 45.5s38.5 68.833 38.5 115.5c0 8.66699 -0.333008 15 -1 19h-24c-52 0 -93 9.66699 -123 29l32 57c12 -8 24.833 -12.833 38.5 -14.5
s33.5 -2.5 59.5 -2.5h222v-69z" />
    <glyph glyph-name="uniFEF2" unicode="&#x64a;" horiz-adv-x="914" arabic-form="final" 
d="M914 0h-127.001v-13c0 -71.333 -19 -128.333 -57 -171s-92.667 -64 -164 -64h-263c-48.667 0 -93 9 -133 27s-71.667 43.167 -95 75.5s-35 69.166 -35 110.499c0 40.667 8.66699 114.334 26 221.001l73 -12c-14.667 -98 -22 -162 -22 -192
c0 -31.333 8.16699 -59.333 24.5 -84s38.333 -43.667 66 -57s57.834 -20 90.501 -20l264 -1c47.333 0 83.833 15.167 109.5 45.5s38.5 68.833 38.5 115.5c0 8.66699 -0.333008 15 -1 19h-24c-52 0 -93 9.66699 -123 29l32 57c12 -8 24.833 -12.833 38.5 -14.5
s33.5 -2.5 59.5 -2.5h222v-69zM311.999 -320h76v-84h-76v84zM436.999 -320h76v-84h-76v84z" />
    <glyph glyph-name="uniFEF3" unicode="&#x64a;" horiz-adv-x="306" arabic-form="initial" 
d="M226 500v-500h-226v69h149v431h77zM86 -80h76v-84h-76v84zM211 -80h76v-84h-76v84z" />
    <glyph glyph-name="uniFEF4" unicode="&#x64a;" horiz-adv-x="375" arabic-form="medial" 
d="M375 69v-69h-375v69h149v431h77v-431h149zM86 -80h76v-84h-76v84zM211 -80h76v-84h-76v84z" />
    <glyph glyph-name=".notdef" horiz-adv-x="235" 
 />
    <glyph glyph-name="uni0000" horiz-adv-x="0" 
 />
    <glyph glyph-name="uni0000" horiz-adv-x="0" 
 />
    <glyph glyph-name="uni000D" unicode="&#xd;" horiz-adv-x="333" 
 />
    <glyph glyph-name="space" unicode=" " horiz-adv-x="220" 
 />
    <glyph glyph-name="exclam" unicode="!" horiz-adv-x="247" 
d="M84 692h79l-5 -464h-69zM83 112h82v-112h-82v112z" />
    <glyph glyph-name="quotedbl" unicode="&#x22;" horiz-adv-x="373" 
d="M67 692h75l-5 -222h-67zM232 692h75l-5 -222h-67z" />
    <glyph glyph-name="numbersign" unicode="#" 
d="M135 174h-111v64h111v186h-111v64h111v178h68v-178h154v178h68v-178h111v-64h-111v-186h111v-64h-111v-174h-68v174h-154v-174h-68v174zM357 238v186h-154v-186h154z" />
    <glyph glyph-name="dollar" unicode="$" 
d="M203 -117l13.999 111.001c-30 2.66699 -72.333 8 -127 16l-16 2l8 61c50.667 -6.66699 98.334 -11.667 143.001 -15l33 250c-48 11.333 -85.333 24 -112 38s-46.167 32.5 -58.5 55.5s-18.5 53.5 -18.5 91.5c0 64.667 17.167 110.334 51.5 137.001s87.833 40 160.5 40
l23 -1l17 129h51l-17 -132c43.333 -4 78 -8 104 -12l21 -3l-6 -62l-28 3c-48.667 5.33301 -81.667 8.66602 -99 9.99902l-30 -233c45.333 -10.667 80.5 -22.5 105.5 -35.5s43.167 -30.333 54.5 -52s17 -50.834 17 -87.501c0 -135.333 -70.333 -203 -211 -203h-15l-14 -115
c-34 2 -51 4.33301 -51 7zM295.999 605.001c-56 0 -95.5 -7.66797 -118.5 -23.001s-34.5 -43.666 -34.5 -84.999c0 -24 3.83301 -43 11.5 -57s20.167 -25.5 37.5 -34.5s42.333 -17.5 75 -25.5zM384.999 89c23.333 22 35 55.334 35 100.001
c0 23.333 -3.5 41.666 -10.5 54.999s-18.333 23.833 -34 31.5s-38.167 15.167 -67.5 22.5l-31 -242c48.667 0 84.667 11 108 33z" />
    <glyph glyph-name="percent" unicode="%" 
d="M155 -4l205 685l48 -16l-205 -683zM56.5 426.5c-19 23.667 -28.5 59.167 -28.5 106.5c0 91.333 36.667 137 110 137s110 -45.667 110 -137c0 -47.333 -9.5 -82.833 -28.5 -106.5s-46.167 -35.5 -81.5 -35.5s-62.5 11.833 -81.5 35.5zM176 464.5c8 15 12 38.167 12 69.5
c0 29.333 -3.83301 50.833 -11.5 64.5s-20.167 20.5 -37.5 20.5s-30 -6.83301 -38 -20.5s-12 -35.167 -12 -64.5c0 -61.333 16.667 -92 50 -92c16.667 0 29 7.5 37 22.5zM341.5 26c-19 24 -28.5 59.333 -28.5 106c0 91.333 36.667 137 110 137
c72.667 0 109 -45.333 109 -136c0 -47.333 -9.5 -83 -28.5 -107s-46.167 -36 -81.5 -36c-34.667 0 -61.5 12 -80.5 36zM460.5 63c7.66699 14.667 11.5 37.332 11.5 67.999s-3.66699 52.834 -11 66.501s-20 20.5 -38 20.5s-30.833 -6.66699 -38.5 -20s-11.5 -35 -11.5 -65
c0 -32 4 -55.333 12 -70s20.667 -22 38 -22s29.833 7.33301 37.5 22z" />
    <glyph glyph-name="ampersand" unicode="&#x26;" horiz-adv-x="688" 
d="M98.5 44c-37.667 36 -56.501 88.6699 -56.501 158.003c0 57.333 12.333 101.166 37 131.499s64 54.166 118 71.499c-20 22 -34.5 43.667 -43.5 65s-13.5 45.666 -13.5 72.999c0 52 15.167 91.333 45.5 118s73.5 40 129.5 40c56.667 0 99.5 -13 128.5 -39
s43.5 -64.333 43.5 -115c0 -43.333 -11.667 -79 -35 -107s-63 -54.667 -119 -80l152 -150c14.667 42 24 96 28 162l73 -1c-9.33301 -85.333 -24.666 -154.666 -45.999 -207.999l129 -122l-45 -50l-121 113c-26.667 -42.667 -57.5 -72.334 -92.5 -89.001
s-78.5 -25 -130.5 -25c-83.333 0 -143.833 18 -181.5 54zM384.499 463.503c18.333 19.667 27.501 45.5 27.501 77.5c0 63.333 -32.667 95 -98 95c-66 0 -99 -31 -99 -93c0 -41.333 15 -78 45 -110l29 -28c45.333 19.333 77.166 38.833 95.499 58.5zM385.5 80.5029
c28.333 15 50.167 37.5 65.5 67.5l-211 210c-43.333 -13.333 -74.5 -31.166 -93.5 -53.499s-28.5 -54.5 -28.5 -96.5c0 -50.667 13.333 -88.334 40 -113.001s67 -37 121 -37c42.667 0 78.167 7.5 106.5 22.5z" />
    <glyph glyph-name="quotesingle" unicode="'" horiz-adv-x="208" 
d="M67 692h75l-5 -222h-67z" />
    <glyph glyph-name="parenleft" unicode="(" horiz-adv-x="264" 
d="M51 303c0 129.333 34.667 278.332 104 446.999h72c-24.667 -66 -46.667 -143.333 -66 -232s-29 -163 -29 -223c0 -55.333 8.5 -119.5 25.5 -192.5s40.167 -148.833 69.5 -227.5h-72c-69.333 156.667 -104 299.334 -104 428.001z" />
    <glyph glyph-name="parenright" unicode=")" horiz-adv-x="264" 
d="M37 -125c32 87.333 55.667 164.668 71 232.001s23 129.666 23 186.999c0 68 -9.33301 143.833 -28 227.5s-40.667 159.834 -66 228.501h72c69.333 -169.333 104 -318.333 104 -447s-34.667 -271.334 -104 -428.001h-72z" />
    <glyph glyph-name="asterisk" unicode="*" horiz-adv-x="420" 
d="M192 497l-107 -79l-31 40l108 79l-106 77l31 42l106 -78l41 126l49 -16l-40 -127h130v-50h-132l41 -125l-49 -15z" />
    <glyph glyph-name="plus" unicode="+" 
d="M244 217h-189v68h189v195h70v-195h191v-68h-191v-197h-70v197z" />
    <glyph glyph-name="comma" unicode="," horiz-adv-x="223" 
d="M80 107h83l-67 -230h-62z" />
    <glyph glyph-name="hyphen" unicode="-" horiz-adv-x="438" 
d="M68 310h303v-70h-303v70z" />
    <glyph glyph-name="period" unicode="." horiz-adv-x="216" 
d="M67 114h82v-114h-82v114z" />
    <glyph glyph-name="slash" unicode="/" horiz-adv-x="412" 
d="M32 10l282 698l67 -25l-282 -697z" />
    <glyph glyph-name="zero" unicode="0" 
d="M145 23c-35.333 22 -61.832 58 -79.499 108s-26.5 116.333 -26.5 199s8.83301 149 26.5 199s44.167 86.167 79.5 108.5s80.333 33.5 135 33.5c81.333 0 141.666 -26.333 180.999 -79s59 -140 59 -262c0 -82.667 -8.83301 -149 -26.5 -199s-44.167 -86 -79.5 -108
s-80 -33 -134 -33c-54.667 0 -99.667 11 -135 33zM372.001 83.5c23.333 17 40.666 45.333 51.999 85s17 93.5 17 161.5s-5.66699 121.833 -17 161.5s-28.666 68 -51.999 85s-54 25.5 -92 25.5s-68.667 -8.5 -92 -25.5s-40.666 -45.333 -51.999 -85s-17 -93.5 -17 -161.5
s5.66699 -121.833 17 -161.5s28.666 -68 51.999 -85s54 -25.5 92 -25.5s68.667 8.5 92 25.5z" />
    <glyph glyph-name="one" unicode="1" 
d="M312 574l-170 -112l-35 58l210 140h72v-660h-77v574z" />
    <glyph glyph-name="two" unicode="2" 
d="M69 65l193 203.001c30.667 32 54.5 57.833 71.5 77.5s31.5 41.5 43.5 65.5s18 48.667 18 74c0 42 -11.333 71.833 -34 89.5s-59.334 26.5 -110.001 26.5c-42 0 -90.333 -5.66699 -145 -17l-26 -5l-6 64c62.667 18 128 27 196 27c68.667 0 119.834 -14.333 153.501 -43
s50.5 -73.334 50.5 -134.001c0 -45.333 -10 -85.333 -30 -120s-56 -77 -108 -127l-176 -179h331v-67h-422v65z" />
    <glyph glyph-name="three" unicode="3" 
d="M93 10l-30.998 7l7 63c76 -16 136 -24 180 -24c51.333 0 91.666 9.66699 120.999 29s44 53 44 101c0 80 -45.333 121.333 -136 124h-133v66h133c19.333 0 38.166 5.16699 56.499 15.5s33.5 24.833 45.5 43.5s18 39.667 18 63c0 36.667 -10.5 63.167 -31.5 79.5
s-55.5 24.5 -103.5 24.5c-53.333 0 -106 -5 -158 -15l-26 -5l-7 61c62 18.667 129.333 28 202 28c71.333 0 123 -13.667 155 -41s48 -71 48 -131c0 -32.667 -8.66699 -62.667 -26 -90s-41.333 -47.333 -72 -60c27.333 -10 49 -21 65 -33s28.167 -28.167 36.5 -48.5
s12.5 -46.5 12.5 -78.5c0 -68 -17.333 -118.167 -52 -150.5s-88.667 -48.5 -162 -48.5c-57.333 0 -119.333 6.66699 -186 20z" />
    <glyph glyph-name="four" unicode="4" 
d="M360 129h-320v60l188 471h84l-191 -463h239v206h77v-206h84v-68h-84v-129h-77v129z" />
    <glyph glyph-name="five" unicode="5" 
d="M96 13l-33 6.99902l9 61c75.333 -14.667 140 -22 194 -22c51.333 0 90.5 13.333 117.5 40s40.5 64.667 40.5 114c0 47.333 -11.833 81.5 -35.5 102.5s-58.5 31.5 -104.5 31.5c-22 0 -46.167 -3.16699 -72.5 -9.5s-47.5 -13.166 -63.5 -20.499l-21 -10l-53 10l18 343h385
v-70h-321l-18 -215c51.333 27.333 103 41 155 41c140 0 210 -65 210 -195c0 -74 -19.167 -130.833 -57.5 -170.5s-92.833 -59.5 -163.5 -59.5c-57.333 0 -119.333 7.33301 -186 22z" />
    <glyph glyph-name="six" unicode="6" 
d="M50 333c0 113.333 22.1699 197.832 66.5029 253.499s108.166 83.5 191.499 83.5c54 0 105.333 -4 154 -12l27 -5l-7 -63c-60 8 -118.333 12 -175 12s-100.334 -19.667 -131.001 -59s-46 -95.666 -46 -168.999l25 10c19.333 7.33301 42.666 14 69.999 20
s50.666 9 69.999 9c148 0 222 -68.333 222 -205c0 -70 -20.167 -123.833 -60.5 -161.5s-97.166 -56.5 -170.499 -56.5c-157.333 0 -236 114.333 -236 343zM397.503 96.499c26.333 25.667 39.499 62.167 39.499 109.5c0 46 -12.667 80.5 -38 103.5
s-61.666 34.5 -108.999 34.5c-20.667 0 -44.334 -3 -71.001 -9s-49 -12.333 -67 -19l-23 -10c0.666992 -78 13.834 -138.833 39.501 -182.5s63.5 -65.5 113.5 -65.5c50.667 0 89.167 12.833 115.5 38.5z" />
    <glyph glyph-name="seven" unicode="7" 
d="M160 13l249 551v26h-332v70h410v-101l-254 -569z" />
    <glyph glyph-name="eight" unicode="8" 
d="M32 168c0 45.333 8.66797 80.5029 26.001 105.503s46.666 48.833 87.999 71.5c-36.667 18.667 -63 39.5 -79 62.5s-24 53.833 -24 92.5c0 56.667 21 99.334 63 128.001c40.667 28.667 98 43 172 43c74.667 0 133.167 -14.833 175.5 -44.5s63.5 -72.167 63.5 -127.5
c0 -40.667 -8 -71.834 -24 -93.501s-44.667 -41.834 -86 -60.501c42 -18.667 72.5 -40.334 91.5 -65.001s28.5 -58.334 28.5 -101.001c0 -126 -82.333 -189 -247 -189c-165.333 0 -248 59.333 -248 178zM328.001 375.003c36.667 12 63.667 27 81 45s26 41.333 26 70
c0 74 -51.667 111 -155 111s-155 -36.667 -155 -110c0 -29.333 7.83301 -53 23.5 -71s40.5 -33 74.5 -45h105zM445.001 187.003c0 34 -9.16797 59.667 -27.501 77s-48.166 32 -89.499 44h-105c-37.333 -10 -64.833 -25 -82.5 -45s-26.5 -47.333 -26.5 -82
c0 -80.667 55.333 -121 166 -121c110 0 165 42.333 165 127z" />
    <glyph glyph-name="nine" unicode="9" 
d="M92 4l-25.999 4.00098l7 62c60 -8 118 -12 174 -12c120 0 180.667 76.667 182 230c-68 -25.333 -125.333 -38 -172 -38c-144 0 -216 67 -216 201c0 67.333 20.667 120.666 62 159.999s97 59 167 59c159.333 0 239 -117.333 239 -352c0 -114 -21.667 -197.167 -65 -249.5
s-109 -78.5 -197 -78.5c-48.667 0 -100.334 4.66699 -155.001 14zM404.001 345.001l26 9c-2 165.333 -55.333 248 -160 248c-46.667 0 -83.167 -13.5 -109.5 -40.5s-39.5 -63.833 -39.5 -110.5c0 -88.667 47.333 -133 142 -133c41.333 0 88.333 9 141 27z" />
    <glyph glyph-name="colon" unicode=":" horiz-adv-x="217" 
d="M67 436h82v-114h-82v114zM67 114h82v-114h-82v114z" />
    <glyph glyph-name="semicolon" unicode=";" horiz-adv-x="248" 
d="M87 436h82v-114h-82v114zM94 107h83l-67 -230h-62z" />
    <glyph glyph-name="less" unicode="&#x3c;" 
d="M61 218v66l416 203v-78l-339 -157l339 -160v-79z" />
    <glyph glyph-name="equal" unicode="=" 
d="M64 378h432v-69h-432v69zM64 193h432v-69h-432v69z" />
    <glyph glyph-name="greater" unicode="&#x3e;" 
d="M82 92l339 160l-339 157v78l416 -203v-66l-416 -205v79z" />
    <glyph glyph-name="question" unicode="?" horiz-adv-x="447" 
d="M152 262c0 21.333 7.16699 41.667 21.5 61s39.5 44.666 75.5 75.999c24.667 21.333 42.667 38.5 54 51.5s19.333 26.333 24 40s7 30.834 7 51.501c0 31.333 -10.667 54.5 -32 69.5s-55 22.5 -101 22.5c-28.667 0 -80.334 -7.66699 -155.001 -23l-5 61
c66.667 20 122.334 30 167.001 30c69.333 0 120.333 -12.667 153 -38s49 -66 49 -122c0 -30 -2.33301 -54 -7 -72s-13.167 -34.667 -25.5 -50s-30.833 -33.333 -55.5 -54c-36.667 -30.667 -61.5 -54.667 -74.5 -72s-19.5 -36.666 -19.5 -57.999v-35h-63
c-8.66699 17.333 -13 37.666 -13 60.999zM154 113.001h82v-112h-82v112z" />
    <glyph glyph-name="at" unicode="@" horiz-adv-x="977" 
d="M305.5 -180.5c-53 15 -98.834 39.8311 -137.501 74.498c-78 68 -117 190.333 -117 367c0 158 37.833 274.5 113.5 349.5s188.834 112.5 339.501 112.5c148 0 256.5 -34 325.5 -102s103.5 -173.333 103.5 -316v-13c0 -78.667 -6.33301 -139.5 -19 -182.5
s-31.167 -73 -55.5 -90s-56.5 -25.5 -96.5 -25.5c-64 0 -104.667 20 -122 60c-65.333 -39.333 -123.333 -59 -174 -59c-56 0 -99.333 17.167 -130 51.5s-46 96.5 -46 186.5c0 65.333 6.66699 117.833 20 157.5s34.666 68.667 63.999 87s69 27.5 119 27.5
c29.333 0 61.666 -6.33301 96.999 -19l18 -7v16h75v-191c0 -115.333 3.66699 -184.666 11 -207.999c5.33301 -13.333 11.333 -22.666 18 -27.999s13.5 -8.5 20.5 -9.5s18.5 -1.5 34.5 -1.5c27.333 0 47.5 11 60.5 33s21.167 49 24.5 81s5 72.333 5 121v14
c0 83.333 -12 150.5 -36 201.5s-61.667 88.667 -113 113s-119.666 36.5 -204.999 36.5c-128.667 0 -223.5 -31.833 -284.5 -95.5s-91.5 -165.5 -91.5 -305.5c0 -95.333 12.833 -171.5 38.5 -228.5s65.834 -98.667 120.501 -125s127.334 -39.5 218.001 -39.5l143 10l3 -67
c-62.667 -6 -111.334 -9 -146.001 -9c-79.333 0 -145.5 7.5 -198.5 22.5zM616.999 106.998c-6 36 -9.00098 93.667 -9.00098 173v139c-41.333 13.333 -75.666 20 -102.999 20c-36 0 -64 -6.66699 -84 -20s-34.167 -34 -42.5 -62s-12.5 -65.667 -12.5 -113
c0 -122 35 -183 105 -183c29.333 0 78 15.333 146 46z" />
    <glyph glyph-name="A" unicode="A" horiz-adv-x="596" 
d="M446 178h-296l-50 -178h-76l190 692h168l190 -692h-76zM167 247h262l-105 379h-52z" />
    <glyph glyph-name="B" unicode="B" horiz-adv-x="616" 
d="M85 692l251 -0.000976562c70 0 121.833 -14.5 155.5 -43.5s50.5 -74.167 50.5 -135.5c0 -40.667 -7.33301 -73.167 -22 -97.5s-37 -43.833 -67 -58.5c37.333 -13.333 65 -33.333 83 -60s27 -62.667 27 -108c0 -65.333 -18.167 -113.166 -54.5 -143.499
s-89.5 -45.5 -159.5 -45.5h-264v692zM340 384.999c42 0 73 10.168 93 30.501s30 50.833 30 91.5c0 41.333 -10.333 71.166 -31 89.499s-53.667 27.5 -99 27.5h-171v-239h178zM346 68c45.333 0 79.833 9.66797 103.5 29.001s35.5 50.666 35.5 93.999
c0 46.667 -13 79.5 -39 98.5s-61 28.5 -105 28.5h-179v-250h184z" />
    <glyph glyph-name="C" unicode="C" horiz-adv-x="544" 
d="M158 29.5c-38 26.333 -63.998 64.833 -77.998 115.5s-21 117.667 -21 201c0 82.667 7 149.5 21 200.5s39.5 89.667 76.5 116s90.167 39.5 159.5 39.5c54 0 116.333 -7.33301 187 -22l-3 -65c-67.333 12 -125.333 18 -174 18c-52 0 -91.333 -9.33301 -118 -28
s-44.834 -48.667 -54.501 -90s-14.5 -101.333 -14.5 -180c0 -68 4.5 -121.167 13.5 -159.5s27.5 -67.333 55.5 -87s70.333 -29.5 127 -29.5c46 0 101 6 165 18l3 -66c-68.667 -14 -129.334 -21 -182.001 -21c-70.667 0 -125 13.167 -163 39.5z" />
    <glyph glyph-name="D" unicode="D" horiz-adv-x="645" 
d="M493.5 646c37.667 -30.667 62.833 -69.667 75.5 -117s19 -102.666 19 -165.999c0 -126.667 -20.833 -218.834 -62.5 -276.501s-106.167 -86.5 -193.5 -86.5h-247v692h247c70 0 123.833 -15.333 161.5 -46zM508.999 356c0 93.333 -14.332 161.333 -42.999 204
s-73.334 64 -134.001 64h-170v-556h170c118 0 177 96 177 288z" />
    <glyph glyph-name="E" unicode="E" horiz-adv-x="553" 
d="M162 624v-239h284v-67h-284v-250h344v-68h-421v692h421v-68h-344z" />
    <glyph glyph-name="F" unicode="F" horiz-adv-x="526" 
d="M162 624v-270h285v-68h-285v-286h-77v692h414v-68h-337z" />
    <glyph glyph-name="G" unicode="G" horiz-adv-x="616" 
d="M166.5 28c-39 25.333 -67.001 63.833 -84.001 115.5s-25.5 119.167 -25.5 202.5c0 82.667 8.5 150 25.5 202s44.833 90.667 83.5 116s91 38 157 38c60 0 124.333 -6.66699 193 -20l34 -6l-3 -64c-82.667 14 -154.334 21 -215.001 21c-50.667 0 -90.167 -9.5 -118.5 -28.5
s-48.166 -49 -59.499 -90s-17 -97.167 -17 -168.5s5.66699 -127.5 17 -168.5s31 -71.167 59 -90.5s67.333 -29 118 -29c44.667 0 92.334 4.66699 143.001 14v213h-115v69h191v-340c-84 -16 -159 -24 -225 -24c-66.667 0 -119.5 12.667 -158.5 38z" />
    <glyph glyph-name="H" unicode="H" horiz-adv-x="675" 
d="M590 692v-692h-76v313h-352v-313h-77v692h77v-310h352v310h76z" />
    <glyph glyph-name="I" unicode="I" horiz-adv-x="246" 
d="M85 692h77v-692h-77v692z" />
    <glyph glyph-name="J" unicode="J" horiz-adv-x="289" 
d="M18 -3c34.667 0 59.3301 2.33203 73.9971 6.99902s24.834 14.334 30.501 29.001s8.5 39 8.5 73v586h76l1 -597c0 -50.667 -7.16699 -88 -21.5 -112s-34.166 -39.167 -59.499 -45.5s-61.666 -9.5 -108.999 -9.5v69z" />
    <glyph glyph-name="K" unicode="K" horiz-adv-x="569" 
d="M277 306l-115 -4v-302h-77v692h77v-322l114 4l177 318h88l-198 -348l209 -344h-91z" />
    <glyph glyph-name="L" unicode="L" horiz-adv-x="479" 
d="M466 69v-69h-381v692h77v-623h304z" />
    <glyph glyph-name="M" unicode="M" horiz-adv-x="840" 
d="M755 692v-692h-77v610h-14l-201 -585h-86l-201 585h-14v-610h-77v692h139l196 -586l196 586h139z" />
    <glyph glyph-name="N" unicode="N" horiz-adv-x="676" 
d="M591 692v-692h-141l-269 624h-19v-624h-77v692h144l266 -624h20v624h76z" />
    <glyph glyph-name="O" unicode="O" horiz-adv-x="660" 
d="M168 27c-40 24.667 -68.499 62.502 -85.499 113.502s-25.5 118.5 -25.5 202.5c0 83.333 8.66699 151.166 26 203.499s46 91.333 86 117s93.667 38.5 161 38.5s121 -12.833 161 -38.5s68.833 -64.667 86.5 -117s26.5 -120.833 26.5 -205.5s-8.5 -152.334 -25.5 -203.001
s-45.333 -88 -85 -112s-93.834 -36 -162.501 -36s-123 12.333 -163 37zM448.501 86.002c27.667 18.667 47.167 48.167 58.5 88.5s17 95.833 17 166.5s-5.83301 127 -17.5 169s-31.5 73.167 -59.5 93.5s-67 30.5 -117 30.5s-89 -10 -117 -30s-47.833 -51 -59.5 -93
s-17.5 -98 -17.5 -168s5.66699 -125.5 17 -166.5s31.166 -71 59.499 -90s67.833 -28.5 118.5 -28.5s89.834 9.33301 117.501 28z" />
    <glyph glyph-name="P" unicode="P" horiz-adv-x="593" 
d="M85 692h253c75.333 0 131 -18.167 167 -54.5s54 -92.5 54 -168.5c0 -157.333 -73.667 -236 -221 -236h-176v-233h-77v692zM337 301c95.333 0 143 56 143 168c0 54 -11.333 93.333 -34 118s-59 37 -109 37h-175v-323h175z" />
    <glyph glyph-name="Q" unicode="Q" horiz-adv-x="660" 
d="M414 -1c-22 -6 -49.999 -9 -83.999 -9c-68.667 0 -122.834 12.333 -162.501 37s-68 62.5 -85 113.5s-25.5 118.5 -25.5 202.5c0 83.333 8.66699 151.166 26 203.499s46 91.333 86 117s93.667 38.5 161 38.5s121 -12.833 161 -38.5s68.833 -64.667 86.5 -117
s26.5 -120.166 26.5 -203.499c0 -86 -8.83301 -154.333 -26.5 -205s-47.167 -88 -88.5 -112l85 -137l-72 -34zM448.501 86c27.667 18.667 47.167 48.167 58.5 88.5s17 95.833 17 166.5s-5.83301 127 -17.5 169s-31.5 73.167 -59.5 93.5s-67 30.5 -117 30.5s-89 -10 -117 -30
s-47.833 -51 -59.5 -93s-17.5 -98 -17.5 -168s5.66699 -125.5 17 -166.5s31.166 -71 59.499 -90s67.833 -28.5 118.5 -28.5s89.834 9.33301 117.501 28z" />
    <glyph glyph-name="R" unicode="R" horiz-adv-x="616" 
d="M85 692l256 -0.000976562c74 0 129.333 -17.167 166 -51.5s55 -87.166 55 -158.499c0 -107.333 -42.333 -174.333 -127 -201l133 -281h-85l-125 265h-196v-265h-77v692zM342 332.999c94 0 141 48.667 141 146c0 96.667 -47.333 145 -142 145h-179v-291h180z" />
    <glyph glyph-name="S" unicode="S" horiz-adv-x="542" 
d="M90 8l-36 4.99805l8 64c91.333 -12 160.333 -18 207 -18c98.667 0 148 46.333 148 139c0 25.333 -4.5 45.333 -13.5 60s-24.333 26.667 -46 36s-53.167 18 -94.5 26c-54.667 11.333 -97.167 24.333 -127.5 39s-52.5 34.334 -66.5 59.001s-21 57.667 -21 99
c0 124 74.333 186 223 186c51.333 0 121 -6.66699 209 -20l-7 -65c-96 11.333 -161.667 17 -197 17c-100 0 -150 -37.667 -150 -113c0 -28.667 4.83301 -50.5 14.5 -65.5s26.167 -27.167 49.5 -36.5s60.333 -19.666 111 -30.999c49.333 -11.333 87.5 -24 114.5 -38
s46.833 -32.5 59.5 -55.5s19 -53.5 19 -91.5c0 -142 -73.667 -213 -221 -213c-46.667 0 -107.667 5.66699 -183 17z" />
    <glyph glyph-name="T" unicode="T" horiz-adv-x="526" 
d="M226 623h-213v69h500v-69h-211v-623h-76v623z" />
    <glyph glyph-name="U" unicode="U" horiz-adv-x="644" 
d="M139.5 42.5c-39.667 35 -59.501 90.833 -59.501 167.5v482h77v-484c0 -100 54 -150 162 -150c56.667 0 99 12 127 36s42 62 42 114v484h76v-482c0 -76 -20.167 -131.667 -60.5 -167s-101.166 -53 -182.499 -53s-141.833 17.5 -181.5 52.5z" />
    <glyph glyph-name="V" unicode="V" horiz-adv-x="582" 
d="M24 692h80l159 -624h56l159 624h80l-181 -692h-172z" />
    <glyph glyph-name="W" unicode="W" horiz-adv-x="886" 
d="M30 692h80l118 -624h29l141 618h90l141 -618h29l118 624h79l-140 -692h-141l-131 591l-131 -591h-141z" />
    <glyph glyph-name="X" unicode="X" horiz-adv-x="558" 
d="M233 339l-214 353h87l175 -296l176 296h83l-213 -351l213 -341h-87l-174 287l-177 -287h-83z" />
    <glyph glyph-name="Y" unicode="Y" horiz-adv-x="538" 
d="M231 291l-221 401h87l172 -324l172 324h87l-220 -401v-291h-77v291z" />
    <glyph glyph-name="Z" unicode="Z" horiz-adv-x="536" 
d="M43 88l361 514v22h-361v68h450v-90l-362 -514v-20h362v-69h-450v89z" />
    <glyph glyph-name="bracketleft" unicode="[" horiz-adv-x="329" 
d="M79 749h210v-67h-134v-738h134v-67h-210v872z" />
    <glyph glyph-name="backslash" unicode="\" horiz-adv-x="436" 
d="M30 678l67 29l308 -693l-67 -28z" />
    <glyph glyph-name="bracketright" unicode="]" horiz-adv-x="329" 
d="M40 -123v67h134v738h-134v67h210v-872h-210z" />
    <glyph glyph-name="asciicircum" unicode="^" 
d="M243 660h67l191 -341h-80l-143 267l-140 -267h-80z" />
    <glyph glyph-name="underscore" unicode="_" horiz-adv-x="632" 
d="M102 -92h428v-66h-428v66z" />
    <glyph glyph-name="grave" unicode="`" horiz-adv-x="236" 
d="M-1 676l26 64l216 -98l-21 -51z" />
    <glyph glyph-name="a" unicode="a" horiz-adv-x="501" 
d="M76 29c-24 26 -35.999 63.335 -35.999 112.002c0 48 12.167 83.667 36.5 107s63.166 37.666 116.499 42.999l157 15v43c0 63.333 -27.333 95 -82 95c-54 0 -119.667 -4.33301 -197 -13l-3 57c71.333 14.667 136.333 22 195 22c56.667 0 97.834 -12.833 123.501 -38.5
s38.5 -66.5 38.5 -122.5v-256c2 -24.667 21.333 -39.334 58 -44.001l-3 -59c-52.667 0 -92.334 13.333 -119.001 40c-59.333 -26.667 -119.333 -40 -180 -40c-46 0 -81 13 -105 39zM327.001 76.002l22.999 8.00098v165l-148 -14c-30 -2.66699 -51.667 -11.334 -65 -26.001
s-20 -36 -20 -64c0 -61.333 25.333 -92 76 -92c44.667 0 89.334 7.66699 134.001 23z" />
    <glyph glyph-name="b" unicode="b" horiz-adv-x="526" 
d="M100 -2l-28 3v717h74v-243c52 23.333 102.667 35 152 35c44 0 78.667 -8.5 104 -25.5s43.833 -44.167 55.5 -81.5s17.5 -87.333 17.5 -150c0 -68.667 -7.33301 -121.667 -22 -159s-39.167 -63.833 -73.5 -79.5s-82.833 -23.5 -145.5 -23.5c-44 0 -88.667 2.33301 -134 7z
M339 76.5c22.667 13 38.333 33.5 47 61.5s13 67 13 117c0 47.333 -3.66699 84.5 -11 111.5s-19.5 46.5 -36.5 58.5s-40.5 18 -70.5 18c-36.667 0 -81.667 -9.66699 -135 -29v-352c48 -3.33301 80 -5 96 -5c42 0 74.333 6.5 97 19.5z" />
    <glyph glyph-name="c" unicode="c" horiz-adv-x="436" 
d="M133 16.5c-29.333 17.667 -50.335 45.334 -63.002 83.001s-19 87.834 -19 150.501c0 79.333 13.333 142.666 40 189.999s78.334 71 155.001 71c20 0 40.667 -1 62 -3s50.333 -6.33301 87 -13l-3 -61c-52.667 6 -93 9 -121 9c-38 0 -67.167 -5.83301 -87.5 -17.5
s-34.666 -31.334 -42.999 -59.001s-12.5 -67.167 -12.5 -118.5c0 -48.667 4 -86.5 12 -113.5s22.5 -46.667 43.5 -59s51.5 -18.5 91.5 -18.5l118 9l3 -62c-64 -9.33301 -112 -14 -144 -14c-50 0 -89.667 8.83301 -119 26.5z" />
    <glyph glyph-name="d" unicode="d" horiz-adv-x="529" 
d="M91 51.5c-27.333 41 -41.001 104.167 -41.001 189.5c0 95.333 16.5 164 49.5 206s87.5 63 163.5 63c38 0 77.667 -4.33301 119 -13v221h74v-718h-74v34c-51.333 -29.333 -103 -44 -155 -44c-63.333 0 -108.666 20.5 -135.999 61.5zM303.999 65.5
c22.667 5.66699 42 12.168 58 19.501l20 9v339c-43.333 8 -81 12 -113 12c-52.667 0 -89.5 -15.333 -110.5 -46s-31.5 -81.334 -31.5 -152.001c0 -64.667 8.5 -112.5 25.5 -143.5s46.5 -46.5 88.5 -46.5c19.333 0 40.333 2.83301 63 8.5z" />
    <glyph glyph-name="e" unicode="e" horiz-adv-x="505" 
d="M97.5 49.5c-31.667 39.667 -47.5 102.163 -47.5 187.496c0 92.667 17 161.334 51 206.001s87.333 67 160 67c66.667 0 116.5 -19.167 149.5 -57.5s49.5 -97.166 49.5 -176.499l-4 -57h-330c0 -41.333 4.5 -73.666 13.5 -96.999s24.333 -40.166 46 -50.499
s51.834 -15.5 90.501 -15.5c19.333 0 41.666 0.5 66.999 1.5s48.333 2.5 69 4.5l29 3l2 -59c-74 -10.667 -135.333 -16 -184 -16c-76 0 -129.833 19.833 -161.5 59.5zM385 278.996c0 60.667 -9.66699 103.833 -29 129.5s-51 38.5 -95 38.5c-46 0 -80 -13.5 -102 -40.5
s-33.333 -69.5 -34 -127.5h260z" />
    <glyph glyph-name="f" unicode="f" horiz-adv-x="331" 
d="M93 435l-62.999 0.00195312v65h63v45c0 47.333 4.33301 84.166 13 110.499s22.667 45 42 56s46 16.5 80 16.5l101 -7l-1 -62c-42 1.33301 -67.833 2.16602 -77.5 2.49902s-15.834 0.5 -18.501 0.5c-24.667 0 -41.5 -10 -50.5 -30s-13.5 -49.333 -13.5 -88v-44h145v-65
h-145v-435h-75v435z" />
    <glyph glyph-name="g" unicode="g" horiz-adv-x="514" 
d="M96.5 -201.5c-31 22.333 -46.5 59.4941 -46.5 111.494c0 21.333 2.5 38.833 7.5 52.5s12.833 25.834 23.5 36.501s26.667 24.334 48 41.001c-9.33301 6 -16.333 15 -21 27s-7 24.667 -7 38c0 8.66699 2 18.167 6 28.5s13.333 28.5 28 54.5
c-52.667 23.333 -79 73.333 -79 150c0 58 15.667 101.167 47 129.5s78.666 42.5 141.999 42.5c30.667 0 64.667 -4.33301 102 -13l148 4v-64l-95 2c11.333 -11.333 19.666 -25.166 24.999 -41.499s8 -37.166 8 -62.499c0 -59.333 -15.333 -101.666 -46 -126.999
s-79 -38 -145 -38c-20.667 0 -37.667 1.33301 -51 4c-5.33301 -13.333 -9.66602 -25 -12.999 -35s-5 -18.667 -5 -26c0 -17.333 6.83301 -28.666 20.5 -33.999s34.834 -8 63.501 -8h39c44 0 79.5 -3.33301 106.5 -10s47.833 -20.167 62.5 -40.5s22 -49.833 22 -88.5
c0 -58 -18 -100.333 -54 -127s-95.333 -40 -178 -40c-74.667 0 -127.5 11.167 -158.5 33.5zM332 254.994c17.333 16.667 25.999 45 25.999 85c0 39.333 -8.66699 67.333 -26 84s-46 25 -86 25c-41.333 0 -70.833 -8.5 -88.5 -25.5s-26.5 -45.167 -26.5 -84.5
s8.83301 -67.333 26.5 -84s46.834 -25 87.501 -25s69.667 8.33301 87 25zM377.999 -149.506c22 15 33 40.833 33 77.5c0 21.333 -3.66699 37.5 -11 48.5s-19.666 18.5 -36.999 22.5s-42.333 6 -75 6l-108 5c-22 -16 -36.833 -30 -44.5 -42s-11.5 -28 -11.5 -48
c0 -34.667 10.167 -58.667 30.5 -72s56.166 -20 107.499 -20c55.333 0 94 7.5 116 22.5z" />
    <glyph glyph-name="h" unicode="h" horiz-adv-x="537" 
d="M72 718h75.001v-246c29.333 13.333 56.5 23 81.5 29s50.5 9 76.5 9c43.333 0 76.833 -7.83301 100.5 -23.5s40.334 -41.167 50.001 -76.5s14.5 -84 14.5 -146v-264h-75v262c0 49.333 -2.83301 86.5 -8.5 111.5s-16.334 42.833 -32.001 53.5s-38.834 16 -69.501 16
c-38 0 -77.667 -7.66699 -119 -23l-19 -7v-413h-75v718z" />
    <glyph glyph-name="i" unicode="i" horiz-adv-x="218" 
d="M72 500h74v-500h-74v500zM72 700h74v-87h-74v87z" />
    <glyph glyph-name="j" unicode="j" horiz-adv-x="219" 
d="M-49 -165c36 20.667 62.333 38.5 79 53.5s28 31.5 34 49.5s9 43 9 75v487h74v-488c0 -42 -4.66699 -75.833 -14 -101.5s-25.5 -48.5 -48.5 -68.5s-57.5 -41.667 -103.5 -65zM73 700h74v-87h-74v87z" />
    <glyph glyph-name="k" unicode="k" horiz-adv-x="479" 
d="M72 718h75v-424l78 4l143 202h85l-163 -230l170 -270h-85l-149 232l-79 -3v-229h-75v718z" />
    <glyph glyph-name="l" unicode="l" horiz-adv-x="231" 
d="M78 718h75v-718h-75v718z" />
    <glyph glyph-name="m" unicode="m" horiz-adv-x="836" 
d="M72 500l73.9971 -0.000976562v-35c50 30 100 45 150 45c27.333 0 52 -4.16699 74 -12.5s39.333 -21.166 52 -38.499c24.667 14.667 53.667 26.834 87 36.501s67.333 14.5 102 14.5c40.667 0 72.334 -8.16699 95.001 -24.5s38.834 -42.166 48.501 -77.499
s14.5 -83.333 14.5 -144v-264h-75v262c0 47.333 -2.66699 83.666 -8 108.999s-15.166 43.666 -29.499 54.999s-35.5 17 -63.5 17c-22.667 0 -45.667 -2.83301 -69 -8.5s-42.333 -12.167 -57 -19.5l-19 -9c8.66699 -21.333 13 -70 13 -146v-260h-75v258
c0 49.333 -2.66699 86.833 -8 112.5s-15 44.167 -29 55.5s-35 17 -63 17c-22 0 -44.333 -2.83301 -67 -8.5s-41 -12.167 -55 -19.5l-17 -9v-406h-75v500z" />
    <glyph glyph-name="n" unicode="n" horiz-adv-x="537" 
d="M72 500l74.0029 0.000976562v-35c30 16.667 57.5 28.334 82.5 35.001s51.167 10 78.5 10c42.667 0 75.667 -8 99 -24s39.833 -41.5 49.5 -76.5s14.5 -83.5 14.5 -145.5v-264h-74v262c0 47.333 -2.83301 83.666 -8.5 108.999s-15.834 43.666 -30.501 54.999s-36 17 -64 17
c-22.667 0 -45.834 -2.83301 -69.501 -8.5s-42.834 -12.167 -57.501 -19.5l-19 -9v-406h-75v500z" />
    <glyph glyph-name="o" unicode="o" horiz-adv-x="528" 
d="M137 16.5c-31.333 17.667 -53.668 45.168 -67.001 82.501s-20 86.666 -20 147.999c0 63.333 7 114.166 21 152.499s36.667 66.333 68 84s73 26.5 125 26.5c52.667 0 94.5 -9 125.5 -27s53.5 -46 67.5 -84s21 -88.667 21 -152c0 -61.333 -6.66699 -110.666 -20 -147.999
s-35.5 -64.833 -66.5 -82.5s-73.5 -26.5 -127.5 -26.5c-53.333 0 -95.666 8.83301 -126.999 26.5zM348.998 73.501c19.333 12.333 32.832 31.999 40.499 58.999s11.5 65.167 11.5 114.5c0 52 -4 92 -12 120s-21.667 48 -41 60s-47 18 -83 18s-63.833 -6 -83.5 -18
s-33.667 -32 -42 -60s-12.5 -68 -12.5 -120c0 -48.667 3.83301 -86.667 11.5 -114s21.334 -47.166 41.001 -59.499s48.167 -18.5 85.5 -18.5c36.667 0 64.667 6.16699 84 18.5z" />
    <glyph glyph-name="p" unicode="p" horiz-adv-x="527" 
d="M72 500l74 -0.000976562v-36c26 15.333 51.167 26.833 75.5 34.5s50.166 11.5 77.499 11.5c62 0 107.167 -20.5 135.5 -61.5s42.5 -106.167 42.5 -195.5c0 -63.333 -7.33301 -114.166 -22 -152.499s-38 -66.333 -70 -84s-75 -26.5 -129 -26.5
c-37.333 0 -73.666 3.66699 -108.999 11v-223h-75v722zM368 100.999c22 30.667 32.999 80.332 32.999 148.999c0 68 -9.5 117.167 -28.5 147.5s-47.833 45.5 -86.5 45.5c-19.333 0 -40.166 -3.16699 -62.499 -9.5s-41.5 -13.166 -57.5 -20.499l-19 -10v-337
c49.333 -7.33301 86 -11 110 -11c52 0 89 15.333 111 46z" />
    <glyph glyph-name="q" unicode="q" horiz-adv-x="526" 
d="M379 23c-46.667 -22 -94.667 -32.999 -144 -32.999c-65.333 0 -112.5 19.833 -141.5 59.5s-43.5 105.167 -43.5 196.5c0 64.667 7.5 116.167 22.5 154.5s39.5 66.166 73.5 83.499s80.667 26 140 26l167 -10v-722h-74v245zM361 79.001l18 7v353c-40.667 4 -72 6 -94 6
c-41.333 0 -73.5 -7 -96.5 -21s-39.167 -35.333 -48.5 -64s-14 -67 -14 -115c0 -68 9.33301 -116.333 28 -145s50.667 -43 96 -43c36.667 0 73.667 7.33301 111 22z" />
    <glyph glyph-name="r" unicode="r" horiz-adv-x="346" 
d="M72 500l74 0.000976562v-68c57.333 39.333 118.333 65.666 183 78.999v-76c-26 -5.33301 -54.167 -13.5 -84.5 -24.5s-54.5 -21.167 -72.5 -30.5l-25 -13v-367h-75v500z" />
    <glyph glyph-name="s" unicode="s" horiz-adv-x="465" 
d="M82 4l-29.999 4.99805l4 65c78 -11.333 135.333 -17 172 -17c40 0 69.833 6.5 89.5 19.5s29.5 33.833 29.5 62.5c0 20.667 -4.83301 36.334 -14.5 47.001s-22 18.334 -37 23.001s-36.167 9 -63.5 13l-25 4c-40 6.66699 -71.333 14.667 -94 24s-39.667 22.5 -51 39.5
s-17 40.5 -17 70.5c0 54 16.333 92.333 49 115s79 34 139 34c47.333 0 95.666 -4.33301 144.999 -13l28 -5l-2 -64c-72 10.667 -128.333 16 -169 16c-38.667 0 -67.5 -6 -86.5 -18s-28.5 -30.667 -28.5 -56c0 -18 4.66699 -31.833 14 -41.5s21.5 -16.667 36.5 -21
s36.167 -8.83301 63.5 -13.5l25 -5c41.333 -7.33301 73.333 -15.833 96 -25.5s39.5 -23.5 50.5 -41.5s16.5 -43 16.5 -75c0 -54 -15.833 -93.5 -47.5 -118.5s-80.167 -37.5 -145.5 -37.5c-40 0 -89 4.66699 -147 14z" />
    <glyph glyph-name="t" unicode="t" horiz-adv-x="351" 
d="M151.5 5.5c-19 11 -32.667 29.667 -41 56s-12.5 63.166 -12.5 110.499v263h-71v65h71v153h74v-153h159v-65h-159v-239c0 -37.333 1.33301 -65.166 4 -83.499s9.16699 -32.333 19.5 -42s26.5 -14.5 48.5 -14.5l89 6l5 -62c-47.333 -7.33301 -83 -11 -107 -11
c-34 0 -60.5 5.5 -79.5 16.5z" />
    <glyph glyph-name="u" unicode="u" horiz-adv-x="531" 
d="M129.5 13.5c-23 15.667 -39.168 41.167 -48.501 76.5s-14 85 -14 149v261h75v-260c0 -50 2.66699 -87.667 8 -113s15 -43.333 29 -54s35.667 -16 65 -16c45.333 0 92 12.333 140 37v406h75v-500h-75v35c-27.333 -16 -52.666 -27.5 -75.999 -34.5s-50 -10.5 -80 -10.5
c-42.667 0 -75.5 7.83301 -98.5 23.5z" />
    <glyph glyph-name="v" unicode="v" horiz-adv-x="481" 
d="M25 500h80l117 -435h37l121 435h77l-141 -500h-150z" />
    <glyph glyph-name="w" unicode="w" horiz-adv-x="762" 
d="M31 500h75l101 -435h16l119 425h78l119 -425h17l100 435h75l-119 -500h-125l-106 391l-106 -391h-125z" />
    <glyph glyph-name="x" unicode="x" horiz-adv-x="452" 
d="M179 250l-157 250h82l122 -196l122 196h82l-159 -248l158 -252h-82l-121 195l-122 -195h-82z" />
    <glyph glyph-name="y" unicode="y" horiz-adv-x="483" 
d="M241 0h-74l-142 500h75l125 -435h33l126 435h75l-208 -722h-75z" />
    <glyph glyph-name="z" unicode="z" horiz-adv-x="455" 
d="M42 67l280 366h-280v67h371v-67l-280 -366h280v-67h-371v67z" />
    <glyph glyph-name="braceleft" unicode="{" horiz-adv-x="352" 
d="M166.5 -83.5c-28.333 27 -42.501 70.4971 -42.501 130.497l7 122c0 28.667 -8.33301 51.834 -25 69.501s-44 31.834 -82 42.501v61c37.333 8.66699 64.5 21.834 81.5 39.501s25.5 40.834 25.5 69.501l-7 128c0 61.333 14.167 105.333 42.5 132s76.5 41.334 144.5 44.001
l1 -65c-42.667 -2.66699 -72.5 -12.834 -89.5 -30.501s-25.5 -45.834 -25.5 -84.501l7 -123c0 -29.333 -3 -52.5 -9 -69.5s-16.5 -31 -31.5 -42s-36.5 -20.5 -64.5 -28.5c40 -12 67.5 -28.167 82.5 -48.5s22.5 -51.5 22.5 -93.5l-7 -116c0 -38.667 8.5 -67.167 25.5 -85.5
s46.833 -28.833 89.5 -31.5l-2 -65c-67.333 2.66699 -115.166 17.5 -143.499 44.5z" />
    <glyph glyph-name="bar" unicode="|" horiz-adv-x="230" 
d="M78 718h74v-940h-74v940z" />
    <glyph glyph-name="braceright" unicode="}" horiz-adv-x="352" 
d="M40 -63c42.667 2.66699 72.499 13.1699 89.499 31.5029s25.5 46.833 25.5 85.5l-7 116c0 42 7.5 73.167 22.5 93.5s42.5 36.5 82.5 48.5c-28 8 -49.5 17.5 -64.5 28.5s-25.5 25 -31.5 42s-9 40.167 -9 69.5l7 123c0 38.667 -8.5 66.834 -25.5 84.501
s-46.833 27.834 -89.5 30.501l1 65c68 -2.66699 116.167 -17.334 144.5 -44.001s42.5 -70.667 42.5 -132l-7 -128c0 -28.667 8.5 -51.834 25.5 -69.501s44.167 -30.834 81.5 -39.501v-61c-38 -10.667 -65.333 -24.834 -82 -42.501s-25 -40.834 -25 -69.501l7 -122
c0 -60 -14.167 -103.5 -42.5 -130.5s-76.166 -41.833 -143.499 -44.5z" />
    <glyph glyph-name="asciitilde" unicode="~" 
d="M277 226c-50 20.667 -81.334 31 -94.001 31c-11.333 0 -25.666 -3.66699 -42.999 -11s-32.333 -15.333 -45 -24l-17 -12l-11 62c41.333 35.333 80 53 116 53c19.333 0 54 -10 104 -30c48 -20.667 79 -31 93 -31c24 0 53.333 11.333 88 34l17 12l10 -61
c-42 -36 -80.667 -54 -116 -54c-18.667 0 -52.667 10.333 -102 31z" />
    <glyph glyph-name="uni00A0" unicode="&#xa0;" horiz-adv-x="220" 
 />
    <glyph glyph-name="exclamdown" unicode="&#xa1;" horiz-adv-x="228" 
d="M154 500v-112h-82v112h82zM147 272l5 -464h-79l5 464h69z" />
    <glyph glyph-name="cent" unicode="&#xa2;" 
d="M278 36c-62.667 3.33301 -107.834 21.001 -135.501 53.001s-41.5 84.333 -41.5 157c0 73.333 14.333 127.333 43 162s73.334 53.667 134.001 57v118h65v-121l101 -12l-3 -60c-49.333 4.66699 -92.333 7 -129 7c-49.333 0 -83.833 -11.167 -103.5 -33.5
s-29.5 -60.833 -29.5 -115.5c0 -37.333 4.16699 -66.333 12.5 -87s22.5 -35.5 42.5 -44.5s48 -13.5 84 -13.5l124 7l3 -61c-42.667 -6.66699 -76.667 -10.334 -102 -11.001v-119h-65v117z" />
    <glyph glyph-name="sterling" unicode="&#xa3;" 
d="M80 66h84.999v286h-67v65h67v55c0 52 4.83301 92.167 14.5 120.5s25 48.333 46 60s50.167 17.5 87.5 17.5c35.333 0 72.333 -4 111 -12l22 -5l-1 -61c-55.333 7.33301 -97.333 11 -126 11c-21.333 0 -37.666 -4 -48.999 -12s-19.5 -21.667 -24.5 -41s-7.5 -47 -7.5 -83
v-50h171v-65h-171v-286h154l77 16l13 -64l-82 -18h-320v66z" />
    <glyph glyph-name="currency" unicode="&#xa4;" 
d="M58 83l70 70c-19.333 30.667 -29 63.334 -29 98.001c0 35.333 9.66699 68.666 29 99.999l-70 70l53 53l70 -71c29.333 20 62 30 98 30s69.333 -10 100 -30l70 71l53 -53l-71 -70c20 -30.667 30 -64 30 -100s-10 -68.667 -30 -98l71 -70l-53 -53l-70 71
c-30.667 -20 -64 -30 -100 -30s-68.667 10 -98 30l-70 -71zM361 171c22.667 22.667 34 49.667 34 81s-11.333 58.333 -34 81s-49.667 34 -81 34s-58.333 -11.333 -81 -34s-34 -49.667 -34 -81s11.333 -58.333 34 -81s49.667 -34 81 -34s58.333 11.333 81 34z" />
    <glyph glyph-name="yen" unicode="&#xa5;" 
d="M243 163h-185v65h185v87h-186v65h140l-174 280h86l172 -270l170 270h86l-171 -280h136v-65h-182v-87h183v-65h-183v-163h-77v163z" />
    <glyph glyph-name="brokenbar" unicode="&#xa6;" horiz-adv-x="234" 
d="M80 718h74v-374h-74v374zM80 156h74v-378h-74v378z" />
    <glyph glyph-name="section" unicode="&#xa7;" horiz-adv-x="499" 
d="M100 -138l-29.998 4.99805l7 63c73.333 -10 128 -15 164 -15c82 0 123 33 123 99c0 29.333 -9.66699 49.666 -29 60.999c-20 10.667 -59 21.334 -117 32.001c-40.667 7.33301 -72.834 16.666 -96.501 27.999s-41.167 26.5 -52.5 45.5s-17 43.833 -17 74.5
c0 23.333 6.5 47.666 19.5 72.999s25.833 43 38.5 53c-29.333 21.333 -44 58.333 -44 111c0 106 64 159 192 159c36 0 82 -4.33301 138 -13l26 -4l-4 -63c-73.333 10 -128.333 15 -165 15c-38 0 -66.5 -7.5 -85.5 -22.5s-28.5 -38.167 -28.5 -69.5
c0 -21.333 4.33301 -38 13 -50s23 -21.667 43 -29s50 -14.666 90 -21.999c39.333 -7.33301 70.166 -16.166 92.499 -26.499s38.833 -24.666 49.5 -42.999s16 -42.5 16 -72.5c0 -45.333 -14.667 -89.666 -44 -132.999c24.667 -20.667 37 -54 37 -100
c0 -112 -63.667 -168 -191 -168c-42.667 0 -91 4 -145 12zM358.002 185.498c6 20.333 9.00195 41.167 9.00195 62.5c0 24 -8.33301 42 -25 54s-46.667 22 -90 30c-40.667 6.66699 -71.334 14 -92.001 22c-22 -36.667 -33 -67.667 -33 -93c0 -26 8.33301 -45.333 25 -58
s47.667 -23 93 -31c47.333 -9.33301 79.666 -18 96.999 -26c4.66699 6 10 19.167 16 39.5z" />
    <glyph glyph-name="dieresis" unicode="&#xa8;" horiz-adv-x="236" 
d="M-12 711h72v-90h-72v90zM188 711h73v-90h-73v90z" />
    <glyph glyph-name="copyright" unicode="&#xa9;" horiz-adv-x="645" 
d="M188.5 197c-40.333 24 -71.999 57.001 -94.999 99.001s-34.5 88.333 -34.5 139s11.5 96.667 34.5 138s54.5 74 94.5 98s85 36 135 36s95 -12.167 135 -36.5s71.333 -57.333 94 -99s34 -87.834 34 -138.501s-11.333 -96.667 -34 -138s-53.834 -74 -93.501 -98
s-84.5 -36 -134.5 -36s-95.167 12 -135.5 36zM433.501 235.501c33.667 20.333 60.1641 48.001 79.4971 83.001s29 73.5 29 115.5s-9.66699 80.667 -29 116s-45.666 63.166 -78.999 83.499s-70.333 30.5 -111 30.5c-62.667 0 -115 -22.333 -157 -67s-63 -99 -63 -163
c0 -42 9.5 -80.5 28.5 -115.5s45.333 -62.667 79 -83s70.834 -30.5 111.501 -30.5s77.834 10.167 111.501 30.5zM235.498 313.002c-17.667 24.667 -26.5 65 -26.5 121s9 96.167 27 120.5s48.333 36.5 91 36.5c26 0 48.333 -2.33301 67 -7l10 -3l-4 -53
c-24.667 4 -48.667 6 -72 6c-22.667 0 -38 -7.16699 -46 -21.5s-12 -39.833 -12 -76.5c0 -37.333 4.33301 -63.833 13 -79.5s24.334 -23.5 47.001 -23.5l70 7l4 -52c-24.667 -8 -50.667 -12 -78 -12c-42.667 0 -72.834 12.333 -90.501 37z" />
    <glyph glyph-name="ordfeminine" unicode="&#xaa;" horiz-adv-x="386" 
d="M77.5 381.5c-15.667 16.333 -23.5 38.833 -23.5 67.5c0 53.333 32 82 96 86l88 6v22c0 14 -4 24.167 -12 30.5s-20.333 9.5 -37 9.5l-115 -7l-2 48c46 10 87 15 123 15c36.667 0 63.667 -7.5 81 -22.5s26 -40.5 26 -76.5v-137c6.66699 -7.33301 16.667 -13 30 -17l-2 -49
c-24.667 0 -42.5 1.83301 -53.5 5.5s-20.833 10.5 -29.5 20.5c-38 -17.333 -71.667 -26 -101 -26c-30 0 -52.833 8.16699 -68.5 24.5zM238 428v67l-77 -5c-14.667 -1.33301 -25.167 -5 -31.5 -11s-9.5 -15.667 -9.5 -29c0 -26 12 -39 36 -39c20.667 0 48 5.66699 82 17z" />
    <glyph glyph-name="guillemotleft" unicode="&#xab;" horiz-adv-x="539" 
d="M45 218v60l189 143v-77l-124 -94l124 -105v-78zM283 218v60l189 143v-77l-124 -94l124 -105v-78z" />
    <glyph glyph-name="logicalnot" unicode="&#xac;" 
d="M423 274h-358v68h428v-225h-70v157z" />
    <glyph glyph-name="registered" unicode="&#xae;" horiz-adv-x="645" 
d="M188.5 197c-40.333 24 -71.999 57.002 -94.999 99.002s-34.5 88.333 -34.5 139s11.5 96.667 34.5 138s54.5 74 94.5 98s85 36 135 36s95 -12 135 -36s71.333 -56.833 94 -98.5s34 -87.834 34 -138.501s-11.333 -96.834 -34 -138.501s-53.834 -74.5 -93.501 -98.5
s-84.5 -36 -134.5 -36s-95.167 12 -135.5 36zM434.001 235.502c33.333 20.333 59.666 48 78.999 83s29 73.5 29 115.5s-9.66699 80.667 -29 116s-45.666 63.166 -78.999 83.499s-70.333 30.5 -111 30.5s-77.834 -10.167 -111.501 -30.5s-60.167 -48 -79.5 -83
s-29 -73.5 -29 -115.5s9.66699 -80.667 29 -116s45.833 -63.166 79.5 -83.499s70.834 -30.5 111.501 -30.5s77.667 10.167 111 30.5zM213.001 585.002l110.001 -0.000976562c76 0 114 -29.333 114 -88c0 -29.333 -3.83301 -51.166 -11.5 -65.499
s-20.834 -25.833 -39.501 -34.5l55 -115h-61l-50 107h-59v-107h-58v303zM329.002 436.001c18 0 31 4 39 12s12 21 12 39c0 34 -20.667 51 -62 51h-48v-102h59z" />
    <glyph glyph-name="macron" unicode="&#xaf;" horiz-adv-x="236" 
d="M-14 683h275v-59h-275v59z" />
    <glyph glyph-name="degree" unicode="&#xb0;" 
d="M177.5 459c-26.333 26 -39.5 60 -39.5 102s13.167 76 39.5 102s60.5 39 102.5 39s76.167 -13 102.5 -39s39.5 -60 39.5 -102s-13.167 -76 -39.5 -102s-60.5 -39 -102.5 -39s-76.167 13 -102.5 39zM347 493.5c17.333 17 26 39.5 26 67.5
c0 27.333 -8.66699 49.666 -26 66.999s-39.666 26 -66.999 26s-49.333 -8.66699 -66 -26s-25 -39.666 -25 -66.999c0 -28 8.33301 -50.5 25 -67.5s38.667 -25.5 66 -25.5s49.666 8.5 66.999 25.5z" />
    <glyph glyph-name="plusminus" unicode="&#xb1;" 
d="M244 293h-189v68h189v126h70v-126h191v-68h-191v-127h-70v127zM55 106h450v-68h-450v68z" />
    <glyph glyph-name="uni00B2" unicode="&#xb2;" horiz-adv-x="280" 
d="M30 533l87.999 86.999c34 33.333 51 61 51 83c0 24.667 -16.333 37 -49 37l-85 -9l-2 57c38.667 8 74.334 12 107.001 12c63.333 0 95 -30.333 95 -91c0 -21.333 -4.5 -40.166 -13.5 -56.499s-24.833 -34.833 -47.5 -55.5l-63 -61h128v-58h-209v55z" />
    <glyph glyph-name="uni00B3" unicode="&#xb3;" horiz-adv-x="280" 
d="M30 478l3.99902 55.998c40.667 -5.33301 75.334 -8 104.001 -8c30.667 0 46 14.333 46 43c0 28 -15.667 42 -47 42h-65v53h65c10 0 18.833 4.33301 26.5 13s11.5 19 11.5 31c0 22.667 -15 34 -45 34l-92 -7l-4 55c37.333 6.66699 71.333 10 102 10c70 0 105 -28 105 -84
c0 -33.333 -13 -57.666 -39 -72.999c16.667 -6 28.667 -14.667 36 -26s11 -28.666 11 -51.999c0 -64.667 -35.333 -97 -106 -97z" />
    <glyph glyph-name="acute" unicode="&#xb4;" horiz-adv-x="268" 
d="M26 642l216 98l26 -64l-221 -85z" />
    <glyph glyph-name="uni00B5" unicode="&#xb5;" 
d="M84 500l75 -0.000976562v-260c0 -50.667 2.66699 -88.667 8 -114s15.333 -43.166 30 -53.499s37 -15.5 67 -15.5c20 0 41.333 3 64 9s41 12.333 55 19l18 9v406h75v-500h-75v35c-50 -30 -96.667 -45 -140 -45s-77.333 5.66699 -102 17v-229h-75v722z" />
    <glyph glyph-name="paragraph" unicode="&#xb6;" horiz-adv-x="593" 
d="M228 324l-7.00098 0.000976562c-35.333 0 -67.166 7.66699 -95.499 23s-50.5 37 -66.5 65s-24 59.667 -24 95s8 67.166 24 95.499s38.333 50.333 67 66s60.667 23.5 96 23.5h329v-65h-72v-627h-68v627h-116v-627h-67v324z" />
    <glyph glyph-name="periodcentered" unicode="&#xb7;" horiz-adv-x="217" 
d="M67 343h82v-114h-82v114z" />
    <glyph glyph-name="cedilla" unicode="&#xb8;" horiz-adv-x="263" 
d="M54 -212l-12.001 2l3 48c26 -2 48 -3 66 -3c29.333 0 44 12.667 44 38c0 22.667 -14.667 34 -44 34h-42v94h41v-50c40.667 0 69.334 -5.5 86.001 -16.5s25 -31.5 25 -61.5c0 -60 -31 -90 -93 -90c-28 0 -52.667 1.66699 -74 5z" />
    <glyph glyph-name="uni00B9" unicode="&#xb9;" horiz-adv-x="280" 
d="M129 720l-68 -47l-29 47l101 70h60v-312h-64v242z" />
    <glyph glyph-name="ordmasculine" unicode="&#xba;" horiz-adv-x="380" 
d="M53 510c0 51.333 11.332 89 33.999 113s57.334 36 104.001 36c46 0 80 -12 102 -36s33 -61.667 33 -113c0 -102 -45 -153 -135 -153c-92 0 -138 51 -138 153zM242.499 439c9.66699 14 14.498 37.667 14.498 71c0 32.667 -4.83301 55.5 -14.5 68.5
s-26.834 19.5 -51.501 19.5c-25.333 0 -43.166 -6.66699 -53.499 -20s-15.5 -36 -15.5 -68c0 -32.667 5.33301 -56.167 16 -70.5s28.334 -21.5 53.001 -21.5s41.834 7 51.501 21z" />
    <glyph glyph-name="guillemotright" unicode="&#xbb;" horiz-adv-x="539" 
d="M67 145l124 105l-124 94v77l189 -143v-60l-189 -151v78zM305 145l124 105l-124 94v77l189 -143v-60l-189 -151v78z" />
    <glyph glyph-name="onequarter" unicode="&#xbc;" 
d="M208 634l-15 -24v-132h-64v29l-314 -504l-39 25l353 569v123l-68 -47l-29 47l101 70h60v-146zM535 6v-58h-27v-48h-63v48h-141v54l69 210h70l-73 -206h75l5 89h58v-89h27z" />
    <glyph glyph-name="onehalf" unicode="&#xbd;" 
d="M208 634l-15 -24v-132h-64v29l-314 -504l-39 25l353 569v123l-68 -47l-29 47l101 70h60v-146zM519 -42v-58.001h-209v55l88 87c34 33.333 51 61 51 83c0 24.667 -16.333 37 -49 37l-85 -9l-2 57c39.333 8 75 12 107 12c63.333 0 95 -30.333 95 -91
c0 -21.333 -4.5 -40.166 -13.5 -56.499s-24.833 -34.833 -47.5 -55.5l-63 -61h128z" />
    <glyph glyph-name="threequarters" unicode="&#xbe;" 
d="M-224 28l392 632l40 -26l-393 -631zM165 -52h-141v54l69 210h70l-73 -206h75l5 89h58v-89h27v-58h-27v-48h-63v48zM310 478l3.99902 55.998c40.667 -5.33301 75.334 -8 104.001 -8c30.667 0 46 14.333 46 43c0 28 -15.667 42 -47 42h-65v53h65
c10 0 18.833 4.33301 26.5 13s11.5 19 11.5 31c0 22.667 -15 34 -45 34l-92 -7l-4 55c37.333 6.66699 71.333 10 102 10c70 0 105 -28 105 -84c0 -33.333 -13 -57.666 -39 -72.999c16.667 -6 28.667 -14.667 36 -26s11 -28.666 11 -51.999c0 -64.667 -35.333 -97 -106 -97z
" />
    <glyph glyph-name="questiondown" unicode="&#xbf;" horiz-adv-x="441" 
d="M294 388h-82v112h82v-112zM296 239c0 -21.333 -7.16699 -41.667 -21.5 -61s-39.5 -44.666 -75.5 -75.999c-24.667 -21.333 -42.667 -38.5 -54 -51.5s-19.333 -26.333 -24 -40s-7 -30.834 -7 -51.501c0 -31.333 10.667 -54.5 32 -69.5s55 -22.5 101 -22.5
c28.667 0 80.334 7.66699 155.001 23l5 -61c-66.667 -20 -122.334 -30 -167.001 -30c-69.333 0 -120.333 12.667 -153 38s-49 66 -49 122c0 30 2.33301 54 7 72s13.167 34.667 25.5 50s30.833 33.333 55.5 54c36.667 30.667 61.5 54.667 74.5 72s19.5 36.666 19.5 57.999v35
h63c8.66699 -17.333 13 -37.666 13 -60.999z" />
    <glyph glyph-name="Agrave" unicode="&#xc0;" horiz-adv-x="596" 
d="M163 865l26 66l216 -100l-23 -53zM446 178h-296l-50 -178h-76l190 692h168l190 -692h-76zM167 247h262l-105 379h-52z" />
    <glyph glyph-name="Aacute" unicode="&#xc1;" horiz-adv-x="596" 
d="M446 178h-296l-50 -178h-76l190 692h168l190 -692h-76zM167 247h262l-105 379h-52zM186 831l216 100l26 -66l-219 -87z" />
    <glyph glyph-name="Acircumflex" unicode="&#xc2;" horiz-adv-x="596" 
d="M446 178h-296l-50 -178h-76l190 692h168l190 -692h-76zM167 247h262l-105 379h-52zM264 926h65l134 -135h-84l-82 80l-83 -80h-84z" />
    <glyph glyph-name="Atilde" unicode="&#xc3;" horiz-adv-x="596" 
d="M446 178h-296l-50 -178h-76l190 692h168l190 -692h-76zM167 247h262l-105 379h-52zM291 830c-41.333 18 -66.333 27 -75 27c-14.667 0 -35 -12 -61 -36l-13 -12l-17 56c14 16 29.5 29.667 46.5 41s32.833 17 47.5 17s42.667 -9 84 -27c40.667 -18 64.334 -27 71.001 -27
c13.333 0 32.666 11.667 57.999 35l12 11l18 -56c-31.333 -37.333 -60.666 -56 -87.999 -56c-14.667 0 -42.334 9 -83.001 27z" />
    <glyph glyph-name="Adieresis" unicode="&#xc4;" horiz-adv-x="596" 
d="M446 178h-296l-50 -178h-76l190 692h168l190 -692h-76zM167 247h262l-105 379h-52zM159 898h73v-90h-73v90zM363 898h72v-90h-72v90z" />
    <glyph glyph-name="Aring" unicode="&#xc5;" horiz-adv-x="596" 
d="M446 178l-296 -0.000976562l-50 -178h-76l184 669c-20 18.667 -30 43.667 -30 75c0 32.667 11 58.334 33 77.001s50.667 28 86 28s63.833 -9.33301 85.5 -28s32.5 -44.334 32.5 -77.001c0 -29.333 -9 -53.666 -27 -72.999l184 -671h-76zM235 743.999
c0 -13.333 3.66895 -24.666 11.002 -33.999s17.666 -15.333 30.999 -18h40c13.333 2.66699 23.666 8.66699 30.999 18s11 20.666 11 33.999c0 16.667 -5.5 29.667 -16.5 39s-26.167 14 -45.5 14c-41.333 0 -62 -17.667 -62 -53zM167.002 246.999h262l-105 379h-52z" />
    <glyph glyph-name="AE" unicode="&#xc6;" horiz-adv-x="876" 
d="M244 696h585v-73h-345v-230h285v-73h-285v-247h345v-73h-421v175h-251l-58 -175h-79zM408 249l1 374h-109l-122 -374h230z" />
    <glyph glyph-name="Ccedilla" unicode="&#xc7;" horiz-adv-x="544" 
d="M322 -10l-0.000976562 -39c40.667 0 69.334 -5.5 86.001 -16.5s25 -31.5 25 -61.5c0 -60 -31 -90 -93 -90c-28 0 -52.667 1.66699 -74 5l-12 2l3 48c26 -2 48 -3 66 -3c29.333 0 44 12.667 44 38c0 22.667 -14.667 34 -44 34h-42v85
c-59.333 4.66699 -105.166 21 -137.499 49s-54.5 66.5 -66.5 115.5s-18 112.167 -18 189.5c0 82.667 7 149.5 21 200.5s39.5 89.667 76.5 116s90.167 39.5 159.5 39.5c54 0 116.333 -7.33301 187 -22l-3 -65c-67.333 12 -125.333 18 -174 18
c-52 0 -91.333 -9.33301 -118 -28s-44.834 -48.667 -54.501 -90s-14.5 -101.333 -14.5 -180c0 -68 4.5 -121.167 13.5 -159.5s27.5 -67.333 55.5 -87s70.333 -29.5 127 -29.5c46 0 101 6 165 18l3 -66c-68.667 -14 -129 -21 -181 -21z" />
    <glyph glyph-name="Egrave" unicode="&#xc8;" horiz-adv-x="553" 
d="M162 624v-239h284v-67h-284v-250h344v-68h-421v692h421v-68h-344zM169 865l26 66l216 -100l-23 -53z" />
    <glyph glyph-name="Eacute" unicode="&#xc9;" horiz-adv-x="553" 
d="M162 624v-239h284v-67h-284v-250h344v-68h-421v692h421v-68h-344zM176 831l216 100l26 -66l-219 -87z" />
    <glyph glyph-name="Ecircumflex" unicode="&#xca;" horiz-adv-x="553" 
d="M162 624v-239h284v-67h-284v-250h344v-68h-421v692h421v-68h-344zM261 926h65l134 -135h-84l-82 80l-83 -80h-84z" />
    <glyph glyph-name="Edieresis" unicode="&#xcb;" horiz-adv-x="553" 
d="M162 624v-239h284v-67h-284v-250h344v-68h-421v692h421v-68h-344zM157 898h73v-90h-73v90zM361 898h72v-90h-72v90z" />
    <glyph glyph-name="Igrave" unicode="&#xcc;" horiz-adv-x="246" 
d="M85 692h77v-692h-77v692zM-20 865l26 66l216 -100l-23 -53z" />
    <glyph glyph-name="Iacute" unicode="&#xcd;" horiz-adv-x="246" 
d="M85 692h77v-692h-77v692zM12 831l216 100l26 -66l-219 -87z" />
    <glyph glyph-name="Icircumflex" unicode="&#xce;" horiz-adv-x="246" 
d="M85 692h77v-692h-77v692zM87 926h65l134 -135h-84l-82 80l-83 -80h-84z" />
    <glyph glyph-name="Idieresis" unicode="&#xcf;" horiz-adv-x="246" 
d="M85 692h77v-692h-77v692zM-15 898h73v-90h-73v90zM189 898h72v-90h-72v90z" />
    <glyph glyph-name="Eth" unicode="&#xd0;" horiz-adv-x="647" 
d="M88 311h-68v73h68v312h247c90.667 0 156 -28.167 196 -84.5s60 -140.5 60 -252.5c0 -122.667 -21.333 -213.167 -64 -271.5s-106.667 -87.5 -192 -87.5h-247v311zM335 73c117.333 0 176 95.334 176 286.001c0 91.333 -14.5 158.166 -43.5 200.499
s-73.167 63.5 -132.5 63.5h-171v-239h158v-73h-158v-238h171z" />
    <glyph glyph-name="Ntilde" unicode="&#xd1;" horiz-adv-x="676" 
d="M591 692v-692h-141l-269 624h-19v-624h-77v692h144l266 -624h20v624h76zM333 830c-41.333 18 -66.333 27 -75 27c-14.667 0 -35 -12 -61 -36l-13 -12l-17 56c14 16 29.5 29.667 46.5 41s32.833 17 47.5 17s42.667 -9 84 -27c40.667 -18 64.334 -27 71.001 -27
c13.333 0 32.666 11.667 57.999 35l12 11l18 -56c-31.333 -37.333 -60.666 -56 -87.999 -56c-14.667 0 -42.334 9 -83.001 27z" />
    <glyph glyph-name="Ograve" unicode="&#xd2;" horiz-adv-x="660" 
d="M168 27c-40 24.667 -68.499 62.502 -85.499 113.502s-25.5 118.5 -25.5 202.5c0 83.333 8.66699 151.166 26 203.499s46 91.333 86 117s93.667 38.5 161 38.5s121 -12.833 161 -38.5s68.833 -64.667 86.5 -117s26.5 -120.833 26.5 -205.5s-8.5 -152.334 -25.5 -203.001
s-45.333 -88 -85 -112s-93.834 -36 -162.501 -36s-123 12.333 -163 37zM448.501 86.002c27.667 18.667 47.167 48.167 58.5 88.5s17 95.833 17 166.5s-5.83301 127 -17.5 169s-31.5 73.167 -59.5 93.5s-67 30.5 -117 30.5s-89 -10 -117 -30s-47.833 -51 -59.5 -93
s-17.5 -98 -17.5 -168s5.66699 -125.5 17 -166.5s31.166 -71 59.499 -90s67.833 -28.5 118.5 -28.5s89.834 9.33301 117.501 28zM201.001 865.002l26 66l216 -100l-23 -53z" />
    <glyph glyph-name="Oacute" unicode="&#xd3;" horiz-adv-x="660" 
d="M168 27c-40 24.667 -68.499 62.502 -85.499 113.502s-25.5 118.5 -25.5 202.5c0 83.333 8.66699 151.166 26 203.499s46 91.333 86 117s93.667 38.5 161 38.5s121 -12.833 161 -38.5s68.833 -64.667 86.5 -117s26.5 -120.833 26.5 -205.5s-8.5 -152.334 -25.5 -203.001
s-45.333 -88 -85 -112s-93.834 -36 -162.501 -36s-123 12.333 -163 37zM448.501 86.002c27.667 18.667 47.167 48.167 58.5 88.5s17 95.833 17 166.5s-5.83301 127 -17.5 169s-31.5 73.167 -59.5 93.5s-67 30.5 -117 30.5s-89 -10 -117 -30s-47.833 -51 -59.5 -93
s-17.5 -98 -17.5 -168s5.66699 -125.5 17 -166.5s31.166 -71 59.499 -90s67.833 -28.5 118.5 -28.5s89.834 9.33301 117.501 28zM198.001 831.002l216 100l26 -66l-219 -87z" />
    <glyph glyph-name="Ocircumflex" unicode="&#xd4;" horiz-adv-x="660" 
d="M168 27c-40 24.667 -68.499 62.502 -85.499 113.502s-25.5 118.5 -25.5 202.5c0 83.333 8.66699 151.166 26 203.499s46 91.333 86 117s93.667 38.5 161 38.5s121 -12.833 161 -38.5s68.833 -64.667 86.5 -117s26.5 -120.833 26.5 -205.5s-8.5 -152.334 -25.5 -203.001
s-45.333 -88 -85 -112s-93.834 -36 -162.501 -36s-123 12.333 -163 37zM448.501 86.002c27.667 18.667 47.167 48.167 58.5 88.5s17 95.833 17 166.5s-5.83301 127 -17.5 169s-31.5 73.167 -59.5 93.5s-67 30.5 -117 30.5s-89 -10 -117 -30s-47.833 -51 -59.5 -93
s-17.5 -98 -17.5 -168s5.66699 -125.5 17 -166.5s31.166 -71 59.499 -90s67.833 -28.5 118.5 -28.5s89.834 9.33301 117.501 28zM298.001 926.002h65l134 -135h-84l-82 80l-83 -80h-84z" />
    <glyph glyph-name="Otilde" unicode="&#xd5;" horiz-adv-x="660" 
d="M168 27c-40 24.667 -68.499 62.502 -85.499 113.502s-25.5 118.5 -25.5 202.5c0 83.333 8.66699 151.166 26 203.499s46 91.333 86 117s93.667 38.5 161 38.5s121 -12.833 161 -38.5s68.833 -64.667 86.5 -117s26.5 -120.833 26.5 -205.5s-8.5 -152.334 -25.5 -203.001
s-45.333 -88 -85 -112s-93.834 -36 -162.501 -36s-123 12.333 -163 37zM448.501 86.002c27.667 18.667 47.167 48.167 58.5 88.5s17 95.833 17 166.5s-5.83301 127 -17.5 169s-31.5 73.167 -59.5 93.5s-67 30.5 -117 30.5s-89 -10 -117 -30s-47.833 -51 -59.5 -93
s-17.5 -98 -17.5 -168s5.66699 -125.5 17 -166.5s31.166 -71 59.499 -90s67.833 -28.5 118.5 -28.5s89.834 9.33301 117.501 28zM325.001 830.002c-41.333 18 -66.333 27 -75 27c-14.667 0 -35 -12 -61 -36l-13 -12l-17 56c14 16 29.5 29.667 46.5 41s32.833 17 47.5 17
s42.667 -9 84 -27c40.667 -18 64.334 -27 71.001 -27c13.333 0 32.666 11.667 57.999 35l12 11l18 -56c-31.333 -37.333 -60.666 -56 -87.999 -56c-14.667 0 -42.334 9 -83.001 27z" />
    <glyph glyph-name="Odieresis" unicode="&#xd6;" horiz-adv-x="660" 
d="M168 27c-40 24.667 -68.499 62.502 -85.499 113.502s-25.5 118.5 -25.5 202.5c0 83.333 8.66699 151.166 26 203.499s46 91.333 86 117s93.667 38.5 161 38.5s121 -12.833 161 -38.5s68.833 -64.667 86.5 -117s26.5 -120.833 26.5 -205.5s-8.5 -152.334 -25.5 -203.001
s-45.333 -88 -85 -112s-93.834 -36 -162.501 -36s-123 12.333 -163 37zM448.501 86.002c27.667 18.667 47.167 48.167 58.5 88.5s17 95.833 17 166.5s-5.83301 127 -17.5 169s-31.5 73.167 -59.5 93.5s-67 30.5 -117 30.5s-89 -10 -117 -30s-47.833 -51 -59.5 -93
s-17.5 -98 -17.5 -168s5.66699 -125.5 17 -166.5s31.166 -71 59.499 -90s67.833 -28.5 118.5 -28.5s89.834 9.33301 117.501 28zM192.001 898.002h73v-90h-73v90zM396.001 898.002h72v-90h-72v90z" />
    <glyph glyph-name="multiply" unicode="&#xd7;" 
d="M292 254l157 -157l-48 -48l-157 157l-157 -157l-48 48l157 157l-157 157l48 48l157 -157l157 157l48 -48z" />
    <glyph glyph-name="Oslash" unicode="&#xd8;" horiz-adv-x="660" 
d="M96 -90l59 126.001c-34.667 26 -59.667 63.667 -75 113s-23 114 -23 194c0 83.333 8.66699 151.166 26 203.499s46 91.333 86 117s93.667 38.5 161 38.5c50 0 92 -7 126 -21l56 118l58 -24l-59 -127c62 -52 93 -153.667 93 -305c0 -85.333 -8.5 -153.5 -25.5 -204.5
s-45.333 -88.5 -85 -112.5s-94.167 -36 -163.5 -36c-44.667 0 -84.667 5.66699 -120 17l-57 -123zM426 615.001c-24.667 12.667 -56.665 18.999 -95.998 18.999c-50.667 0 -89.834 -10 -117.501 -30s-47.334 -51.667 -59.001 -95s-17.5 -102.666 -17.5 -177.999
c0 -110 17.333 -184.333 52 -223zM448.502 86c27.667 18.667 47.167 48.667 58.5 90s17 99 17 173c0 107.333 -16 182.333 -48 225l-235 -502c24 -9.33301 53.667 -14 89 -14c51.333 0 90.833 9.33301 118.5 28z" />
    <glyph glyph-name="Ugrave" unicode="&#xd9;" horiz-adv-x="644" 
d="M139.5 42.5c-39.667 35 -59.501 90.833 -59.501 167.5v482h77v-484c0 -100 54 -150 162 -150c56.667 0 99 12 127 36s42 62 42 114v484h76v-482c0 -76 -20.167 -131.667 -60.5 -167s-101.166 -53 -182.499 -53s-141.833 17.5 -181.5 52.5zM195.999 865l26 66l216 -100
l-23 -53z" />
    <glyph glyph-name="Uacute" unicode="&#xda;" horiz-adv-x="644" 
d="M139.5 42.5c-39.667 35 -59.501 90.833 -59.501 167.5v482h77v-484c0 -100 54 -150 162 -150c56.667 0 99 12 127 36s42 62 42 114v484h76v-482c0 -76 -20.167 -131.667 -60.5 -167s-101.166 -53 -182.499 -53s-141.833 17.5 -181.5 52.5zM198.999 831l216 100l26 -66
l-219 -87z" />
    <glyph glyph-name="Ucircumflex" unicode="&#xdb;" horiz-adv-x="644" 
d="M139.5 42.5c-39.667 35 -59.501 90.833 -59.501 167.5v482h77v-484c0 -100 54 -150 162 -150c56.667 0 99 12 127 36s42 62 42 114v484h76v-482c0 -76 -20.167 -131.667 -60.5 -167s-101.166 -53 -182.499 -53s-141.833 17.5 -181.5 52.5zM288.999 926h65l134 -135h-84
l-82 80l-83 -80h-84z" />
    <glyph glyph-name="Udieresis" unicode="&#xdc;" horiz-adv-x="644" 
d="M139.5 42.5c-39.667 35 -59.501 90.833 -59.501 167.5v482h77v-484c0 -100 54 -150 162 -150c56.667 0 99 12 127 36s42 62 42 114v484h76v-482c0 -76 -20.167 -131.667 -60.5 -167s-101.166 -53 -182.499 -53s-141.833 17.5 -181.5 52.5zM183.999 898h73v-90h-73v90z
M387.999 898h72v-90h-72v90z" />
    <glyph glyph-name="Yacute" unicode="&#xdd;" horiz-adv-x="538" 
d="M231 291l-221 401h87l172 -324l172 324h87l-220 -401v-291h-77v291zM167 831l216 100l26 -66l-219 -87z" />
    <glyph glyph-name="Thorn" unicode="&#xde;" horiz-adv-x="599" 
d="M85 696h77v-112h176c75.333 0 131.166 -18.333 167.499 -55s54.5 -93 54.5 -169c0 -77.333 -18.667 -136.5 -56 -177.5s-92.666 -61.5 -165.999 -61.5h-176v-121h-77v696zM337 195c96 0 144 55.333 144 166c0 52 -11.5 89.833 -34.5 113.5s-59.5 35.5 -109.5 35.5h-175
v-315h175z" />
    <glyph glyph-name="germandbls" unicode="&#xdf;" horiz-adv-x="574" 
d="M228 1l-21.001 4.00195l3 63c60 -7.33301 100.667 -11 122 -11c46 0 79 8.5 99 25.5s30 42.5 30 76.5c0 22 -2.83301 39.333 -8.5 52s-15.834 24 -30.501 34s-37.334 22.333 -68.001 37c-43.333 20.667 -72.666 39 -87.999 55s-23 36.667 -23 62
c0 24 5.83301 42.833 17.5 56.5s31.167 26.5 58.5 38.5c26 11.333 43.333 23.166 52 35.499s13 31.5 13 57.5s-8.66699 44.833 -26 56.5s-47.666 17.5 -90.999 17.5c-30.667 0 -54.5 -3.66699 -71.5 -11s-29.333 -20 -37 -38s-11.5 -43.333 -11.5 -76v-536h-75v545
c0 66.667 15 113.834 45 141.501s80 41.5 150 41.5c69.333 0 119.166 -11.333 149.499 -34s45.5 -59.334 45.5 -110.001c0 -34.667 -6.16699 -61.5 -18.5 -80.5s-32.166 -34.5 -59.499 -46.5c-24 -10.667 -40.5 -19.167 -49.5 -25.5s-13.5 -14.833 -13.5 -25.5
c0 -6.66699 0.833008 -11.667 2.5 -15s5.83398 -7.16602 12.501 -11.499s16 -9.83301 28 -16.5c4.66699 -2.66699 11.5 -6.33398 20.5 -11.001s20.5 -11.334 34.5 -20.001c45.333 -22.667 76.666 -44.667 93.999 -66s26 -51 26 -89c0 -46 -6.5 -82.5 -19.5 -109.5
s-34.167 -46.667 -63.5 -59s-68.666 -18.5 -117.999 -18.5c-31.333 0 -68 3.66699 -110 11z" />
    <glyph glyph-name="agrave" unicode="&#xe0;" horiz-adv-x="501" 
d="M76 29c-24 26 -35.999 63.335 -35.999 112.002c0 48 12.167 83.667 36.5 107s63.166 37.666 116.499 42.999l157 15v43c0 63.333 -27.333 95 -82 95c-54 0 -119.667 -4.33301 -197 -13l-3 57c71.333 14.667 136.333 22 195 22c56.667 0 97.834 -12.833 123.501 -38.5
s38.5 -66.5 38.5 -122.5v-256c2 -24.667 21.333 -39.334 58 -44.001l-3 -59c-52.667 0 -92.334 13.333 -119.001 40c-59.333 -26.667 -119.333 -40 -180 -40c-46 0 -81 13 -105 39zM327.001 76.002l22.999 8.00098v165l-148 -14c-30 -2.66699 -51.667 -11.334 -65 -26.001
s-20 -36 -20 -64c0 -61.333 25.333 -92 76 -92c44.667 0 89.334 7.66699 134.001 23zM121 676.003l26 64l216 -98l-21 -51z" />
    <glyph glyph-name="aacute" unicode="&#xe1;" horiz-adv-x="501" 
d="M76 29c-24 26 -35.999 63.335 -35.999 112.002c0 48 12.167 83.667 36.5 107s63.166 37.666 116.499 42.999l157 15v43c0 63.333 -27.333 95 -82 95c-54 0 -119.667 -4.33301 -197 -13l-3 57c71.333 14.667 136.333 22 195 22c56.667 0 97.834 -12.833 123.501 -38.5
s38.5 -66.5 38.5 -122.5v-256c2 -24.667 21.333 -39.334 58 -44.001l-3 -59c-52.667 0 -92.334 13.333 -119.001 40c-59.333 -26.667 -119.333 -40 -180 -40c-46 0 -81 13 -105 39zM327.001 76.002l22.999 8.00098v165l-148 -14c-30 -2.66699 -51.667 -11.334 -65 -26.001
s-20 -36 -20 -64c0 -61.333 25.333 -92 76 -92c44.667 0 89.334 7.66699 134.001 23zM118 642.003l216 98l26 -64l-221 -85z" />
    <glyph glyph-name="acircumflex" unicode="&#xe2;" horiz-adv-x="501" 
d="M76 29c-24 26 -35.999 63.335 -35.999 112.002c0 48 12.167 83.667 36.5 107s63.166 37.666 116.499 42.999l157 15v43c0 63.333 -27.333 95 -82 95c-54 0 -119.667 -4.33301 -197 -13l-3 57c71.333 14.667 136.333 22 195 22c56.667 0 97.834 -12.833 123.501 -38.5
s38.5 -66.5 38.5 -122.5v-256c2 -24.667 21.333 -39.334 58 -44.001l-3 -59c-52.667 0 -92.334 13.333 -119.001 40c-59.333 -26.667 -119.333 -40 -180 -40c-46 0 -81 13 -105 39zM327.001 76.002l22.999 8.00098v165l-148 -14c-30 -2.66699 -51.667 -11.334 -65 -26.001
s-20 -36 -20 -64c0 -61.333 25.333 -92 76 -92c44.667 0 89.334 7.66699 134.001 23zM218 732.003h51l124 -140h-75l-73 87l-75 -87h-75z" />
    <glyph glyph-name="atilde" unicode="&#xe3;" horiz-adv-x="501" 
d="M76 29c-24 26 -35.999 63.335 -35.999 112.002c0 48 12.167 83.667 36.5 107s63.166 37.666 116.499 42.999l157 15v43c0 63.333 -27.333 95 -82 95c-54 0 -119.667 -4.33301 -197 -13l-3 57c71.333 14.667 136.333 22 195 22c56.667 0 97.834 -12.833 123.501 -38.5
s38.5 -66.5 38.5 -122.5v-256c2 -24.667 21.333 -39.334 58 -44.001l-3 -59c-52.667 0 -92.334 13.333 -119.001 40c-59.333 -26.667 -119.333 -40 -180 -40c-46 0 -81 13 -105 39zM327.001 76.002l22.999 8.00098v165l-148 -14c-30 -2.66699 -51.667 -11.334 -65 -26.001
s-20 -36 -20 -64c0 -61.333 25.333 -92 76 -92c44.667 0 89.334 7.66699 134.001 23zM235 636.003c-36 15.333 -57.666 23 -64.999 23c-15.333 0 -36 -10 -62 -30l-13 -10l-18 48c32.667 34.667 63 52 91 52c12.667 0 37 -7.66699 73 -23s57.333 -23 64 -23
c13.333 0 32.666 9.66699 57.999 29l13 9l17 -48c-31.333 -34 -60 -51 -86 -51c-14 0 -38 8 -72 24z" />
    <glyph glyph-name="adieresis" unicode="&#xe4;" horiz-adv-x="501" 
d="M76 29c-24 26 -35.999 63.335 -35.999 112.002c0 48 12.167 83.667 36.5 107s63.166 37.666 116.499 42.999l157 15v43c0 63.333 -27.333 95 -82 95c-54 0 -119.667 -4.33301 -197 -13l-3 57c71.333 14.667 136.333 22 195 22c56.667 0 97.834 -12.833 123.501 -38.5
s38.5 -66.5 38.5 -122.5v-256c2 -24.667 21.333 -39.334 58 -44.001l-3 -59c-52.667 0 -92.334 13.333 -119.001 40c-59.333 -26.667 -119.333 -40 -180 -40c-46 0 -81 13 -105 39zM327.001 76.002l22.999 8.00098v165l-148 -14c-30 -2.66699 -51.667 -11.334 -65 -26.001
s-20 -36 -20 -64c0 -61.333 25.333 -92 76 -92c44.667 0 89.334 7.66699 134.001 23zM105 711.003h72v-90h-72v90zM305 711.003h73v-90h-73v90z" />
    <glyph glyph-name="aring" unicode="&#xe5;" horiz-adv-x="501" 
d="M76 29c-24 26 -35.999 63.335 -35.999 112.002c0 48 12.167 83.667 36.5 107s63.166 37.666 116.499 42.999l157 15v43c0 63.333 -27.333 95 -82 95c-54 0 -119.667 -4.33301 -197 -13l-3 57c71.333 14.667 136.333 22 195 22c56.667 0 97.834 -12.833 123.501 -38.5
s38.5 -66.5 38.5 -122.5v-256c2 -24.667 21.333 -39.334 58 -44.001l-3 -59c-52.667 0 -92.334 13.333 -119.001 40c-59.333 -26.667 -119.333 -40 -180 -40c-46 0 -81 13 -105 39zM327.001 76.002l22.999 8.00098v165l-148 -14c-30 -2.66699 -51.667 -11.334 -65 -26.001
s-20 -36 -20 -64c0 -61.333 25.333 -92 76 -92c44.667 0 89.334 7.66699 134.001 23zM183 571.503c-19.333 20.333 -29 45.166 -29 74.499c0 28.667 9.66699 53 29 73s43.333 30 72 30s52.667 -10 72 -30s29 -44.333 29 -73c0 -29.333 -9.66699 -54.166 -29 -74.499
s-43.333 -30.5 -72 -30.5s-52.667 10.167 -72 30.5zM294 605.503c10.667 11 16 24.5 16 40.5c0 15.333 -5.33301 28.5 -16 39.5s-23.667 16.5 -39 16.5s-28.333 -5.5 -39 -16.5s-16 -24.167 -16 -39.5c0 -16 5.33301 -29.5 16 -40.5s23.667 -16.5 39 -16.5
s28.333 5.5 39 16.5z" />
    <glyph glyph-name="ae" unicode="&#xe6;" horiz-adv-x="804" 
d="M74.5 29.5c-23 26.333 -34.498 65.166 -34.498 116.499c0 34.667 5.83301 61.834 17.5 81.501s30.5 34.5 56.5 44.5s61.667 17.333 107 22l129 12v41c0 60.667 -29 91 -87 91c-40 0 -93 -2.66699 -159 -8l-31 -2l-3 67c79.333 10 145 15 197 15c68 0 113 -24.333 135 -73
c32 48.667 83 73 153 73s121.5 -19 154.5 -57s49.5 -97 49.5 -177l-4 -58h-330c0 -54 10 -94.167 30 -120.5s50.667 -39.5 92 -39.5c45.333 0 99.666 2.33301 162.999 7l29 2l2 -61c-72.667 -10.667 -140.334 -16 -203.001 -16c-60 0 -106 18 -138 54l-32 -14
c-57.333 -26.667 -121.333 -40 -192 -40c-44.667 0 -78.5 13.167 -101.5 39.5zM684.002 279c0 59.333 -9.66699 101.5 -29 126.5s-51.333 37.5 -96 37.5c-45.333 0 -79 -13.167 -101 -39.5s-33 -67.833 -33 -124.5h259zM278.502 68c33 8.66699 56.167 16.667 69.5 24v153
l-146 -12c-29.333 -2.66699 -50.833 -11 -64.5 -25s-20.5 -35 -20.5 -63c0 -60 23.667 -90 71 -90c27.333 0 57.5 4.33301 90.5 13z" />
    <glyph glyph-name="ccedilla" unicode="&#xe7;" horiz-adv-x="436" 
d="M335 -65.5c16.667 -11 24.9971 -31.498 24.9971 -61.498c0 -60 -31 -90 -93 -90c-28 0 -52.667 1.66699 -74 5l-12 2l3 48c26 -2 48 -3 66 -3c29.333 0 44 12.667 44 38c0 22.667 -14.667 34 -44 34h-42v86c-57.333 6.66699 -97.833 30.167 -121.5 70.5
s-35.5 102.5 -35.5 186.5c0 79.333 13.333 142.666 40 189.999s78.334 71 155.001 71c20 0 40.667 -1 62 -3s50.333 -6.33301 87 -13l-3 -61c-52.667 6 -93 9 -121 9c-38 0 -67.167 -5.83301 -87.5 -17.5s-34.666 -31.334 -42.999 -59.001s-12.5 -67.167 -12.5 -118.5
c0 -48.667 4 -86.5 12 -113.5s22.5 -46.667 43.5 -59s51.5 -18.5 91.5 -18.5l118 9l3 -62c-64 -9.33301 -112 -14 -144 -14h-3v-39c40.667 0 69.334 -5.5 86.001 -16.5z" />
    <glyph glyph-name="egrave" unicode="&#xe8;" horiz-adv-x="505" 
d="M97.5 49.5c-31.667 39.667 -47.5 102.163 -47.5 187.496c0 92.667 17 161.334 51 206.001s87.333 67 160 67c66.667 0 116.5 -19.167 149.5 -57.5s49.5 -97.166 49.5 -176.499l-4 -57h-330c0 -41.333 4.5 -73.666 13.5 -96.999s24.333 -40.166 46 -50.499
s51.834 -15.5 90.501 -15.5c19.333 0 41.666 0.5 66.999 1.5s48.333 2.5 69 4.5l29 3l2 -59c-74 -10.667 -135.333 -16 -184 -16c-76 0 -129.833 19.833 -161.5 59.5zM385 278.996c0 60.667 -9.66699 103.833 -29 129.5s-51 38.5 -95 38.5c-46 0 -80 -13.5 -102 -40.5
s-33.333 -69.5 -34 -127.5h260zM121 675.995l26 64l216 -98l-21 -51z" />
    <glyph glyph-name="eacute" unicode="&#xe9;" horiz-adv-x="505" 
d="M97.5 49.5c-31.667 39.667 -47.5 102.163 -47.5 187.496c0 92.667 17 161.334 51 206.001s87.333 67 160 67c66.667 0 116.5 -19.167 149.5 -57.5s49.5 -97.166 49.5 -176.499l-4 -57h-330c0 -41.333 4.5 -73.666 13.5 -96.999s24.333 -40.166 46 -50.499
s51.834 -15.5 90.501 -15.5c19.333 0 41.666 0.5 66.999 1.5s48.333 2.5 69 4.5l29 3l2 -59c-74 -10.667 -135.333 -16 -184 -16c-76 0 -129.833 19.833 -161.5 59.5zM385 278.996c0 60.667 -9.66699 103.833 -29 129.5s-51 38.5 -95 38.5c-46 0 -80 -13.5 -102 -40.5
s-33.333 -69.5 -34 -127.5h260zM145 641.995l216 98l26 -64l-221 -85z" />
    <glyph glyph-name="ecircumflex" unicode="&#xea;" horiz-adv-x="505" 
d="M97.5 49.5c-31.667 39.667 -47.5 102.163 -47.5 187.496c0 92.667 17 161.334 51 206.001s87.333 67 160 67c66.667 0 116.5 -19.167 149.5 -57.5s49.5 -97.166 49.5 -176.499l-4 -57h-330c0 -41.333 4.5 -73.666 13.5 -96.999s24.333 -40.166 46 -50.499
s51.834 -15.5 90.501 -15.5c19.333 0 41.666 0.5 66.999 1.5s48.333 2.5 69 4.5l29 3l2 -59c-74 -10.667 -135.333 -16 -184 -16c-76 0 -129.833 19.833 -161.5 59.5zM385 278.996c0 60.667 -9.66699 103.833 -29 129.5s-51 38.5 -95 38.5c-46 0 -80 -13.5 -102 -40.5
s-33.333 -69.5 -34 -127.5h260zM235 731.995h51l124 -140h-75l-73 87l-75 -87h-75z" />
    <glyph glyph-name="edieresis" unicode="&#xeb;" horiz-adv-x="505" 
d="M97.5 49.5c-31.667 39.667 -47.5 102.163 -47.5 187.496c0 92.667 17 161.334 51 206.001s87.333 67 160 67c66.667 0 116.5 -19.167 149.5 -57.5s49.5 -97.166 49.5 -176.499l-4 -57h-330c0 -41.333 4.5 -73.666 13.5 -96.999s24.333 -40.166 46 -50.499
s51.834 -15.5 90.501 -15.5c19.333 0 41.666 0.5 66.999 1.5s48.333 2.5 69 4.5l29 3l2 -59c-74 -10.667 -135.333 -16 -184 -16c-76 0 -129.833 19.833 -161.5 59.5zM385 278.996c0 60.667 -9.66699 103.833 -29 129.5s-51 38.5 -95 38.5c-46 0 -80 -13.5 -102 -40.5
s-33.333 -69.5 -34 -127.5h260zM120 710.995h72v-90h-72v90zM320 710.995h73v-90h-73v90z" />
    <glyph glyph-name="igrave" unicode="&#xec;" horiz-adv-x="218" 
d="M72 500h74v-500h-74v500zM-60 676l26 64l216 -98l-21 -51z" />
    <glyph glyph-name="iacute" unicode="&#xed;" horiz-adv-x="218" 
d="M72 500h74v-500h-74v500zM38 642l216 98l26 -64l-221 -85z" />
    <glyph glyph-name="icircumflex" unicode="&#xee;" horiz-adv-x="218" 
d="M72 500h74v-500h-74v500zM81 732h51l124 -140h-75l-73 87l-75 -87h-75z" />
    <glyph glyph-name="idieresis" unicode="&#xef;" horiz-adv-x="218" 
d="M72 500h74v-500h-74v500zM-31 711h72v-90h-72v90zM169 711h73v-90h-73v90z" />
    <glyph glyph-name="eth" unicode="&#xf0;" horiz-adv-x="548" 
d="M100 48.5c-38.667 38.333 -58 92.168 -58 161.501s18.333 123.333 55 162s88.334 58 155.001 58c43.333 0 90 -9 140 -27l25 -9c-5.33301 87.333 -51 156.333 -137 207l-122 -81l-33 47l95 64c-38.667 16 -80 29.667 -124 41l15 56c66 -12.667 123.667 -30.667 173 -54
l101 68l34 -47l-77 -52c102.667 -64.667 154 -161.667 154 -291c0 -86.667 -7.83301 -156.334 -23.5 -209.001s-40.334 -91.167 -74.001 -115.5s-78.167 -36.5 -133.5 -36.5c-71.333 0 -126.333 19.167 -165 57.5zM355 84.502c21.333 17 37.167 44.999 47.5 83.999
s15.5 91.833 15.5 158.5c-60 24 -112.667 36 -158 36c-44.667 0 -79 -13.667 -103 -41s-36 -64.666 -36 -111.999c0 -48 12.5 -85.167 37.5 -111.5s62.5 -39.5 112.5 -39.5c34.667 0 62.667 8.5 84 25.5z" />
    <glyph glyph-name="ntilde" unicode="&#xf1;" horiz-adv-x="537" 
d="M72 500l74.0029 0.000976562v-35c30 16.667 57.5 28.334 82.5 35.001s51.167 10 78.5 10c42.667 0 75.667 -8 99 -24s39.833 -41.5 49.5 -76.5s14.5 -83.5 14.5 -145.5v-264h-74v262c0 47.333 -2.83301 83.666 -8.5 108.999s-15.834 43.666 -30.501 54.999s-36 17 -64 17
c-22.667 0 -45.834 -2.83301 -69.501 -8.5s-42.834 -12.167 -57.501 -19.5l-19 -9v-406h-75v500zM277.003 636.001c-36 15.333 -57.666 23 -64.999 23c-15.333 0 -36 -10 -62 -30l-13 -10l-18 48c32.667 34.667 63 52 91 52c12.667 0 37 -7.66699 73 -23s57.333 -23 64 -23
c13.333 0 32.666 9.66699 57.999 29l13 9l17 -48c-31.333 -34 -60 -51 -86 -51c-14 0 -38 8 -72 24z" />
    <glyph glyph-name="ograve" unicode="&#xf2;" horiz-adv-x="528" 
d="M137 16.5c-31.333 17.667 -53.668 45.168 -67.001 82.501s-20 86.666 -20 147.999c0 63.333 7 114.166 21 152.499s36.667 66.333 68 84s73 26.5 125 26.5c52.667 0 94.5 -9 125.5 -27s53.5 -46 67.5 -84s21 -88.667 21 -152c0 -61.333 -6.66699 -110.666 -20 -147.999
s-35.5 -64.833 -66.5 -82.5s-73.5 -26.5 -127.5 -26.5c-53.333 0 -95.666 8.83301 -126.999 26.5zM348.998 73.501c19.333 12.333 32.832 31.999 40.499 58.999s11.5 65.167 11.5 114.5c0 52 -4 92 -12 120s-21.667 48 -41 60s-47 18 -83 18s-63.833 -6 -83.5 -18
s-33.667 -32 -42 -60s-12.5 -68 -12.5 -120c0 -48.667 3.83301 -86.667 11.5 -114s21.334 -47.166 41.001 -59.499s48.167 -18.5 85.5 -18.5c36.667 0 64.667 6.16699 84 18.5zM140.997 676l26 64l216 -98l-21 -51z" />
    <glyph glyph-name="oacute" unicode="&#xf3;" horiz-adv-x="528" 
d="M137 16.5c-31.333 17.667 -53.668 45.168 -67.001 82.501s-20 86.666 -20 147.999c0 63.333 7 114.166 21 152.499s36.667 66.333 68 84s73 26.5 125 26.5c52.667 0 94.5 -9 125.5 -27s53.5 -46 67.5 -84s21 -88.667 21 -152c0 -61.333 -6.66699 -110.666 -20 -147.999
s-35.5 -64.833 -66.5 -82.5s-73.5 -26.5 -127.5 -26.5c-53.333 0 -95.666 8.83301 -126.999 26.5zM348.998 73.501c19.333 12.333 32.832 31.999 40.499 58.999s11.5 65.167 11.5 114.5c0 52 -4 92 -12 120s-21.667 48 -41 60s-47 18 -83 18s-63.833 -6 -83.5 -18
s-33.667 -32 -42 -60s-12.5 -68 -12.5 -120c0 -48.667 3.83301 -86.667 11.5 -114s21.334 -47.166 41.001 -59.499s48.167 -18.5 85.5 -18.5c36.667 0 64.667 6.16699 84 18.5zM153.997 642l216 98l26 -64l-221 -85z" />
    <glyph glyph-name="ocircumflex" unicode="&#xf4;" horiz-adv-x="528" 
d="M137 16.5c-31.333 17.667 -53.668 45.168 -67.001 82.501s-20 86.666 -20 147.999c0 63.333 7 114.166 21 152.499s36.667 66.333 68 84s73 26.5 125 26.5c52.667 0 94.5 -9 125.5 -27s53.5 -46 67.5 -84s21 -88.667 21 -152c0 -61.333 -6.66699 -110.666 -20 -147.999
s-35.5 -64.833 -66.5 -82.5s-73.5 -26.5 -127.5 -26.5c-53.333 0 -95.666 8.83301 -126.999 26.5zM348.998 73.501c19.333 12.333 32.832 31.999 40.499 58.999s11.5 65.167 11.5 114.5c0 52 -4 92 -12 120s-21.667 48 -41 60s-47 18 -83 18s-63.833 -6 -83.5 -18
s-33.667 -32 -42 -60s-12.5 -68 -12.5 -120c0 -48.667 3.83301 -86.667 11.5 -114s21.334 -47.166 41.001 -59.499s48.167 -18.5 85.5 -18.5c36.667 0 64.667 6.16699 84 18.5zM235.997 732h51l124 -140h-75l-73 87l-75 -87h-75z" />
    <glyph glyph-name="otilde" unicode="&#xf5;" horiz-adv-x="528" 
d="M137 16.5c-31.333 17.667 -53.668 45.168 -67.001 82.501s-20 86.666 -20 147.999c0 63.333 7 114.166 21 152.499s36.667 66.333 68 84s73 26.5 125 26.5c52.667 0 94.5 -9 125.5 -27s53.5 -46 67.5 -84s21 -88.667 21 -152c0 -61.333 -6.66699 -110.666 -20 -147.999
s-35.5 -64.833 -66.5 -82.5s-73.5 -26.5 -127.5 -26.5c-53.333 0 -95.666 8.83301 -126.999 26.5zM348.998 73.501c19.333 12.333 32.832 31.999 40.499 58.999s11.5 65.167 11.5 114.5c0 52 -4 92 -12 120s-21.667 48 -41 60s-47 18 -83 18s-63.833 -6 -83.5 -18
s-33.667 -32 -42 -60s-12.5 -68 -12.5 -120c0 -48.667 3.83301 -86.667 11.5 -114s21.334 -47.166 41.001 -59.499s48.167 -18.5 85.5 -18.5c36.667 0 64.667 6.16699 84 18.5zM262.997 636c-36 15.333 -57.666 23 -64.999 23c-15.333 0 -36 -10 -62 -30l-13 -10l-18 48
c32.667 34.667 63 52 91 52c12.667 0 37 -7.66699 73 -23s57.333 -23 64 -23c13.333 0 32.666 9.66699 57.999 29l13 9l17 -48c-31.333 -34 -60 -51 -86 -51c-14 0 -38 8 -72 24z" />
    <glyph glyph-name="odieresis" unicode="&#xf6;" horiz-adv-x="528" 
d="M137 16.5c-31.333 17.667 -53.668 45.168 -67.001 82.501s-20 86.666 -20 147.999c0 63.333 7 114.166 21 152.499s36.667 66.333 68 84s73 26.5 125 26.5c52.667 0 94.5 -9 125.5 -27s53.5 -46 67.5 -84s21 -88.667 21 -152c0 -61.333 -6.66699 -110.666 -20 -147.999
s-35.5 -64.833 -66.5 -82.5s-73.5 -26.5 -127.5 -26.5c-53.333 0 -95.666 8.83301 -126.999 26.5zM348.998 73.501c19.333 12.333 32.832 31.999 40.499 58.999s11.5 65.167 11.5 114.5c0 52 -4 92 -12 120s-21.667 48 -41 60s-47 18 -83 18s-63.833 -6 -83.5 -18
s-33.667 -32 -42 -60s-12.5 -68 -12.5 -120c0 -48.667 3.83301 -86.667 11.5 -114s21.334 -47.166 41.001 -59.499s48.167 -18.5 85.5 -18.5c36.667 0 64.667 6.16699 84 18.5zM124.997 711h72v-90h-72v90zM324.997 711h73v-90h-73v90z" />
    <glyph glyph-name="divide" unicode="&#xf7;" 
d="M242 605h75v-101h-75v101zM120 354h319v-73h-319v73zM242 131h75v-101h-75v101z" />
    <glyph glyph-name="oslash" unicode="&#xf8;" horiz-adv-x="528" 
d="M95 -94l43.999 109.001c-32 18 -54.833 46 -68.5 84s-20.5 90.333 -20.5 157c0 89.333 16.5 154 49.5 194s87.833 60 164.5 60c24.667 0 49.334 -2.66699 74.001 -8l43 104l50 -19l-43 -104c60 -32.667 90 -108.334 90 -227.001c0 -64.667 -6.66699 -116.167 -20 -154.5
s-35.5 -66.5 -66.5 -84.5s-73.5 -27 -127.5 -27c-26 0 -51.333 2.66699 -76 8l-43 -110zM313.999 439.001l-50 5.99902c-50.667 0 -86.167 -13.333 -106.5 -40s-30.5 -70.667 -30.5 -132c0 -53.333 2.5 -95.166 7.5 -125.499s16.5 -52.833 34.5 -67.5zM349.999 73.5
c19.333 12.333 32.667 32.833 40 61.5s11 70.667 11 126c0 78.667 -14 130.667 -42 156l-146 -357c13.333 -3.33301 30.333 -5 51 -5c38 0 66.667 6.16699 86 18.5z" />
    <glyph glyph-name="ugrave" unicode="&#xf9;" horiz-adv-x="531" 
d="M129.5 13.5c-23 15.667 -39.168 41.167 -48.501 76.5s-14 85 -14 149v261h75v-260c0 -50 2.66699 -87.667 8 -113s15 -43.333 29 -54s35.667 -16 65 -16c45.333 0 92 12.333 140 37v406h75v-500h-75v35c-27.333 -16 -52.666 -27.5 -75.999 -34.5s-50 -10.5 -80 -10.5
c-42.667 0 -75.5 7.83301 -98.5 23.5zM113.999 676l26 64l216 -98l-21 -51z" />
    <glyph glyph-name="uacute" unicode="&#xfa;" horiz-adv-x="531" 
d="M129.5 13.5c-23 15.667 -39.168 41.167 -48.501 76.5s-14 85 -14 149v261h75v-260c0 -50 2.66699 -87.667 8 -113s15 -43.333 29 -54s35.667 -16 65 -16c45.333 0 92 12.333 140 37v406h75v-500h-75v35c-27.333 -16 -52.666 -27.5 -75.999 -34.5s-50 -10.5 -80 -10.5
c-42.667 0 -75.5 7.83301 -98.5 23.5zM154.999 642l216 98l26 -64l-221 -85z" />
    <glyph glyph-name="ucircumflex" unicode="&#xfb;" horiz-adv-x="531" 
d="M129.5 13.5c-23 15.667 -39.168 41.167 -48.501 76.5s-14 85 -14 149v261h75v-260c0 -50 2.66699 -87.667 8 -113s15 -43.333 29 -54s35.667 -16 65 -16c45.333 0 92 12.333 140 37v406h75v-500h-75v35c-27.333 -16 -52.666 -27.5 -75.999 -34.5s-50 -10.5 -80 -10.5
c-42.667 0 -75.5 7.83301 -98.5 23.5zM227.999 732h51l124 -140h-75l-73 87l-75 -87h-75z" />
    <glyph glyph-name="udieresis" unicode="&#xfc;" horiz-adv-x="531" 
d="M129.5 13.5c-23 15.667 -39.168 41.167 -48.501 76.5s-14 85 -14 149v261h75v-260c0 -50 2.66699 -87.667 8 -113s15 -43.333 29 -54s35.667 -16 65 -16c45.333 0 92 12.333 140 37v406h75v-500h-75v35c-27.333 -16 -52.666 -27.5 -75.999 -34.5s-50 -10.5 -80 -10.5
c-42.667 0 -75.5 7.83301 -98.5 23.5zM131.999 711h72v-90h-72v90zM331.999 711h73v-90h-73v90z" />
    <glyph glyph-name="yacute" unicode="&#xfd;" horiz-adv-x="483" 
d="M241 0h-74l-142 500h75l125 -435h33l126 435h75l-208 -722h-75zM154 642l216 98l26 -64l-221 -85z" />
    <glyph glyph-name="thorn" unicode="&#xfe;" horiz-adv-x="527" 
d="M72 718h74.998v-243c50.667 23.333 99.334 35 146.001 35c45.333 0 81.333 -8.33301 108 -25s45.834 -43.5 57.501 -80.5s17.5 -87.833 17.5 -152.5c0 -65.333 -7.16699 -116.833 -21.5 -154.5s-37.833 -65 -70.5 -82s-78 -25.5 -136 -25.5l-101 7v-219h-75v940z
M339.498 74.5c22.333 13 37.835 33.5 46.502 61.5s13 66.667 13 116c0 47.333 -3.5 84.833 -10.5 112.5s-18.667 47.667 -35 60s-38.833 18.5 -67.5 18.5c-40 0 -80 -7.33301 -120 -22l-19 -7v-353c43.333 -4 75.666 -6 96.999 -6c41.333 0 73.166 6.5 95.499 19.5z" />
    <glyph glyph-name="ydieresis" unicode="&#xff;" horiz-adv-x="483" 
d="M241 0h-74l-142 500h75l125 -435h33l126 435h75l-208 -722h-75zM104 711h72v-90h-72v90zM304 711h73v-90h-73v90z" />
    <glyph glyph-name="Amacron" unicode="&#x100;" horiz-adv-x="596" 
d="M446 178h-296l-50 -178h-76l190 692h168l190 -692h-76zM167 247h262l-105 379h-52zM141 870h311v-58h-311v58z" />
    <glyph glyph-name="amacron" unicode="&#x101;" horiz-adv-x="501" 
d="M76 29c-24 26 -35.999 63.335 -35.999 112.002c0 48 12.167 83.667 36.5 107s63.166 37.666 116.499 42.999l157 15v43c0 63.333 -27.333 95 -82 95c-54 0 -119.667 -4.33301 -197 -13l-3 57c71.333 14.667 136.333 22 195 22c56.667 0 97.834 -12.833 123.501 -38.5
s38.5 -66.5 38.5 -122.5v-256c2 -24.667 21.333 -39.334 58 -44.001l-3 -59c-52.667 0 -92.334 13.333 -119.001 40c-59.333 -26.667 -119.333 -40 -180 -40c-46 0 -81 13 -105 39zM327.001 76.002l22.999 8.00098v165l-148 -14c-30 -2.66699 -51.667 -11.334 -65 -26.001
s-20 -36 -20 -64c0 -61.333 25.333 -92 76 -92c44.667 0 89.334 7.66699 134.001 23zM112 683.003h275v-59h-275v59z" />
    <glyph glyph-name="Abreve" unicode="&#x102;" horiz-adv-x="596" 
d="M446 178h-296l-50 -178h-76l190 692h168l190 -692h-76zM167 247h262l-105 379h-52zM184.5 823c-28.333 24 -43.501 55.667 -45.501 95h69c0.666992 -22 9.5 -40 26.5 -54s37.833 -21 62.5 -21c24 0 44.333 7 61 21s25.334 32 26.001 54h70
c-2 -39.333 -17.333 -71 -46 -95s-66 -36 -112 -36s-83.167 12 -111.5 36z" />
    <glyph glyph-name="abreve" unicode="&#x103;" horiz-adv-x="503" 
d="M138 630c-28.667 26 -44.001 60.3311 -46.001 102.998h77c1.33301 -23.333 9.33301 -41.666 24 -54.999s34.667 -20 60 -20s45.333 6.83301 60 20.5s22.334 31.834 23.001 54.501h77c-2 -42.667 -17.333 -77 -46 -103s-66.667 -39 -114 -39c-48 0 -86.333 13 -115 39z
M75.499 29.998c-23.667 26.667 -35.501 63.998 -35.501 111.998c0 47.333 12.333 82.833 37 106.5s63.334 37.834 116.001 42.501l157 15v41c0 60.667 -29 91 -87 91c-51.333 0 -115 -4.33301 -191 -13l-3 65l32 5c64 10 119.333 15 166 15c54 0 93.833 -13.167 119.5 -39.5
s38.5 -67.5 38.5 -123.5v-246c0.666992 -25.333 19.667 -40.666 57 -45.999l-2 -65c-54 0 -93.667 12.667 -119 38l-25 -10c-19.333 -6.66699 -44.333 -13 -75 -19s-59 -9 -85 -9c-43.333 0 -76.833 13.333 -100.5 40zM349.998 84.9961v160.001l-148 -12
c-56.667 -4.66699 -85 -34 -85 -88c0 -28.667 6.16699 -50.834 18.5 -66.501s29.833 -23.5 52.5 -23.5c50 0 104 10 162 30z" />
    <glyph glyph-name="Aogonek" unicode="&#x104;" horiz-adv-x="596" 
d="M592 -197c-30 -6 -57.333 -9 -82 -9s-45.667 7.83301 -63 23.5s-26 34.5 -26 56.5c0 20 6.33301 40.667 19 62s27 39.333 43 54l13 11l-50 177h-296l-50 -178h-76l190 692h168l190 -692h-8c-46.667 -46.667 -70 -80.667 -70 -102c0 -12.667 3.83301 -23 11.5 -31
s17.5 -12 29.5 -12l50 6zM167 247h262l-105 379h-52z" />
    <glyph glyph-name="aogonek" unicode="&#x105;" horiz-adv-x="501" 
d="M476 -139l7 -57.998c-30 -6 -57.333 -9 -82 -9s-45.667 7.83301 -63 23.5s-26 34.5 -26 56.5c0 20 6.33301 40.667 19 62s27 39.333 43 54l20 17c-12.667 6 -23.667 13.667 -33 23c-59.333 -26.667 -119.333 -40 -180 -40c-46 0 -81 13 -105 39s-36 63.333 -36 112
c0 48 12.167 83.667 36.5 107s63.166 37.666 116.499 42.999l157 15v43c0 63.333 -27.333 95 -82 95c-54 0 -119.667 -4.33301 -197 -13l-3 57c71.333 14.667 136.333 22 195 22c56.667 0 97.834 -12.833 123.501 -38.5s38.5 -66.5 38.5 -122.5v-256
c2 -24.667 21.333 -39.334 58 -44.001l-3 -59c-8.66699 0 -19.667 0.666992 -33 2c-41.333 -42.667 -62 -74 -62 -94c0 -12.667 3.83301 -23 11.5 -31s17.5 -12 29.5 -12zM350 249.002l-148.001 -13.999c-30 -2.66699 -51.667 -11.334 -65 -26.001s-20 -36 -20 -64
c0 -61.333 25.333 -92 76 -92c44.667 0 89.334 7.66699 134.001 23l23 8v165z" />
    <glyph glyph-name="Cacute" unicode="&#x106;" horiz-adv-x="544" 
d="M158 29.5c-38 26.333 -63.998 64.833 -77.998 115.5s-21 117.667 -21 201c0 82.667 7 149.5 21 200.5s39.5 89.667 76.5 116s90.167 39.5 159.5 39.5c54 0 116.333 -7.33301 187 -22l-3 -65c-67.333 12 -125.333 18 -174 18c-52 0 -91.333 -9.33301 -118 -28
s-44.834 -48.667 -54.501 -90s-14.5 -101.333 -14.5 -180c0 -68 4.5 -121.167 13.5 -159.5s27.5 -67.333 55.5 -87s70.333 -29.5 127 -29.5c46 0 101 6 165 18l3 -66c-68.667 -14 -129.334 -21 -182.001 -21c-70.667 0 -125 13.167 -163 39.5zM181.002 831l216 100l26 -66
l-219 -87z" />
    <glyph glyph-name="cacute" unicode="&#x107;" horiz-adv-x="436" 
d="M133 16.5c-29.333 17.667 -50.335 45.334 -63.002 83.001s-19 87.834 -19 150.501c0 79.333 13.333 142.666 40 189.999s78.334 71 155.001 71c20 0 40.667 -1 62 -3s50.333 -6.33301 87 -13l-3 -61c-52.667 6 -93 9 -121 9c-38 0 -67.167 -5.83301 -87.5 -17.5
s-34.666 -31.334 -42.999 -59.001s-12.5 -67.167 -12.5 -118.5c0 -48.667 4 -86.5 12 -113.5s22.5 -46.667 43.5 -59s51.5 -18.5 91.5 -18.5l118 9l3 -62c-64 -9.33301 -112 -14 -144 -14c-50 0 -89.667 8.83301 -119 26.5zM125.998 642l216 98l26 -64l-221 -85z" />
    </font>
</defs>
</svg>
